<?xml version="1.0" encoding="UTF-8" standalone="no"?>
<!-- Created with Inkscape (http://www.inkscape.org/) -->

<svg
   width="39.870998mm"
   height="39.870998mm"
   viewBox="0 0 39.870998 39.870998"
   version="1.1"
   id="svg5"
   inkscape:version="1.1.1 (3bf5ae0d25, 2021-09-20)"
   sodipodi:docname="tło.svg"
   xmlns:inkscape="http://www.inkscape.org/namespaces/inkscape"
   xmlns:sodipodi="http://sodipodi.sourceforge.net/DTD/sodipodi-0.dtd"
   xmlns="http://www.w3.org/2000/svg"
   xmlns:svg="http://www.w3.org/2000/svg">
  <sodipodi:namedview
     id="namedview7"
     pagecolor="#ffffff"
     bordercolor="#666666"
     borderopacity="1.0"
     inkscape:pageshadow="2"
     inkscape:pageopacity="0.0"
     inkscape:pagecheckerboard="0"
     inkscape:document-units="mm"
     showgrid="false"
     width="209mm"
     inkscape:zoom="1"
     inkscape:cx="452.5"
     inkscape:cy="294"
     inkscape:window-width="1920"
     inkscape:window-height="986"
     inkscape:window-x="-11"
     inkscape:window-y="-11"
     inkscape:window-maximized="1"
     inkscape:current-layer="layer1" />
  <defs
     id="defs2">
    <pattern
       id="EMFhbasepattern"
       patternUnits="userSpaceOnUse"
       width="6"
       height="6"
       x="0"
       y="0" />
  </defs>
  <g
     inkscape:label="Warstwa 1"
     inkscape:groupmode="layer"
     id="layer1">
    <g
       id="g33231"
       transform="matrix(0.68281818,0,0,0.68281818,-78.913261,-60.767277)"
       inkscape:tile-cx="76.503352"
       inkscape:tile-cy="94.11358"
       inkscape:tile-w="39.870982"
       inkscape:tile-h="39.871016"
       inkscape:tile-x0="56.567854"
       inkscape:tile-y0="74.178145">
      <path
         style="fill:#000000;stroke:none;stroke-width:0.264583px;stroke-linecap:butt;stroke-linejoin:miter;stroke-opacity:1"
         d="M 115.58003,147.37633 V 89.004676 h 58.37166 v 58.371654 z"
         id="path32316" />
      <path
         id="path22516"
         style="fill:#ffb380;fill-opacity:1;stroke:#7d781c;stroke-width:0.0761715;stroke-miterlimit:4;stroke-dasharray:none;stroke-opacity:1"
         d="m 454.54102,428.1543 c -0.11679,-0.0469 -5.62195,0.97412 -5.80469,1.07617 -0.0779,0.0435 0.12229,0.23585 0.71484,0.6875 0.45268,0.34507 1.2643,0.96458 1.80274,1.375 0.53839,0.41049 0.99487,0.74657 1.01562,0.74805 0.17424,0.0113 2.74256,-0.51064 2.82813,-0.57618 0.0964,-0.0737 0.0739,-0.29277 -0.16797,-1.67578 -0.19616,-1.1198 -0.31153,-1.60404 -0.38867,-1.63476 z m -8.71485,1.62304 c -0.40524,0 -1.9931,0.34219 -1.96679,0.42383 0.0113,0.0457 0.82726,0.68728 1.80468,1.42383 l 1.77735,1.33789 1.00195,-0.18555 c 0.55151,-0.10204 1.02955,-0.18517 1.06055,-0.18554 0.19653,-10e-4 -0.13698,-0.28869 -1.71289,-1.47852 -1.20824,-0.912 -1.8317,-1.33594 -1.96485,-1.33594 z m -4.86523,0.91211 c -0.1595,0.008 -0.41357,0.0542 -0.88477,0.14453 -0.5537,0.10659 -1.0213,0.19336 -1.03906,0.19336 -0.14891,0 0.25813,0.3435 1.75195,1.48243 0.95191,0.72582 1.79958,1.32303 1.88477,1.32617 0.15987,0.004 1.69815,-0.27295 1.93555,-0.35156 0.0733,-0.0265 0.11491,-0.075 0.0937,-0.11133 -0.0393,-0.0639 -3.0458,-2.34693 -3.42968,-2.60352 -0.0892,-0.0593 -0.15301,-0.0884 -0.3125,-0.0801 z m -4.12305,1.27149 v 2.10937 c 0.53445,0.39669 0.96062,0.70899 0.97852,0.70899 0.10922,0 2.05028,-0.38501 2.07617,-0.41211 0.051,-0.0529 -0.29225,-0.33189 -1.95313,-1.58008 z m 19.05078,6.01562 -0.40429,0.0254 -0.4043,0.0273 -1.21094,1.32617 c -0.66565,0.72949 -1.19435,1.35431 -1.17383,1.38867 0.0227,0.034 0.73934,0.053 1.59571,0.0391 l 1.55664,-0.0215 0.0215,-1.39258 z m -9.88672,0.006 v 0.002 l -1.14843,0.002 -1.2168,1.34375 c -0.66962,0.73882 -1.20137,1.36916 -1.18164,1.40234 0.0189,0.034 0.52071,0.0606 1.11523,0.0606 h 1.08203 l 0.82032,-0.87891 c 1.17101,-1.25518 1.67773,-1.82362 1.67773,-1.88281 0,-0.0265 -0.51684,-0.0511 -1.14844,-0.0488 z m 5.11914,0 v 0.002 l -1.14648,0.002 -1.21875,1.34179 c -0.67019,0.73784 -1.20198,1.37017 -1.18164,1.4043 0.0189,0.034 0.52267,0.0606 1.11719,0.0606 h 1.08203 l 0.81836,-0.87891 c 1.17108,-1.25518 1.67773,-1.82362 1.67773,-1.88281 0,-0.0265 -0.5168,-0.0507 -1.14844,-0.0488 z m -10.23437,0.002 -1.1543,0.002 -1.2168,1.34375 c -0.66961,0.73882 -1.20144,1.36916 -1.18164,1.40234 0.0609,0.10205 2.07886,0.066 2.25196,-0.0391 0.16894,-0.10356 2.39082,-2.5129 2.43164,-2.63672 0.0189,-0.0472 -0.41234,-0.0742 -1.13086,-0.0723 z m -4.04883,0.0293 v 0.125 c 0.0451,-0.0577 0.0703,-0.0951 0.0703,-0.10742 0,-0.006 -0.0271,-0.0124 -0.0703,-0.0176 z m 19.04883,3.64063 -18.88281,0.0176 h -0.16602 v 3.55664 h 0.125 l 18.88281,-0.0176 0.0234,-1.7793 z m -19.04883,4.47461 v 3.49804 c 0.0586,0 0.10727,0 0.16602,0 h 18.88867 l -0.0234,-1.74023 -0.0195,-1.73828 -18.85742,-0.0195 c -0.0624,-5e-5 -0.0923,4e-5 -0.1543,0 z m 3.68555,4.43554 -3.68555,0.006 v 14.68555 h 3.68945 v -7.34766 z m 15.36133,0 -7.24805,0.0176 -7.2461,0.0195 -0.0195,7.22852 c -0.008,3.97636 -0.002,7.27438 0.0195,7.32812 0.0265,0.0775 1.55008,0.0977 7.26563,0.0977 h 7.23047 v -7.34766 z"
         transform="scale(0.26458333)" />
      <path
         id="path32193"
         style="fill:#ffb380;fill-opacity:1;stroke:#7d781c;stroke-width:0.0761715;stroke-miterlimit:4;stroke-dasharray:none;stroke-opacity:1"
         d="m 656.91211,431.55273 -1.0293,0.18946 c -0.62967,0.11678 -1.02929,0.22726 -1.02929,0.2832 0,0.0503 0.79447,0.68948 1.76562,1.42188 0.32156,0.24251 0.57134,0.42665 0.83594,0.62304 v -2.10937 z m -4.94727,0.96094 c -0.26116,0 -1.91833,0.31939 -1.98632,0.38281 -0.048,0.0454 1.97114,1.61994 3.22851,2.51758 l 0.39649,0.28321 0.8125,-0.15039 c 0.99579,-0.1852 1.23362,-0.24573 1.25195,-0.31641 0.008,-0.0302 -0.7808,-0.65436 -1.75195,-1.38672 -1.1472,-0.86521 -1.83091,-1.33008 -1.95118,-1.33008 z m -4.83007,0.87891 v 0.002 c -0.062,0.0189 -2.0529,0.39588 -4.42383,0.84375 l -4.31055,0.81445 v 0.7461 c 0,0.45607 0.0577,1.01987 0.14844,1.44726 0.11716,0.54872 0.14925,0.99687 0.15039,2.08008 10e-4,1.03023 0.0265,1.39056 0.0957,1.41992 0.0514,0.0227 2.57672,0.0434 5.60938,0.0449 l 5.51367,0.004 0.81445,-0.8789 c 1.23398,-1.33161 1.67383,-1.82601 1.67383,-1.88282 0,-0.0265 -2.28853,-0.0527 -5.08398,-0.0527 -3.33827,0 -5.08204,-0.0264 -5.08204,-0.0781 0,-0.0438 0.0309,-0.0781 0.0664,-0.0781 0.034,0 1.84077,-0.33503 4.00977,-0.7461 2.16888,-0.41091 4.07848,-0.77403 4.24414,-0.80468 0.16554,-0.0302 0.28937,-0.0889 0.27539,-0.13086 -0.0484,-0.14703 -3.58964,-2.77839 -3.70117,-2.75 z m 9.24414,4.58984 v 0.002 l -1.14844,0.002 -1.21875,1.34375 c -0.66962,0.73882 -1.20145,1.36916 -1.18164,1.40234 0.0189,0.034 0.52588,0.0606 1.12304,0.0606 h 1.08594 l 0.81446,-0.87891 c 0.96264,-1.03883 1.43746,-1.56392 1.60156,-1.77344 v -0.12695 c -0.15953,-0.019 -0.58005,-0.033 -1.07617,-0.0312 z m 1.07617,3.68946 -18.71485,0.0195 -0.0234,1.77734 -0.0195,1.7793 18.75781,-0.0195 z m -9.14063,4.45117 c -7.42393,0.002 -9.5892,0.0269 -9.625,0.084 -0.0722,0.11792 -0.0838,3.293 -0.008,3.36719 0.0263,0.0301 8.46443,0.0525 18.77344,0.0527 v -3.49804 c -3.67391,-0.003 -6.70512,-0.004 -9.13867,-0.004 z m 9.14063,4.44726 -7.55274,0.0117 -11.23828,0.0195 -0.0488,7.26758 c -0.0264,3.9978 -0.0324,7.29592 -0.01,7.32813 0.0189,0.0302 5.0961,0.0586 11.28515,0.0586 h 7.56446 z"
         transform="scale(0.26458333)" />
      <path
         id="path32197"
         style="fill:#ffb380;fill-opacity:1;stroke:#7d781c;stroke-width:0.0761715;stroke-miterlimit:4;stroke-dasharray:none;stroke-opacity:1"
         d="m 528.3418,336.39648 c -0.0332,0.92107 -0.0274,2.81192 0.0312,2.86914 0.0264,0.0302 8.55051,0.0527 18.93945,0.0527 h 18.88867 l -0.0234,-1.74024 -0.0137,-1.18164 z m 22.49023,3.85938 -11.23828,0.0176 -11.23828,0.0195 -0.0488,7.26758 c -0.0265,3.99779 -0.0324,7.29592 -0.01,7.32812 0.0189,0.0302 5.0961,0.0586 11.28515,0.0586 h 11.25391 v -7.34766 z m 15.36133,0 -7.24805,0.0176 -7.24609,0.0195 -0.0195,7.22851 c -0.008,3.97637 -0.002,7.27438 0.0195,7.32813 0.0265,0.0775 1.55007,0.0977 7.26562,0.0977 h 7.23243 v -7.34766 z"
         transform="scale(0.26458333)" />
      <path
         id="path32201"
         style="fill:#ffb380;fill-opacity:1;stroke:#7d781c;stroke-width:0.0761715;stroke-miterlimit:4;stroke-dasharray:none;stroke-opacity:1"
         d="m 564.84961,538.46289 c -0.11679,-0.0469 -5.62195,0.97413 -5.80469,1.07617 -0.0779,0.0435 0.12229,0.23585 0.71485,0.6875 0.45267,0.34507 1.2643,0.96458 1.80273,1.375 0.53839,0.4105 0.99683,0.74658 1.01758,0.74805 0.17423,0.0113 2.7406,-0.51064 2.82617,-0.57617 0.0964,-0.0737 0.0739,-0.29278 -0.16797,-1.67578 -0.19616,-1.1198 -0.31153,-1.60404 -0.38867,-1.63477 z m -8.71484,1.62305 c -0.40525,0 -1.99311,0.34219 -1.9668,0.42383 0.0113,0.0457 0.82726,0.68727 1.80469,1.42382 l 1.77734,1.33789 1.00195,-0.18554 c 0.55151,-0.10205 1.02956,-0.18517 1.06055,-0.18555 0.19654,-10e-4 -0.13698,-0.28868 -1.71289,-1.47851 -1.20824,-0.91201 -1.83169,-1.33594 -1.96484,-1.33594 z m -4.86524,0.91211 c -0.15949,0.008 -0.41357,0.0542 -0.88476,0.14453 -0.55371,0.10658 -1.0213,0.19336 -1.03907,0.19336 -0.14891,0 0.25814,0.3435 1.75196,1.48242 0.95191,0.72582 1.79957,1.32303 1.88476,1.32617 0.15988,0.004 1.69816,-0.27295 1.93555,-0.35156 0.0733,-0.0265 0.11491,-0.075 0.0937,-0.11133 -0.0393,-0.0639 -3.0458,-2.34692 -3.42969,-2.60352 -0.0892,-0.0593 -0.153,-0.0884 -0.3125,-0.0801 z m -4.66601,0.86328 -1.0293,0.18945 c -0.62967,0.11679 -1.0293,0.22727 -1.0293,0.2832 0,0.0503 0.79448,0.69144 1.76563,1.42383 0.97107,0.73236 1.78769,1.33008 1.81445,1.33008 0.10923,0 2.05028,-0.38501 2.07617,-0.41211 0.051,-0.0529 -0.29225,-0.33189 -1.95312,-1.58008 z m -4.94727,0.96094 c -0.26117,0 -1.91833,0.31939 -1.98633,0.38281 -0.048,0.0454 1.97114,1.61994 3.22852,2.51758 l 0.39648,0.2832 0.8125,-0.15039 c 0.99579,-0.1852 1.23362,-0.24573 1.25196,-0.31641 0.008,-0.0302 -0.78081,-0.65436 -1.75196,-1.38672 -1.1472,-0.86521 -1.83091,-1.33007 -1.95117,-1.33007 z m -4.83008,0.8789 v 0.002 c -0.062,0.0189 -2.05289,0.39588 -4.42383,0.84376 l -4.31054,0.81445 v 0.74609 c 0,0.45608 0.0577,1.01988 0.14843,1.44727 0.11717,0.54871 0.14926,0.99686 0.15039,2.08008 10e-4,1.03022 0.0265,1.39055 0.0957,1.41992 0.0514,0.0227 2.57672,0.0434 5.60937,0.0449 l 5.51368,0.004 0.81445,-0.87891 c 1.23398,-1.3316 1.67383,-1.82601 1.67383,-1.88281 0,-0.0265 -2.28854,-0.0527 -5.08399,-0.0527 -3.33827,0 -5.08203,-0.0263 -5.08203,-0.0781 0,-0.0439 0.0309,-0.0781 0.0664,-0.0781 0.034,0 1.84077,-0.33503 4.00976,-0.74609 2.16888,-0.41091 4.07849,-0.77404 4.24414,-0.80469 0.16555,-0.0302 0.28938,-0.0889 0.27539,-0.13086 -0.0484,-0.14702 -3.58963,-2.77838 -3.70117,-2.75 z m 29.3711,4.58399 -0.4043,0.0254 -0.4043,0.0273 -1.21094,1.32617 c -0.66565,0.72949 -1.19435,1.35432 -1.17382,1.38867 0.0227,0.034 0.73933,0.053 1.5957,0.0391 l 1.55664,-0.0215 0.0215,-1.39258 z m -4.76563,0.006 v 0.002 l -1.14844,0.002 -1.21875,1.3418 c -0.67018,0.73784 -1.20197,1.37017 -1.18164,1.4043 0.0189,0.034 0.52267,0.0605 1.11719,0.0605 h 1.08203 l 0.81836,-0.8789 c 1.17109,-1.25518 1.67969,-1.82363 1.67969,-1.88282 0,-0.0264 -0.5168,-0.0507 -1.14844,-0.0488 z m -15.36133,0.002 -1.14843,0.002 -1.21876,1.34375 c -0.66961,0.73882 -1.20144,1.36916 -1.18164,1.40235 0.0189,0.034 0.52589,0.0605 1.12305,0.0605 h 1.08594 l 0.81445,-0.8789 c 1.23394,-1.33161 1.67383,-1.82605 1.67383,-1.88282 0,-0.0264 -0.51684,-0.0491 -1.14844,-0.0469 z m 5.125,0 -1.15429,0.002 -1.2168,1.34375 c -0.66962,0.73882 -1.20145,1.36916 -1.18164,1.40235 0.0609,0.10204 2.07885,0.066 2.25195,-0.0391 0.16895,-0.10356 2.39082,-2.5129 2.43164,-2.63672 0.0189,-0.0472 -0.41233,-0.0742 -1.13086,-0.0723 z m 5.11524,0 -1.14844,0.002 -1.2168,1.34375 c -0.66962,0.73882 -1.20137,1.36916 -1.18164,1.40235 0.0189,0.034 0.52072,0.0605 1.11524,0.0605 h 1.08203 l 0.82031,-0.8789 c 1.17101,-1.25518 1.67773,-1.82363 1.67773,-1.88282 0,-0.0264 -0.51684,-0.0491 -1.14843,-0.0469 z m 9.88476,3.66992 -18.88281,0.0176 -18.88086,0.0195 -0.0234,1.77734 -0.0195,1.7793 18.88281,-0.0195 18.88282,-0.0176 0.0234,-1.7793 z m -28.18945,4.46875 c -7.42394,0.002 -9.58921,0.0269 -9.625,0.084 -0.0165,0.027 -0.0292,0.22505 -0.0391,0.49805 h 37.82226 l -0.006,-0.55664 -18.85742,-0.0195 c -3.75915,-0.003 -6.81832,-0.004 -9.29297,-0.004 z"
         transform="scale(0.26458333)" />
    </g>
  </g>
</svg>
