<?xml version="1.0" encoding="UTF-8" standalone="no"?>
<!-- Created with Inkscape (http://www.inkscape.org/) -->

<svg
   width="152mm"
   height="136mm"
   viewBox="0 0 152 136"
   version="1.1"
   id="svg5"
   inkscape:version="1.1.1 (3bf5ae0d25, 2021-09-20)"
   sodipodi:docname="logo.svg"
   xmlns:inkscape="http://www.inkscape.org/namespaces/inkscape"
   xmlns:sodipodi="http://sodipodi.sourceforge.net/DTD/sodipodi-0.dtd"
   xmlns:xlink="http://www.w3.org/1999/xlink"
   xmlns="http://www.w3.org/2000/svg"
   xmlns:svg="http://www.w3.org/2000/svg">
  <sodipodi:namedview
     id="namedview7"
     pagecolor="#ffffff"
     bordercolor="#666666"
     borderopacity="1.0"
     inkscape:pageshadow="2"
     inkscape:pageopacity="0.0"
     inkscape:pagecheckerboard="0"
     inkscape:document-units="mm"
     showgrid="false"
     inkscape:zoom="0.69664703"
     inkscape:cx="200.9626"
     inkscape:cy="446.42407"
     inkscape:window-width="1920"
     inkscape:window-height="986"
     inkscape:window-x="-11"
     inkscape:window-y="-11"
     inkscape:window-maximized="1"
     inkscape:current-layer="layer1"
     width="209mm" />
  <defs
     id="defs2">
    <linearGradient
       inkscape:collect="always"
       id="linearGradient9622">
      <stop
         style="stop-color:#ffb380;stop-opacity:1;"
         offset="0"
         id="stop9618" />
      <stop
         style="stop-color:#ffb380;stop-opacity:0;"
         offset="1"
         id="stop9620" />
    </linearGradient>
    <pattern
       id="EMFhbasepattern"
       patternUnits="userSpaceOnUse"
       width="6"
       height="6"
       x="0"
       y="0" />
    <pattern
       id="EMFhbasepattern-6"
       patternUnits="userSpaceOnUse"
       width="6"
       height="6"
       x="0"
       y="0" />
    <pattern
       id="EMFhbasepattern-67"
       patternUnits="userSpaceOnUse"
       width="6"
       height="6"
       x="0"
       y="0" />
    <linearGradient
       inkscape:collect="always"
       xlink:href="#linearGradient9622"
       id="linearGradient9624"
       x1="55.450127"
       y1="68.363174"
       x2="210.02686"
       y2="204.70972"
       gradientUnits="userSpaceOnUse"
       gradientTransform="translate(-33.421995,-50.892583)" />
  </defs>
  <g
     inkscape:label="Warstwa 1"
     inkscape:groupmode="layer"
     id="layer1">
    <path
       id="rect38"
       style="fill:#000000;fill-opacity:0.972549;stroke:#232323;stroke-width:0.266906"
       d="m 25.44728,0.76059461 c -13.8866,0 -25.06616929,11.17956839 -25.06616929,25.06616939 v 85.452666 c 0,13.8866 11.17956929,25.06617 25.06616929,25.06617 H 128.3702 c 13.8866,0 25.06617,-11.17957 25.06617,-25.06617 V 25.826764 c 0,-13.886601 -11.17957,-25.06616939 -25.06617,-25.06616939 z m 6.452836,4.92527949 h 90.016724 c 12.87771,0 23.2451,10.3673909 23.2451,23.2450929 v 79.244263 c 0,12.8777 -10.36739,23.24509 -23.2451,23.24509 H 31.900116 c -12.877705,0 -23.245093,-10.36739 -23.245093,-23.24509 V 28.930967 c 0,-12.877702 10.367388,-23.2450929 23.245093,-23.2450929 z" />
    <rect
       style="fill:url(#linearGradient9624);fill-opacity:1;stroke:#232323;stroke-width:0.227;stroke-miterlimit:4;stroke-dasharray:none"
       id="rect38-2"
       width="127.64859"
       height="117.76833"
       x="13.084444"
       y="9.6689291"
       ry="21.772295" />
    <text
       xml:space="preserve"
       style="font-size:22.5778px;line-height:1.25;font-family:Broadway;-inkscape-font-specification:Broadway;white-space:pre;inline-size:120.011;fill:#b862c3;fill-opacity:1;stroke:#000000;stroke-width:0.264583;stroke-opacity:1"
       x="39.498722"
       y="20.508951"
       id="text8663"
       transform="matrix(1.1547244,0,0,1.8916069,-27.430696,72.105377)"><tspan
         x="39.498722"
         y="20.508951"
         id="tspan853"><tspan
           style="font-family:'Rockwell Extra Bold';-inkscape-font-specification:'Rockwell Extra Bold, '"
           id="tspan851">FRALEY</tspan></tspan></text>
    <path
       style="fill:#000000;fill-opacity:0.972549;stroke:#7d781c;stroke-width:0.132394;stroke-opacity:1"
       d="m 44.375822,77.390967 c -0.03188,-0.0556 -0.02076,-5.74609 0.02482,-12.64545 l 0.08284,-12.54429 19.394863,-0.0342 19.39484,-0.0342 v 12.67962 12.67963 h -19.41967 c -10.680821,0 -19.445788,-0.0456 -19.477701,-0.10117 z m 40.386663,-0.0674 c -0.0341,-0.0928 -0.0468,-5.78319 -0.0284,-12.64545 l 0.0335,-12.47685 12.50757,-0.0344 12.507585,-0.0344 v 12.67985 12.67986 H 97.303595 c -9.86367,0 -12.49215,-0.0353 -12.5411,-0.16862 z M 44.505143,50.425277 c -0.123365,-0.12805 -0.103896,-5.607962 0.02062,-5.811559 0.08237,-0.134653 6.697871,-0.161988 32.647642,-0.134886 l 32.544335,0.03399 0.035,3.001189 0.035,3.001186 H 77.189775 c -17.928875,0 -32.63695,-0.0404 -32.684599,-0.0899 z m 0.07334,-10.532001 0.0349,-3.068897 32.587082,-0.03399 32.587105,-0.03399 -0.0349,3.068897 -0.0349,3.068896 -32.587105,0.03399 -32.587095,0.03399 z m 0.132386,-4.709405 c -0.121186,-0.05076 -0.16315,-0.673084 -0.165248,-2.451 -0.0022,-1.869344 -0.05824,-2.643152 -0.259897,-3.590097 -0.157075,-0.737545 -0.257054,-1.708273 -0.257017,-2.495371 l 7.4e-5,-1.28824 7.4395,-1.40579 c 4.091719,-0.773184 7.527211,-1.428098 7.634422,-1.455364 0.192492,-0.04896 6.306065,4.491967 6.389405,4.745808 0.02374,0.07214 -0.190854,0.174477 -0.476738,0.227427 -0.285882,0.05295 -3.582325,0.676788 -7.32542,1.386304 -3.743096,0.709515 -6.856993,1.290029 -6.919773,1.290029 -0.06281,0 -0.114146,0.0607 -0.114146,0.134885 0,0.08859 3.010479,0.134885 8.771542,0.134885 4.824351,0 8.771532,0.04004 8.771532,0.08897 0,0.098 -0.75844,0.951363 -2.88797,3.249432 l -1.406172,1.517456 -9.515829,-0.01065 c -5.233701,-0.0059 -9.588925,-0.04127 -9.678265,-0.07868 z m 24.221216,-0.01489 c -0.0342,-0.05733 0.88343,-1.147392 2.03902,-2.422368 l 2.10109,-2.318139 1.98171,-0.0056 c 1.08995,-0.003 1.98173,0.03448 1.98173,0.08341 0,0.098 -0.75844,0.951362 -2.88799,3.249433 l -1.40617,1.517452 h -1.87367 c -1.03052,0 -1.90158,-0.04691 -1.93573,-0.10423 z m 8.83652,0 c -0.0342,-0.05733 0.88343,-1.147392 2.03902,-2.422368 l 2.10109,-2.318139 1.99255,-0.0056 c 1.23984,-0.0034 1.97619,0.04414 1.94923,0.125972 -0.0704,0.213622 -3.90326,4.372087 -4.19466,4.55094 -0.29874,0.183362 -3.78233,0.245337 -3.88723,0.06915 z m 8.83652,0 c -0.0341,-0.05733 0.88342,-1.147392 2.03902,-2.422368 l 2.10108,-2.318139 1.98173,-0.0056 c 1.08995,-0.003 1.98171,0.03448 1.98171,0.08341 0,0.102148 -0.87412,1.083248 -2.8951,3.249433 l -1.41575,1.517455 h -1.86531 c -1.02593,0 -1.89325,-0.04691 -1.92738,-0.10423 z m 8.83485,-0.0028 c -0.0351,-0.05887 0.88249,-1.148862 2.03901,-2.422197 l 2.102754,-2.315147 1.981731,-0.0057 c 1.08994,-0.0031 1.98172,0.0343 1.98172,0.08324 0,0.102148 -0.87413,1.083248 -2.89512,3.249432 l -1.415755,1.517456 h -1.86531 c -1.02592,0 -1.894,-0.04816 -1.92903,-0.107044 z m 8.839215,0.0045 c -0.0354,-0.05935 0.87565,-1.13797 2.02444,-2.396914 l 2.08869,-2.288984 0.69823,-0.04055 0.69822,-0.04055 -0.0355,2.401033 -0.0355,2.401032 -2.68716,0.03643 c -1.47793,0.02003 -2.71608,-0.01213 -2.75142,-0.0715 z M 69.580235,25.982709 c -2.16994,-1.549145 -5.654715,-4.265796 -5.571701,-4.343571 0.117394,-0.109985 2.978801,-0.663766 3.429691,-0.663766 0.20754,0 1.38675,0.80495 3.36656,2.298077 1.67591,1.263942 3.03607,2.340449 3.02256,2.392238 -0.0316,0.121525 -0.44038,0.224593 -2.15885,0.544445 l -1.40373,0.26127 z m 5.88936,-3.39375 c -1.67593,-1.263942 -3.04712,-2.368958 -3.04712,-2.45559 0,-0.09636 0.6898,-0.285402 1.7765,-0.486873 l 1.7765,-0.329359 2.83667,2.131792 c 2.86629,2.154042 3.45996,2.633791 3.37208,2.725006 -0.0447,0.0464 -3.39493,0.713099 -3.58344,0.713099 -0.0462,0 -1.45528,-1.034133 -3.13119,-2.298075 z m 8.26031,-1.61752 c -2.57735,-1.96506 -3.27857,-2.558879 -3.02161,-2.558879 0.0307,0 0.83754,-0.150178 1.79307,-0.333729 1.62605,-0.312351 1.75843,-0.319625 2.06676,-0.113565 0.66254,0.442792 5.85246,4.385055 5.91819,4.495474 0.0373,0.06261 -0.0361,0.148034 -0.16294,0.189838 -0.40966,0.13496 -3.06334,0.618152 -3.33923,0.608017 -0.14702,-0.0054 -1.61143,-1.034621 -3.25424,-2.287156 z m 8.41434,-1.529507 c -1.68674,-1.271129 -3.08756,-2.375821 -3.11295,-2.454872 -0.0454,-0.141254 2.69302,-0.732659 3.39242,-0.732659 0.22982,0 1.30482,0.730863 3.38993,2.304709 2.72023,2.053231 3.29491,2.549347 2.95594,2.551875 -0.0536,4.04e-4 -0.87621,0.145033 -1.82801,0.321409 l -1.73054,0.320682 z M 101.7909,18.86921 c -0.92913,-0.708381 -2.328501,-1.775239 -3.109715,-2.370794 -1.02289,-0.779805 -1.36837,-1.111879 -1.23452,-1.186633 0.31531,-0.176098 9.815495,-1.939364 10.016855,-1.85916 0.13335,0.05311 0.33184,0.88874 0.67014,2.821193 0.41781,2.386738 0.45564,2.7649 0.28927,2.892378 -0.14756,0.113068 -4.57678,1.01715 -4.87772,0.995629 -0.0358,-0.0026 -0.82517,-0.584231 -1.75431,-1.292613 z"
       id="path22125" />
  </g>
</svg>
