<?xml version="1.0" encoding="UTF-8" standalone="no"?>
<!-- Created with Inkscape (http://www.inkscape.org/) -->

<svg
   width="139mm"
   height="111mm"
   viewBox="0 0 139 111"
   version="1.1"
   id="svg5"
   inkscape:version="1.1.1 (3bf5ae0d25, 2021-09-20)"
   sodipodi:docname="nachosy.svg"
   xmlns:inkscape="http://www.inkscape.org/namespaces/inkscape"
   xmlns:sodipodi="http://sodipodi.sourceforge.net/DTD/sodipodi-0.dtd"
   xmlns="http://www.w3.org/2000/svg"
   xmlns:svg="http://www.w3.org/2000/svg">
  <sodipodi:namedview
     id="namedview7"
     pagecolor="#ffffff"
     bordercolor="#666666"
     borderopacity="1.0"
     inkscape:pageshadow="2"
     inkscape:pageopacity="0.0"
     inkscape:pagecheckerboard="0"
     inkscape:document-units="mm"
     showgrid="false"
     inkscape:zoom="0.69664703"
     inkscape:cx="475.13301"
     inkscape:cy="345.94277"
     inkscape:window-width="1920"
     inkscape:window-height="986"
     inkscape:window-x="-11"
     inkscape:window-y="-11"
     inkscape:window-maximized="1"
     inkscape:current-layer="layer1"
     height="66mm"
     width="139mm" />
  <defs
     id="defs2" />
  <g
     inkscape:label="Warstwa 1"
     inkscape:groupmode="layer"
     id="layer1">
    <g
       id="g713"
       transform="matrix(7.0845886,0,0,7.0845886,-624.26794,-857.86309)">
      <path
         style="fill:#b9b9b9;fill-opacity:1;stroke-width:0.0846667"
         d="m 93.699029,136.49118 c -2.558799,-0.67088 -4.464919,-2.91431 -4.743892,-5.58337 l -0.05379,-0.5146 h -0.326605 -0.326605 v -0.84666 -0.84667 l 0.529166,-0.002 0.529167,-0.002 1.615544,-1.46483 c 0.88855,-0.80566 1.682241,-1.49043 1.763758,-1.52172 0.469403,-0.18012 0.931251,0.18836 1.025726,0.81837 0.03256,0.21712 0.08976,0.39476 0.127116,0.39476 0.03735,0 0.378556,-0.14 0.758226,-0.3111 l 0.69031,-0.3111 -0.05856,-0.62489 c -0.05414,-0.57777 -0.04389,-0.6405 0.135919,-0.8319 0.126188,-0.13432 0.287819,-0.20701 0.46031,-0.20701 0.224107,0 2.594926,0.82527 4.173733,1.45285 0.479218,0.19049 0.609758,0.34422 0.612888,0.72175 0.002,0.21767 0.0221,0.20174 0.23284,-0.18318 0.37586,-0.6864 0.93321,-0.73977 1.35506,-0.12976 0.12675,0.18329 0.24951,0.33337 0.27279,0.33351 0.0233,1.5e-4 0.53763,-0.43989 1.143,-0.97787 0.60537,-0.53797 1.18822,-1.01265 1.29522,-1.05483 0.26648,-0.10505 0.74416,0.10249 0.82621,0.35897 0.0349,0.10902 0.21953,0.94118 0.41033,1.84923 l 0.34691,1.651 0.52917,0.0252 0.52916,0.0252 v 0.84263 0.84262 h -0.3266 -0.32661 l -0.0538,0.5146 c -0.28078,2.68626 -2.19699,4.92743 -4.77723,5.58734 -0.5831,0.14913 -0.94991,0.16299 -4.202486,0.15873 -3.197591,-0.004 -3.625537,-0.0209 -4.166402,-0.1627 z m 7.908851,-0.55396 c 2.38709,-0.47063 4.34014,-2.59838 4.56041,-4.96833 l 0.0535,-0.57568 h -8.321649 -8.32165 l 0.0535,0.57568 c 0.172332,1.85422 1.384765,3.58495 3.114424,4.4458 1.204841,0.59965 1.494706,0.63631 5.093793,0.64429 2.466102,0.005 3.251032,-0.0199 3.767672,-0.12176 z m -4.134984,-1.00591 c -1.474694,-0.385 -1.821659,-2.30108 -0.570412,-3.15005 0.497894,-0.33782 0.932798,-0.40732 1.498144,-0.23943 1.14603,0.34033 1.608312,1.60546 0.96617,2.64411 -0.389399,0.62984 -1.165881,0.93543 -1.893902,0.74537 z m 0.893777,-0.68067 c 0.893269,-0.37323 0.820557,-1.75284 -0.109458,-2.07682 -0.314068,-0.1094 -0.400079,-0.1094 -0.714147,0 -0.677252,0.23593 -0.954573,1.04731 -0.572276,1.67435 0.286126,0.4693 0.848123,0.63134 1.395881,0.40247 z m 8.508137,-4.70409 c 0,-0.16827 -0.0564,-0.16934 -8.974669,-0.16934 -8.918222,0 -8.974667,0.001 -8.974667,0.16934 0,0.16826 0.05645,0.16933 8.974667,0.16933 8.918219,0 8.974669,-0.001 8.974669,-0.16933 z m -13.405058,-1.03717 c -0.02534,-0.10478 -0.130982,-0.6096 -0.23475,-1.12183 -0.103768,-0.51224 -0.218501,-0.96552 -0.254961,-1.0073 -0.03646,-0.0418 -0.567843,0.37732 -1.180852,0.93133 -0.613009,0.55402 -1.215096,1.09165 -1.337971,1.19475 l -0.223411,0.18746 1.639012,0.003 1.639012,0.003 z m 1.156885,-0.32208 c -0.04657,-0.44554 -0.02915,-0.5456 0.133181,-0.76517 l 0.186756,-0.2526 -0.28005,0.11964 c -0.761742,0.32543 -0.731033,0.29335 -0.649431,0.67848 0.160327,0.75669 0.146562,0.73223 0.41203,0.73223 h 0.251088 z m 1.664838,0.0487 c -0.488951,-0.25286 -0.917576,-0.46148 -0.952501,-0.46359 -0.03492,-0.002 -0.0635,0.20571 -0.0635,0.46182 v 0.46567 l 0.952501,-0.002 0.9525,-0.002 -0.889,-0.45975 z m 5.234175,0.0309 c 0.15465,-0.23645 0.26702,-0.44407 0.24972,-0.46137 -0.055,-0.055 -4.295533,-0.40692 -4.342098,-0.36036 -0.02452,0.0245 0.08001,0.31534 0.232306,0.64625 l 0.276897,0.60166 1.651,0.002 1.650995,0.002 z m 1.14697,0.0926 c -0.12389,-0.18721 -0.23212,-0.33009 -0.2405,-0.3175 -0.008,0.0126 -0.10116,0.16576 -0.20618,0.34039 l -0.19094,0.3175 h 0.43144 0.43144 z m 2.82723,-1.28944 c -0.18612,-0.89641 -0.35083,-1.6436 -0.36603,-1.66042 -0.0437,-0.0484 -2.23835,1.9434 -2.23835,2.0314 0,0.0434 0.1749,0.34445 0.38866,0.66891 l 0.38865,0.58994 h 1.08274 1.08273 z m -8.753255,0.45527 c -0.03809,-0.19044 0.0053,-0.30357 0.199758,-0.52125 l 0.248404,-0.27801 1.330842,0.11036 c 0.901516,0.0748 1.358601,0.0826 1.416893,0.0243 0.05829,-0.0583 -0.346023,-0.24455 -1.253316,-0.57736 -0.736652,-0.27021 -1.663218,-0.61366 -2.059035,-0.76322 -0.395816,-0.14955 -0.742678,-0.25849 -0.770803,-0.24207 -0.0497,0.029 0.294526,2.13119 0.358034,2.18647 0.03419,0.0298 0.527234,0.29499 0.558819,0.30061 0.01048,0.002 -0.0028,-0.10607 -0.0296,-0.23984 z m -1.308843,-0.48696 c 0.109808,-0.099 -0.06744,-0.084 -0.247072,0.021 l -0.211539,0.1236 0.211667,-0.0564 c 0.116416,-0.031 0.227541,-0.0707 0.246944,-0.0882 z m 6.272388,-0.11648 c -0.078,-0.14583 -0.254,-0.2386 -0.254,-0.13392 0,0.0195 -0.0231,0.0957 -0.0514,0.16933 -0.0389,0.1013 0.003,0.13392 0.17231,0.13392 0.19747,0 0.21308,-0.0199 0.13308,-0.16933 z"
         id="path727" />
      <path
         style="fill:#a3a3a3;fill-opacity:1;stroke-width:0.0846667"
         d="m 93.75322,136.48344 c -2.660148,-0.6964 -4.460883,-2.8029 -4.790037,-5.60339 l -0.05722,-0.48684 h -0.328911 -0.328911 v -0.84666 -0.84667 l 0.529166,-0.001 0.529167,-0.001 1.637351,-1.47305 c 0.900543,-0.81018 1.726573,-1.49544 1.835624,-1.52281 0.461153,-0.11575 0.826297,0.22255 0.928998,0.86068 0.03185,0.1979 0.09657,0.35983 0.143827,0.35983 0.04725,0 0.40273,-0.14846 0.789948,-0.32992 l 0.704032,-0.32992 -0.0757,-0.32625 c -0.183376,-0.79027 0.02862,-1.30022 0.540235,-1.29956 0.365285,4.6e-4 4.554141,1.56025 4.690351,1.74652 0.0596,0.0815 0.10926,0.2647 0.11039,0.40715 0.002,0.25447 0.006,0.25207 0.22279,-0.13752 0.38394,-0.68968 0.95443,-0.7539 1.35258,-0.15226 0.12269,0.1854 0.2472,0.33709 0.27667,0.33709 0.0295,0 0.56734,-0.45638 1.19525,-1.01418 1.0023,-0.89038 1.17861,-1.0144 1.4444,-1.016 0.52726,-0.003 0.61319,0.17626 1.02294,2.13602 l 0.36731,1.75683 h 0.52934 0.52933 v 0.84667 0.84666 h -0.32891 -0.32891 l -0.0572,0.48684 c -0.18496,1.57363 -0.81049,2.89768 -1.86913,3.95632 -0.82332,0.82332 -1.75591,1.34454 -2.95387,1.6509 -0.62061,0.15872 -0.9248,0.17093 -4.148666,0.16661 -3.172952,-0.004 -3.534657,-0.0192 -4.112211,-0.17044 z m 8.47308,-0.68895 c 0.93431,-0.3293 1.64739,-0.77728 2.32018,-1.45762 0.95353,-0.96424 1.52464,-2.14352 1.6265,-3.35857 l 0.0491,-0.58509 h -8.321889 -8.321893 l 0.04905,0.58509 c 0.101865,1.21505 0.672974,2.39433 1.626508,3.35857 0.854492,0.86409 1.939932,1.44835 3.049643,1.64154 0.23193,0.0404 1.96474,0.0665 3.85069,0.0581 l 3.429001,-0.0153 z m -5.045825,-0.94397 c -0.597438,-0.27538 -1.052957,-0.97625 -1.056475,-1.62552 -0.0027,-0.49859 0.365478,-1.18366 0.785531,-1.46164 0.297214,-0.19669 0.430058,-0.22715 0.99061,-0.22715 0.560552,0 0.693397,0.0305 0.990611,0.22715 0.420107,0.27801 0.787389,0.96193 0.787389,1.46619 0,0.49606 -0.353399,1.15617 -0.775619,1.44877 -0.2805,0.19438 -0.453711,0.24493 -0.907364,0.26476 -0.348079,0.0152 -0.656997,-0.0199 -0.814683,-0.0926 z m 1.319746,-0.67102 c 0.360816,-0.24315 0.497753,-0.51169 0.499339,-0.97922 0.0037,-1.08393 -1.339448,-1.50769 -2.023276,-0.63834 -0.203775,0.25906 -0.238713,0.879 -0.0685,1.2154 0.281619,0.55655 1.068463,0.75527 1.592432,0.40216 z m 8.374589,-4.59062 v -0.21167 h -8.974669 -8.974667 v 0.21167 0.21167 h 8.974667 8.974669 z m -13.423243,-1.17461 c -0.218389,-1.16411 -0.442725,-2.04272 -0.521569,-2.04272 -0.05145,0 -0.559745,0.4191 -1.129541,0.93133 -0.569795,0.51223 -1.154489,1.03456 -1.29932,1.16073 l -0.26333,0.22939 1.63367,0.003 1.63367,0.003 z m 1.194596,-0.16385 c -0.07651,-0.61236 0.04134,-0.8842 0.459469,-1.05981 0.1856,-0.078 0.337841,-0.16832 0.338315,-0.20082 7.87e-4,-0.0538 -1.386783,0.52951 -1.479025,0.62175 -0.02174,0.0217 -0.0062,0.17074 0.03463,0.3311 0.04078,0.16037 0.09763,0.39635 0.126318,0.52441 0.04316,0.19263 0.09742,0.23283 0.314306,0.23283 h 0.262143 z m 1.645312,-0.0162 c -0.488951,-0.25134 -0.917576,-0.45894 -0.952501,-0.46132 -0.03492,-0.002 -0.0635,0.20521 -0.0635,0.46132 v 0.46567 l 0.952501,-0.004 0.9525,-0.004 z m 5.240145,0.038 c 0.15794,-0.2328 0.26792,-0.44251 0.24442,-0.46601 -0.0634,-0.0634 -4.284,-0.41979 -4.33754,-0.36625 -0.02522,0.0252 0.07786,0.31882 0.229059,0.65244 l 0.274916,0.60658 1.651,-0.002 1.650995,-0.002 0.28715,-0.42327 z m 1.14374,0.0914 -0.22253,-0.33626 -0.20201,0.29768 c -0.11111,0.16373 -0.20201,0.31504 -0.20201,0.33626 0,0.0212 0.19104,0.0386 0.42453,0.0386 h 0.42454 z m 3.15116,0.18808 c -0.024,-0.0815 -0.18231,-0.81491 -0.35172,-1.62983 -0.1694,-0.81492 -0.32241,-1.4962 -0.34002,-1.51396 -0.0176,-0.0178 -0.53817,0.41887 -1.15682,0.97028 -0.61865,0.55142 -1.1376,1.01053 -1.15321,1.02024 -0.0156,0.01 0.16652,0.30652 0.40475,0.65955 l 0.43314,0.64189 h 1.10379 c 1.01143,0 1.10013,-0.0124 1.06009,-0.14817 z m -9.06583,-0.94131 c -0.07231,-0.22784 0.0821,-0.57285 0.328686,-0.73442 0.192213,-0.12595 0.330859,-0.12924 1.433623,-0.0341 1.187765,0.10252 1.692691,0.0713 1.409142,-0.087 -0.187995,-0.10498 -4.085292,-1.53339 -4.111143,-1.50679 -0.05832,0.06 0.369652,2.21872 0.444844,2.24378 0.04746,0.0158 0.158364,0.0833 0.246459,0.15002 0.220632,0.16702 0.307888,0.15595 0.248389,-0.0315 z m 4.95333,-0.68127 c -0.081,-0.15139 -0.25788,-0.24821 -0.25788,-0.14117 0,0.0195 -0.022,0.0926 -0.0488,0.16259 -0.0333,0.0868 0.0138,0.13713 0.14816,0.15846 0.25873,0.0411 0.26996,0.0283 0.15852,-0.17988 z"
         id="path725" />
      <path
         style="fill:#8c8c8c;fill-opacity:1;stroke-width:0.0846667"
         d="m 93.751474,136.48593 c -2.587166,-0.6653 -4.474008,-2.87673 -4.783056,-5.60588 l -0.05513,-0.48684 h -0.33564 -0.33564 l 0.02423,-0.8255 0.02423,-0.8255 0.338667,-0.0143 c 0.186266,-0.008 0.415062,-0.0174 0.508434,-0.0212 0.09438,-0.004 0.883964,-0.64965 1.778,-1.4543 0.884528,-0.79608 1.696602,-1.48194 1.804608,-1.52413 0.46484,-0.18159 0.887734,0.16706 0.984384,0.81157 0.0315,0.21009 0.09607,0.38199 0.143473,0.38199 0.219187,0 1.510922,-0.64295 1.475771,-0.73455 -0.02125,-0.0554 -0.06447,-0.32899 -0.09604,-0.60803 -0.05322,-0.47041 -0.04152,-0.52323 0.160634,-0.72539 0.119925,-0.11992 0.314896,-0.21803 0.433296,-0.21803 0.322102,0 4.377865,1.51053 4.592685,1.7105 0.10225,0.0952 0.1995,0.29219 0.21611,0.43778 l 0.0302,0.26472 0.14159,-0.30968 c 0.14702,-0.32155 0.50991,-0.66399 0.70363,-0.66399 0.23817,0 0.55468,0.21074 0.72122,0.48021 0.0958,0.15499 0.20484,0.28179 0.24235,0.28179 0.0375,0 0.57732,-0.45634 1.19959,-1.01408 0.99525,-0.89205 1.16784,-1.01432 1.43415,-1.016 0.5283,-0.003 0.61349,0.17543 1.01613,2.13225 l 0.36074,1.75316 0.51486,0.0248 0.51486,0.0248 0.0242,0.8255 0.0242,0.8255 h -0.33564 -0.33564 l -0.0551,0.48684 c -0.31101,2.74649 -2.2074,4.95485 -4.81776,5.61033 -0.61581,0.15463 -0.94973,0.16779 -4.14867,0.1635 -3.150746,-0.004 -3.538864,-0.0201 -4.113957,-0.16795 z m 8.561306,-0.72361 c 1.83713,-0.65772 3.20424,-2.10585 3.70958,-3.92946 0.0963,-0.34755 0.17512,-0.81365 0.17512,-1.03578 v -0.40387 h -8.297339 -8.297334 v 0.40387 c 0,0.55452 0.290126,1.55333 0.650282,2.23871 0.565895,1.0769 1.769714,2.15706 2.907425,2.60876 0.984685,0.39095 1.272959,0.414 4.951294,0.39599 l 3.471332,-0.017 z m -5.132305,-0.91009 c -0.54088,-0.24566 -1.05739,-1.03831 -1.05739,-1.62268 0,-0.59712 0.527354,-1.392 1.075837,-1.62161 0.149846,-0.0627 0.465395,-0.11406 0.701219,-0.11406 0.564123,0 0.905462,0.15253 1.286611,0.57492 0.730942,0.81005 0.610765,1.85953 -0.29655,2.58972 -0.276135,0.22223 -0.403406,0.26292 -0.889,0.28422 -0.349061,0.0153 -0.664283,-0.0194 -0.820727,-0.0905 z m 1.286566,-0.64529 c 0.380213,-0.23183 0.561989,-0.54797 0.561989,-0.97739 0,-0.42943 -0.181776,-0.74557 -0.561989,-0.9774 -0.740125,-0.45128 -1.695788,0.0995 -1.695788,0.9774 0,0.62393 0.512314,1.14236 1.128888,1.14236 0.162984,0 0.418089,-0.0742 0.5669,-0.16497 z m 8.477159,-4.63923 0.0271,-0.1905 h -9.06522 c -8.734074,0 -9.065223,0.006 -9.065223,0.15523 0,0.0854 0.02557,0.18079 0.05683,0.21204 0.03126,0.0313 4.09843,0.0471 9.038167,0.0353 l 8.981336,-0.0216 z m -13.449841,-0.9772 c -0.0094,-0.30962 -0.475919,-2.20931 -0.548455,-2.23349 -0.07778,-0.0259 -2.5944,2.18798 -2.644701,2.32658 -0.0117,0.0322 0.702676,0.0475 1.5875,0.0339 1.189409,-0.0183 1.607959,-0.0514 1.605656,-0.127 z m 3.636727,0.0768 c -0.05623,-0.052 -1.763191,-0.89872 -1.81174,-0.89872 -0.02413,0 -0.04387,0.20826 -0.04387,0.4628 v 0.4628 l 0.910167,0.024 c 0.886983,0.0234 1.018213,0.0164 0.945445,-0.0509 z m 4.405194,-0.39637 c 0.15715,-0.23029 0.26488,-0.43956 0.2394,-0.46504 -0.0734,-0.0734 -4.307119,-0.43113 -4.346588,-0.36727 -0.01951,0.0316 0.08379,0.32744 0.229567,0.65748 l 0.265048,0.60008 1.533384,0.023 c 0.843359,0.0127 1.591899,0.0112 1.663429,-0.003 0.0715,-0.0145 0.25861,-0.21472 0.41576,-0.44501 z m 1.35919,0.42747 c 0,-0.0241 -0.0989,-0.18945 -0.21987,-0.36742 l -0.21987,-0.32357 -0.20346,0.29943 c -0.1119,0.16468 -0.20346,0.33002 -0.20346,0.36741 0,0.0374 0.1905,0.068 0.42333,0.068 0.23283,0 0.42333,-0.0197 0.42333,-0.0438 z m -8.237892,-0.47248 c -0.02691,-0.26069 -0.01348,-0.56721 0.02984,-0.68115 0.07614,-0.20025 0.561924,-0.47967 0.693047,-0.39863 0.03539,0.0219 0.06434,-0.0201 0.06434,-0.0934 0,-0.1182 -0.03086,-0.11977 -0.275167,-0.014 -1.125232,0.4873 -1.258774,0.56524 -1.216315,0.70989 0.02372,0.0808 0.0692,0.29929 0.101088,0.48555 0.07722,0.45112 0.08944,0.46567 0.391236,0.46567 h 0.260848 z m 11.160032,0.28349 c -0.0244,-0.10478 -0.17905,-0.83651 -0.34359,-1.62608 -0.16453,-0.78957 -0.31564,-1.45207 -0.33579,-1.47222 -0.0339,-0.0339 -0.97353,0.77313 -1.92543,1.65372 l -0.40235,0.3722 0.42609,0.63144 0.4261,0.63144 h 1.0997 c 1.09714,0 1.09959,-4.4e-4 1.05527,-0.1905 z m -9.043602,-1.04801 c -0.0067,-0.23662 0.04491,-0.35329 0.224768,-0.508 0.263814,-0.22692 0.286833,-0.22803 1.773496,-0.0858 0.843545,0.0807 1.102514,0.0811 1.168225,0.002 0.09293,-0.11198 0.156933,-0.0848 -2.495385,-1.06033 -0.878915,-0.32327 -1.611233,-0.57456 -1.627371,-0.55843 -0.01614,0.0161 0.05724,0.52084 0.163071,1.12154 0.18135,1.0294 0.206767,1.10092 0.442038,1.2438 0.340045,0.20651 0.361132,0.19722 0.351158,-0.15469 z m 5.023322,-0.45011 c -0.12548,-0.23446 -0.26357,-0.29918 -0.34936,-0.16373 -0.13566,0.21419 -0.11399,0.23271 0.37098,0.31682 0.0366,0.006 0.0268,-0.0626 -0.0216,-0.15309 z"
         id="path723" />
      <path
         style="fill:#767676;fill-opacity:1;stroke-width:0.0846667"
         d="m 93.963141,136.53675 c -1.26395,-0.28181 -2.346897,-0.9113 -3.287021,-1.91066 -0.981732,-1.04358 -1.497488,-2.19972 -1.708893,-3.83071 l -0.05213,-0.40217 H 88.58162 88.248141 v -0.80433 -0.80433 l 0.486833,-0.001 0.486833,-0.001 1.692385,-1.51691 c 0.930812,-0.83429 1.779218,-1.5335 1.885346,-1.55379 0.106129,-0.0203 0.316106,0.0246 0.466616,0.0998 0.231644,0.11573 0.291398,0.21145 0.389241,0.62355 0.06357,0.26775 0.151417,0.48683 0.195207,0.48683 0.04379,0 0.40363,-0.14072 0.799644,-0.31272 0.618924,-0.26881 0.714035,-0.33717 0.677361,-0.48683 -0.02347,-0.0958 -0.06838,-0.37134 -0.09981,-0.61238 -0.05179,-0.39716 -0.03671,-0.45871 0.160751,-0.65617 0.119845,-0.11985 0.31314,-0.2179 0.429546,-0.2179 0.315414,0 4.380796,1.51503 4.596296,1.71288 0.10225,0.0939 0.1975,0.28981 0.21167,0.4354 l 0.0258,0.26472 0.21166,-0.37781 c 0.39709,-0.70877 0.96602,-0.75904 1.36083,-0.12023 0.0973,0.15751 0.21098,0.28637 0.25253,0.28637 0.0415,0 0.56232,-0.43847 1.15726,-0.97439 0.59495,-0.53592 1.16744,-0.99725 1.27222,-1.02518 0.28135,-0.075 0.59525,0.0294 0.73365,0.24408 0.0671,0.10404 0.28116,0.95116 0.47574,1.88249 0.19458,0.93134 0.37103,1.72191 0.39211,1.75684 0.0211,0.0349 0.26468,0.0635 0.54133,0.0635 h 0.503 v 0.80433 0.80433 h -0.33348 -0.33348 l -0.0521,0.40217 c -0.12703,0.98 -0.33497,1.69431 -0.70564,2.42394 -0.3182,0.62635 -0.53657,0.91618 -1.15596,1.53425 -0.86549,0.86364 -1.41233,1.21623 -2.4772,1.59723 l -0.74179,0.26541 -3.640659,0.0169 c -2.781874,0.0129 -3.760498,-0.01 -4.148667,-0.0964 z m 7.881619,-0.63959 c 1.09246,-0.27523 1.83483,-0.69904 2.66867,-1.52352 0.59117,-0.58452 0.79513,-0.85679 1.07907,-1.44043 0.34977,-0.71896 0.54692,-1.37951 0.63806,-2.13783 l 0.0483,-0.40217 H 97.900141 89.52138 l 0.04834,0.40217 c 0.09115,0.75832 0.288298,1.41887 0.638069,2.13783 0.466715,0.95934 1.499452,2.00705 2.443021,2.47842 1.224827,0.61189 1.485258,0.64433 5.214623,0.64959 3.034407,0.004 3.365307,-0.009 3.979327,-0.16406 z m -4.665012,-1.08985 c -0.592545,-0.26919 -1.056663,-0.96219 -1.056663,-1.57776 0,-0.91189 0.843423,-1.73567 1.777056,-1.73567 0.933633,0 1.777056,0.82378 1.777056,1.73567 0,0.9053 -0.848175,1.73194 -1.777056,1.73194 -0.20955,0 -0.533727,-0.0694 -0.720393,-0.15418 z m 1.487702,-0.73618 c 0.509007,-0.48766 0.503614,-1.20067 -0.01283,-1.69545 -0.224748,-0.21532 -0.320975,-0.2468 -0.754484,-0.2468 -0.433508,0 -0.529735,0.0315 -0.754483,0.2468 -0.509251,0.48789 -0.522288,1.2141 -0.03003,1.67284 0.311925,0.29068 0.416347,0.32473 0.894309,0.2916 0.307433,-0.0213 0.467216,-0.0867 0.657518,-0.26899 z m 8.27675,-4.50342 0.0271,-0.1905 h -9.06522 c -8.734074,0 -9.065223,0.006 -9.065223,0.15523 0,0.0854 0.02557,0.18079 0.05683,0.21204 0.03126,0.0313 4.09843,0.0471 9.038167,0.0353 l 8.981336,-0.0216 z m -13.446726,-0.92476 c 0,-0.3466 -0.470996,-2.31374 -0.553983,-2.31374 -0.07818,0 -1.91248,1.60211 -2.576759,2.25058 l -0.209743,0.20476 h 1.670243 c 1.50474,0 1.670242,-0.014 1.670242,-0.1416 z m 1.155168,-0.3664 c 0.0067,-0.25612 0.01622,-0.53235 0.02117,-0.61384 0.01332,-0.21924 0.318005,-0.48683 0.554335,-0.48683 0.212032,0 0.358141,-0.12423 0.235358,-0.20011 -0.06635,-0.041 -1.343647,0.49514 -1.485358,0.62348 -0.03831,0.0347 -0.03261,0.21081 0.01268,0.39136 0.04529,0.18055 0.10654,0.43545 0.136117,0.56644 0.04494,0.19903 0.09156,0.23382 0.283657,0.21167 0.217242,-0.025 0.230549,-0.0521 0.242048,-0.49217 z m 2.570166,0.46637 c 0,-0.0419 -1.821823,-0.97437 -1.90359,-0.97437 -0.06491,0 -0.05308,0.89377 0.0127,0.95955 0.06429,0.0643 1.890889,0.0786 1.890889,0.0148 z m 4.292102,-0.43204 c 0.16806,-0.25312 0.28281,-0.48298 0.25499,-0.5108 -0.0868,-0.0867 -4.246553,-0.43738 -4.326084,-0.36464 -0.04279,0.0391 0.0566,0.3467 0.230093,0.71202 l 0.30542,0.64313 1.615003,-0.01 1.614998,-0.01 z m 1.38056,0.40865 c 0,-0.0357 -0.0989,-0.21061 -0.21987,-0.38858 l -0.21987,-0.32357 -0.20346,0.29943 c -0.1119,0.16468 -0.20346,0.33954 -0.20346,0.38858 0,0.0505 0.18334,0.0892 0.42333,0.0892 0.23283,0 0.42333,-0.0293 0.42333,-0.065 z m 2.96334,-0.01 c 0,-0.14597 -0.68032,-3.25841 -0.72115,-3.29924 -0.0228,-0.0228 -0.12709,0.0364 -0.23169,0.13173 -0.10459,0.0953 -0.60926,0.54435 -1.1215,0.99793 -0.51223,0.45358 -0.93133,0.85087 -0.93133,0.88287 0,0.032 0.1905,0.35093 0.42333,0.70875 l 0.42334,0.65057 1.0795,0.001 c 0.59372,6e-4 1.0795,-0.0326 1.0795,-0.0737 z m -9.043037,-1.29257 c 0.01911,-0.25787 0.08236,-0.39322 0.237702,-0.50865 0.201204,-0.1495 0.274439,-0.1515 1.481666,-0.0405 1.057308,0.0972 1.290181,0.0979 1.390497,0.004 0.103062,-0.0964 0.09082,-0.12386 -0.08467,-0.18996 -1.686715,-0.63528 -3.994988,-1.45975 -4.019174,-1.43556 -0.01721,0.0172 0.05009,0.52014 0.149557,1.11763 0.173347,1.04131 0.191628,1.09292 0.440982,1.24498 0.143076,0.0872 0.286523,0.15878 0.31877,0.15895 0.03225,1.8e-4 0.07035,-0.1578 0.08467,-0.35105 z m 4.920547,-0.49985 -0.15272,-0.25854 -0.15721,0.19414 c -0.15502,0.19144 -0.15443,0.19493 0.0421,0.25011 0.39632,0.11127 0.42962,0.0882 0.26783,-0.18571 z"
         id="path721" />
      <path
         style="fill:#606060;fill-opacity:1;stroke-width:0.0846667"
         d="m 94.005474,136.52593 c -2.707441,-0.5862 -4.870365,-3.02252 -5.005275,-5.63796 l -0.02334,-0.45242 -0.343194,-0.0423 -0.343194,-0.0423 -0.02434,-0.78317 -0.02434,-0.78316 h 0.502492 0.502491 l 1.680853,-1.52198 c 1.427259,-1.29236 1.721323,-1.52229 1.949094,-1.524 0.522586,-0.004 0.713069,0.20532 0.830587,0.91247 0.03329,0.20029 0.0885,0.35269 0.122707,0.33867 0.0342,-0.014 0.39483,-0.17545 0.801392,-0.35872 0.635342,-0.28641 0.733185,-0.35778 0.696372,-0.508 -0.02356,-0.0961 -0.06855,-0.372 -0.09998,-0.61304 -0.05179,-0.39716 -0.03671,-0.45871 0.160751,-0.65617 0.119845,-0.11985 0.305356,-0.21803 0.412248,-0.21819 0.284904,-4.1e-4 4.400282,1.52078 4.584462,1.69459 0.0862,0.0814 0.18299,0.27617 0.21505,0.4329 l 0.0583,0.28494 0.20968,-0.38009 c 0.26455,-0.47959 0.58251,-0.65056 0.93688,-0.50378 0.13841,0.0573 0.30562,0.20366 0.37157,0.32516 0.27157,0.50031 0.22945,0.51143 1.11431,-0.29433 1.48033,-1.34801 1.53471,-1.38977 1.80989,-1.38977 0.49836,0 0.60153,0.2182 0.99954,2.11394 0.2001,0.95311 0.38225,1.76274 0.40476,1.79916 0.0225,0.0364 0.26872,0.0662 0.54712,0.0662 h 0.50618 l -0.0243,0.78316 -0.0243,0.78317 -0.3432,0.0423 -0.34319,0.0423 -0.0233,0.45242 c -0.0723,1.40186 -0.85345,2.99801 -1.98207,4.05008 -0.88268,0.82281 -1.88563,1.34386 -3.06554,1.59261 -0.83257,0.17552 -6.93167,0.1718 -7.747001,-0.005 z m 7.907066,-0.62701 c 0.89599,-0.22916 1.72305,-0.68481 2.42845,-1.3379 1.12312,-1.03984 1.69896,-2.16847 1.89966,-3.72331 l 0.0574,-0.4445 h -8.397889 -8.39789 l 0.05738,0.4445 c 0.200707,1.55484 0.776545,2.68347 1.899663,3.72331 0.693184,0.64178 1.528124,1.1068 2.395096,1.33395 0.555804,0.14562 0.952181,0.16205 4.011042,0.16625 3.110258,0.004 3.448918,-0.009 4.047108,-0.1623 z m -4.738055,-1.09397 c -0.730616,-0.33183 -1.158319,-1.20656 -0.965119,-1.97382 0.348819,-1.38529 2.121933,-1.79586 3.024881,-0.70043 0.926963,1.12457 0.122844,2.83079 -1.334106,2.83079 -0.20955,0 -0.536095,-0.0704 -0.725656,-0.15654 z m 1.437208,-0.69064 c 0.571572,-0.50184 0.590767,-1.21377 0.04678,-1.73495 -0.228984,-0.21938 -0.32315,-0.25048 -0.758331,-0.25048 -0.433508,0 -0.529735,0.0315 -0.754483,0.2468 -0.546272,0.52336 -0.530347,1.23529 0.03881,1.73501 0.247104,0.21696 0.3698,0.26186 0.715674,0.26186 0.344613,0 0.468753,-0.0451 0.711552,-0.25824 z m 8.332237,-4.52889 -0.0268,-0.21512 -8.932332,0.003 c -4.912784,0.002 -8.979959,0.003 -9.038167,0.003 -0.05821,2.5e-4 -0.105834,0.0957 -0.105834,0.21213 v 0.21167 h 9.064958 9.064955 z m -13.446456,-0.96946 c 0,-0.2483 -0.430873,-2.23351 -0.501194,-2.30921 -0.05181,-0.0558 -2.800806,2.33992 -2.800806,2.44084 0,0.0203 0.74295,0.037 1.651,0.037 1.592126,0 1.651,-0.006 1.651,-0.16859 z m 1.185334,-0.46641 c 0,-0.7053 0.150311,-0.97367 0.545336,-0.97367 0.219155,0 0.356744,-0.12509 0.226277,-0.20573 -0.07705,-0.0476 -1.533613,0.58241 -1.533613,0.66335 0,0.0666 0.176885,0.92806 0.214607,1.04521 0.01874,0.0582 0.149574,0.10584 0.290735,0.10584 h 0.256658 z m 2.534317,0.5715 c -0.0072,-0.0802 -1.77461,-0.95284 -1.929542,-0.95265 -0.06996,9e-5 -0.09479,0.0525 -0.0635,0.13407 0.02827,0.0737 0.05139,0.30226 0.05139,0.508 v 0.37408 h 0.973667 c 0.535517,0 0.97111,-0.0286 0.967985,-0.0635 z m 4.282565,-0.36149 c 0.3816,-0.51984 0.34779,-0.67557 -0.14673,-0.67597 -0.31646,-2.6e-4 -2.19256,-0.15707 -3.516319,-0.29391 -0.548023,-0.0567 -0.556723,-0.009 -0.147102,0.80431 l 0.297397,0.59056 h 1.600392 1.600392 z m 1.39578,0.37826 c 0,-0.0773 -0.3777,-0.714 -0.42333,-0.71357 -0.0389,3.6e-4 -0.42885,0.55045 -0.49389,0.6968 -0.0155,0.0349 0.18451,0.0635 0.4445,0.0635 0.26,0 0.47272,-0.021 0.47272,-0.0467 z m 2.96334,-0.031 c 0,-0.0709 -0.53005,-2.67165 -0.63557,-3.11844 -0.0247,-0.10478 -0.0728,-0.19047 -0.10688,-0.19044 -0.0447,5e-5 -1.96262,1.66626 -2.29642,1.99508 -0.0183,0.018 0.16752,0.33844 0.41284,0.71212 l 0.44604,0.67941 h 1.09 c 0.60537,0 1.08999,-0.0346 1.08999,-0.0777 z m -9.059335,-1.19784 c 0,-0.33846 0.132925,-0.57745 0.371669,-0.66822 0.11343,-0.0431 0.691066,-0.0282 1.411126,0.0363 1.230075,0.11034 1.46674,0.0991 1.411316,-0.0672 -0.03455,-0.10366 -4.108058,-1.62694 -4.174099,-1.5609 -0.02365,0.0236 0.03478,0.49085 0.129832,1.03824 0.09505,0.54739 0.172822,1.02898 0.172822,1.0702 0,0.0765 0.498679,0.41024 0.613834,0.41081 0.03493,1.8e-4 0.0635,-0.11649 0.0635,-0.25925 z m 5.079995,-0.38325 c 0,-0.0276 -0.0731,-0.14314 -0.16256,-0.25681 l -0.16256,-0.20666 -0.13247,0.18912 c -0.10242,0.14623 -0.10876,0.20418 -0.0279,0.25551 0.12246,0.0778 0.48552,0.0919 0.48552,0.0188 z"
         id="path719" />
      <path
         style="fill:#494949;fill-opacity:1;stroke-width:0.0846667"
         d="m 94.239441,136.57398 c -2.749975,-0.48277 -5.005004,-2.89189 -5.207006,-5.56282 l -0.04674,-0.61795 h -0.320636 -0.320636 l -0.02698,-0.80452 -0.02698,-0.80452 0.483384,1.9e-4 0.483385,1.9e-4 1.381971,-1.24884 c 2.060846,-1.8623 1.97975,-1.79916 2.310873,-1.79916 0.396135,0 0.595959,0.22262 0.715148,0.79675 0.05403,0.26029 0.112965,0.47325 0.130957,0.47325 0.01799,0 0.378664,-0.15848 0.801493,-0.35218 l 0.76878,-0.35217 -0.0651,-0.38866 c -0.153429,-0.916 -0.01046,-1.23636 0.546709,-1.22507 0.431737,0.009 4.327677,1.45564 4.570897,1.69756 0.11812,0.11749 0.19193,0.2955 0.19425,0.4685 l 0.004,0.27902 0.17567,-0.33867 c 0.27089,-0.52226 0.40273,-0.63514 0.74013,-0.6337 0.36367,0.002 0.42201,0.0376 0.68321,0.42203 0.11073,0.16299 0.21141,0.30995 0.22373,0.32659 0.0123,0.0166 0.55725,-0.45008 1.21097,-1.03717 0.94647,-0.84999 1.23877,-1.06742 1.43498,-1.06742 0.51499,0 0.58958,0.15555 0.99324,2.07136 0.20492,0.97256 0.37259,1.79972 0.37259,1.83814 0,0.0384 0.23812,0.0697 0.52916,0.0696 l 0.52917,-1.9e-4 -0.027,0.80452 -0.027,0.80452 h -0.32064 -0.32064 l -0.0467,0.61795 c -0.0257,0.33987 -0.14771,0.9209 -0.27111,1.29117 -0.66002,1.98031 -2.13855,3.41478 -4.23627,4.11003 -0.57755,0.19142 -0.68224,0.19688 -4.10633,0.21422 -1.932516,0.01 -3.694132,-0.0139 -3.9147,-0.0526 z m 7.659809,-0.67166 c 2.37554,-0.60757 4.0227,-2.52855 4.3427,-5.06461 l 0.0561,-0.4445 h -8.397889 -8.39789 l 0.05609,0.4445 c 0.317808,2.51875 1.957205,4.44396 4.309357,5.06064 0.539309,0.14139 0.964214,0.1587 3.997737,0.16287 3.086575,0.004 3.452265,-0.0102 4.033815,-0.1589 z m -4.675838,-1.07198 c -1.393102,-0.60413 -1.381151,-2.6204 0.019,-3.20542 1.281906,-0.53561 2.637046,0.61526 2.342368,1.98929 -0.21943,1.02317 -1.401956,1.63218 -2.361368,1.21613 z m 1.350607,-0.67955 c 0.525255,-0.44197 0.636354,-0.92996 0.334142,-1.46768 -0.224941,-0.40022 -0.556696,-0.59656 -1.00802,-0.59656 -0.451323,0 -0.783078,0.19634 -1.008019,0.59656 -0.302213,0.53772 -0.191113,1.02571 0.334141,1.46768 0.20497,0.17248 0.354729,0.22176 0.673878,0.22176 0.31915,0 0.468909,-0.0493 0.673878,-0.22176 z m 8.369911,-4.58308 -0.0268,-0.23283 h -9.016999 -9.017 l -0.02679,0.23283 -0.02679,0.23284 h 9.070581 9.070578 z m -13.421726,-0.84666 c 0.04606,-0.0842 -0.444194,-2.33013 -0.527738,-2.41763 -0.05567,-0.0583 -2.798992,2.33579 -2.798992,2.44269 0,0.0665 3.290232,0.0417 3.32673,-0.0251 z m 1.160604,-0.54488 c 0,-0.50811 0.03034,-0.64067 0.184092,-0.80433 0.108193,-0.11517 0.282728,-0.19596 0.423333,-0.19596 0.231828,0 0.318702,-0.11023 0.162807,-0.20658 -0.115801,-0.0716 -1.532536,0.60605 -1.530163,0.73187 0.0023,0.12046 0.149646,0.80911 0.209198,0.97754 0.02058,0.0582 0.152914,0.10584 0.294075,0.10584 h 0.256658 z m 2.538411,0.54488 c -0.0022,-0.088 -1.735812,-0.9525 -1.910095,-0.9525 -0.113305,0 -0.130944,0.0527 -0.08857,0.26458 0.0291,0.14552 0.05292,0.37412 0.05292,0.508 v 0.24342 h 0.973667 c 0.535517,0 0.972951,-0.0286 0.972078,-0.0635 z m 4.275561,-0.33867 c 0.16295,-0.22119 0.28664,-0.45932 0.27485,-0.52917 -0.0173,-0.10264 -0.41098,-0.16224 -2.052287,-0.31074 -2.511727,-0.22725 -2.327202,-0.22185 -2.327202,-0.0681 0,0.071 0.133829,0.39486 0.297398,0.71966 l 0.297397,0.59056 h 1.606781 1.606783 z m 1.39869,0.31631 c 0,-0.10816 -0.36293,-0.67368 -0.43324,-0.6751 -0.0539,-0.001 -0.49809,0.63816 -0.49809,0.71681 0,0.0243 0.20955,0.0442 0.46567,0.0442 0.25829,0 0.46566,-0.0382 0.46566,-0.0859 z m 2.96334,-0.0311 c 0,-0.11589 -0.56277,-2.83688 -0.64563,-3.12158 -0.0237,-0.0815 -0.0708,-0.14817 -0.10454,-0.14817 -0.0469,0 -1.80438,1.5255 -2.24749,1.95086 -0.045,0.0432 0.10796,0.35478 0.37051,0.75469 l 0.44716,0.68112 h 1.09 c 0.87063,0 1.08999,-0.0235 1.08999,-0.11692 z m -9.024568,-1.02608 c -0.08207,-0.32699 0.02923,-0.6203 0.283959,-0.74835 0.196221,-0.0986 0.424965,-0.0988 1.497176,-10e-4 1.23365,0.11218 1.568673,0.0787 1.354684,-0.13526 -0.08702,-0.087 -3.968949,-1.52805 -4.116348,-1.52805 -0.05362,0 -0.07053,0.10954 -0.04248,0.27516 0.02563,0.15134 0.111883,0.661 0.191671,1.13258 l 0.145069,0.85741 0.346919,0.1745 c 0.190805,0.096 0.357169,0.17687 0.369698,0.17976 0.01253,0.003 -0.0011,-0.09 -0.03034,-0.20641 z m 5.045228,-0.51098 c 0,-0.085 -0.27329,-0.46269 -0.33481,-0.46269 -0.0872,0 -0.25681,0.39616 -0.19574,0.45722 0.0629,0.0629 0.53055,0.0678 0.53055,0.005 z"
         id="path717" />
      <path
         style="fill:#333333;fill-opacity:1;stroke-width:0.0846667"
         d="m 94.471141,136.60096 c -1.070685,-0.16035 -2.325438,-0.704 -3.129789,-1.35604 -1.299252,-1.05324 -2.175118,-2.67417 -2.319841,-4.29324 l -0.0537,-0.6008 -0.3175,0.007 -0.3175,0.007 v -0.79047 -0.79047 h 0.473597 0.473597 l 1.32557,-1.20304 c 0.729063,-0.66166 1.486644,-1.34746 1.683512,-1.524 0.644721,-0.57812 1.168036,-0.38619 1.375667,0.50454 0.05699,0.24447 0.114403,0.4445 0.12759,0.4445 0.111431,0 1.528432,-0.68623 1.549883,-0.75058 0.01532,-0.046 -0.0084,-0.28297 -0.05267,-0.52666 -0.102318,-0.56295 -3.04e-4,-0.87419 0.331583,-1.01166 0.229543,-0.0951 0.428304,-0.0386 2.428672,0.68994 2.287858,0.83327 2.610918,1.01079 2.537588,1.39437 -0.0655,0.34269 0.072,0.30918 0.23755,-0.0579 0.18697,-0.41462 0.41035,-0.58421 0.7695,-0.58421 0.2609,0 0.55228,0.24413 0.7826,0.65571 0.0648,0.11585 0.25739,-0.0224 1.16588,-0.83705 1.40104,-1.25634 1.57702,-1.34796 1.96907,-1.02516 0.1735,0.14285 0.30825,0.67152 0.85237,3.34433 l 0.0991,0.48684 h 0.502 0.502 v 0.79047 0.79047 l -0.3175,-0.007 -0.3175,-0.007 -0.0537,0.6008 c -0.19026,2.1285 -1.55629,4.09028 -3.5023,5.02969 -1.2769,0.61641 -1.29425,0.61858 -5.122324,0.63918 -1.88595,0.0101 -3.5433,0.001 -3.683,-0.0196 z m 7.397119,-0.66467 c 1.06021,-0.24993 2.3391,-1.03846 3.00784,-1.85457 0.78302,-0.95558 1.30676,-2.20682 1.34431,-3.21163 l 0.0194,-0.51921 h -8.339669 -8.339667 l 0.0194,0.51921 c 0.03755,1.00481 0.561283,2.25605 1.344309,3.21163 0.654354,0.79855 1.944137,1.60241 2.969424,1.8507 0.741544,0.17957 7.215973,0.18271 7.974653,0.004 z m -4.50279,-1.05224 c -0.698463,-0.2241 -1.154606,-0.89399 -1.15541,-1.69684 -5.93e-4,-0.58615 0.241999,-1.03954 0.745593,-1.39348 0.321553,-0.22599 0.437176,-0.25752 0.944488,-0.25752 0.507313,0 0.622935,0.0315 0.944488,0.25752 0.517021,0.36338 0.74606,0.80417 0.74606,1.43582 0,0.62334 -0.228298,1.07191 -0.722217,1.41905 -0.376055,0.2643 -1.072866,0.37346 -1.503002,0.23545 z m 1.176448,-0.67116 c 0.294875,-0.17981 0.543557,-0.63616 0.543557,-0.99746 0,-0.13339 -0.07098,-0.37528 -0.157743,-0.53754 -0.434197,-0.81204 -1.620985,-0.81204 -2.055182,0 -0.427243,0.79904 0.115653,1.69402 1.027591,1.69402 0.223757,0 0.488625,-0.0656 0.641777,-0.15902 z m 8.417562,-4.66634 v -0.254 h -9.059339 -9.059334 v 0.254 0.254 h 9.059334 9.059339 z m -13.417515,-0.9525 c -0.02387,-0.10478 -0.140158,-0.64706 -0.258416,-1.20507 -0.118257,-0.55802 -0.248029,-1.04759 -0.288381,-1.08794 -0.06862,-0.0686 -2.778456,2.27925 -2.793092,2.42001 -0.0036,0.0349 0.756124,0.0635 1.688345,0.0635 h 1.694946 z m 1.140843,-0.43836 c 0,-0.57852 0.01786,-0.6429 0.223085,-0.80433 0.122696,-0.0965 0.313196,-0.17548 0.423333,-0.17548 0.121554,0 0.200248,-0.0499 0.200248,-0.127 0,-0.0699 -0.03958,-0.127 -0.08795,-0.127 -0.07289,0 -1.4055,0.57186 -1.511073,0.64845 -0.03693,0.0268 0.155019,1.05269 0.2153,1.15072 0.02148,0.0349 0.151103,0.0635 0.288055,0.0635 h 0.249003 z m 2.624667,0.58718 c 0,-0.0229 -0.455345,-0.26994 -1.011878,-0.54892 -0.635473,-0.31856 -1.032489,-0.47389 -1.067288,-0.41758 -0.03048,0.0493 -0.02959,0.29632 0.002,0.54891 l 0.05738,0.45927 h 1.009908 c 0.555449,0 1.009908,-0.0188 1.009908,-0.0417 z m 4.253005,-0.44629 c 0.27942,-0.42948 0.29902,-0.49245 0.16933,-0.54399 -0.2027,-0.0806 -4.244419,-0.42268 -4.334652,-0.36691 -0.04013,0.0248 0.06539,0.3497 0.234506,0.72198 l 0.307477,0.67689 1.653667,-0.001 1.653662,-0.001 0.31601,-0.48571 z m 1.3024,0.2763 c -0.0752,-0.11642 -0.19845,-0.30719 -0.27387,-0.42393 l -0.13713,-0.21227 -0.24387,0.38454 c -0.13413,0.2115 -0.24387,0.40227 -0.24387,0.42393 0,0.0217 0.23298,0.0394 0.51774,0.0394 h 0.51774 z m 2.99071,0.0212 c -0.0105,-0.38519 -0.6417,-3.1437 -0.72568,-3.17169 -0.15194,-0.0507 -2.3294,1.93802 -2.27557,2.07828 0.0266,0.0693 0.22153,0.38648 0.43323,0.70492 l 0.38491,0.57899 h 1.09416 c 1.0798,0 1.0941,-0.003 1.08895,-0.1905 z m -9.029668,-1.06967 c -0.0355,-0.26468 -0.0069,-0.36609 0.146777,-0.51972 0.185973,-0.18598 0.218352,-0.18911 1.258663,-0.1218 1.599633,0.1035 1.737914,0.0999 1.765313,-0.0456 0.01779,-0.0945 -0.493278,-0.31679 -1.994807,-0.86783 -1.110289,-0.40746 -2.063187,-0.74083 -2.117551,-0.74083 -0.132848,0 -0.124583,0.14057 0.07178,1.22084 0.09243,0.50848 0.168047,0.95242 0.168047,0.98653 0,0.0586 0.571769,0.39949 0.690443,0.41162 0.0305,0.003 0.0356,-0.1423 0.01134,-0.32316 z m 5.055548,-0.39381 c 0,-0.085 -0.27329,-0.46269 -0.33481,-0.46269 -0.0544,0 -0.25785,0.37063 -0.25785,0.46965 0,0.0211 0.13335,0.0384 0.29633,0.0384 0.16298,0 0.29633,-0.0204 0.29633,-0.0453 z"
         id="path715" />
    </g>
  </g>
</svg>
