<?xml version="1.0" encoding="UTF-8" standalone="no"?>
<!-- Created with Inkscape (http://www.inkscape.org/) -->

<svg
   width="139mm"
   height="111mm"
   viewBox="0 0 139 111"
   version="1.1"
   id="svg5"
   inkscape:version="1.1.1 (3bf5ae0d25, 2021-09-20)"
   sodipodi:docname="napoje.svg"
   xmlns:inkscape="http://www.inkscape.org/namespaces/inkscape"
   xmlns:sodipodi="http://sodipodi.sourceforge.net/DTD/sodipodi-0.dtd"
   xmlns="http://www.w3.org/2000/svg"
   xmlns:svg="http://www.w3.org/2000/svg">
  <sodipodi:namedview
     id="namedview7"
     pagecolor="#ffffff"
     bordercolor="#666666"
     borderopacity="1.0"
     inkscape:pageshadow="2"
     inkscape:pageopacity="0.0"
     inkscape:pagecheckerboard="0"
     inkscape:document-units="mm"
     showgrid="false"
     inkscape:zoom="0.69664703"
     inkscape:cx="397.61886"
     inkscape:cy="364.60358"
     inkscape:window-width="1920"
     inkscape:window-height="986"
     inkscape:window-x="-11"
     inkscape:window-y="-11"
     inkscape:window-maximized="1"
     inkscape:current-layer="layer1"
     height="91mm"
     width="139mm" />
  <defs
     id="defs2" />
  <g
     inkscape:label="Warstwa 1"
     inkscape:groupmode="layer"
     id="layer1">
    <g
       id="g21"
       transform="matrix(2.528419,0,0,2.528419,-254.73348,-368.76614)">
      <path
         style="fill:#b9b9b9;fill-opacity:1;stroke-width:0.352778"
         d="m 118.27106,187.88971 c -0.41691,-2.95961 -3.71259,-31.42371 -3.71259,-32.06486 0,-0.62138 0.46506,-0.65528 8.98912,-0.65528 h 8.98911 l 0.17896,-0.79375 c 0.18016,-0.79913 1.24559,-7.50982 1.24559,-7.84551 0,-0.0991 1.50813,-0.18019 3.35139,-0.18019 h 3.35139 v 1.05834 1.05833 h -2.46272 c -2.76937,0 -2.47679,-0.33947 -3.17234,3.68076 -0.55654,3.21674 -0.72641,3.02202 2.63645,3.02202 2.68674,0 2.99861,0.0682 2.99861,0.65528 0,0.64115 -3.29568,29.10525 -3.71258,32.06486 l -0.21121,1.4993 h -9.12899 -9.12899 z m 16.76929,-0.70556 c 0.0114,-0.0485 0.61317,-5.12851 1.33724,-11.28889 l 1.31649,-11.20069 h -1.51363 c -1.54316,0 -1.7859,-0.29114 -1.29951,-1.55865 0.14374,-0.37458 0.65877,-0.55802 1.56668,-0.55802 0.7439,0 1.42078,-0.11906 1.50417,-0.26458 0.0834,-0.14552 0.26113,-1.41552 0.39496,-2.82223 l 0.24333,-2.55763 h -2.09978 c -2.49145,0 -2.04851,-1.10655 -3.74213,9.34861 -1.61577,9.9745 -1.44853,9.34861 -2.49781,9.34861 -0.53643,0 -0.87522,-0.20154 -0.87522,-0.52066 0,-0.28635 0.635,-4.35793 1.41111,-9.04793 0.77611,-4.69001 1.41111,-8.66259 1.41111,-8.82796 0,-0.16537 -3.50808,-0.30067 -7.79575,-0.30067 h -7.79575 l 0.23642,2.20486 c 0.40396,3.76748 -0.21936,3.43958 6.53859,3.43958 3.27395,0 6.03372,0.1312 6.13282,0.29156 0.0991,0.16035 0.0909,0.63293 -0.0182,1.05017 -0.19168,0.73298 -0.39709,0.76187 -6.07898,0.85497 l -5.8806,0.0964 1.30879,10.93611 c 0.71984,6.01486 1.31992,11.05517 1.33351,11.20069 0.0216,0.23094 14.80799,0.40643 14.86214,0.17639 z m -13.54648,-3.88056 c -0.10927,-0.63059 -0.52546,-4.0834 -0.92487,-7.67291 -0.39941,-3.58952 -0.79996,-6.96295 -0.8901,-7.49653 -0.14827,-0.87766 -0.0639,-0.97014 0.88562,-0.97014 0.6012,0 1.05209,0.18837 1.05555,0.44097 0.003,0.24254 0.3994,3.69535 0.88017,7.67292 1.10761,9.16358 1.10764,9.17222 0.035,9.17222 -0.67478,0 -0.88227,-0.22844 -1.04136,-1.14653 z"
         id="path35" />
      <path
         style="fill:#a3a3a3;fill-opacity:1;stroke-width:0.352778"
         d="m 118.43903,189.25216 c 0,-0.0753 -0.87313,-7.54714 -1.94028,-16.60415 -1.06715,-9.05703 -1.94028,-16.69482 -1.94028,-16.97288 0,-0.42567 1.4205,-0.50556 8.98912,-0.50556 h 8.98911 l 0.17775,-0.79375 c 0.0978,-0.43657 0.42874,-2.29425 0.7355,-4.1282 0.30675,-1.83394 0.63603,-3.46113 0.73172,-3.61597 0.0957,-0.15484 1.59338,-0.28153 3.32818,-0.28153 h 3.15418 v 1.04288 1.04288 l -2.54739,0.10365 -2.5474,0.10365 -0.42436,2.64583 c -0.67845,4.23013 -0.90551,3.88056 2.52054,3.88056 2.417,0 2.99861,0.10162 2.99861,0.52395 0,0.28818 -0.87313,7.90338 -1.94028,16.92267 -1.06715,9.01929 -1.94028,16.48288 -1.94028,16.58576 0,0.10288 -4.1275,0.18706 -9.17222,0.18706 -5.04472,0 -9.17222,-0.0616 -9.17222,-0.13685 z m 16.73619,-2.77357 c 0.093,-0.43656 0.65499,-5.15937 1.24887,-10.49513 0.59388,-5.33577 1.15884,-10.05858 1.25547,-10.49514 0.16201,-0.73197 0.0516,-0.79375 -1.41853,-0.79375 -1.64605,0 -1.86186,-0.25186 -1.22903,-1.43431 0.25131,-0.46957 0.73985,-0.68236 1.56668,-0.68236 0.66082,0 1.27222,-0.11906 1.35867,-0.26458 0.0865,-0.14552 0.27068,-1.41552 0.4094,-2.82223 l 0.25222,-2.55763 h -2.14575 c -1.93641,0 -2.1634,0.0774 -2.32672,0.79375 -0.0995,0.43656 -0.74013,4.20687 -1.42353,8.37847 -1.67828,10.24441 -1.48991,9.525 -2.49392,9.525 -0.54166,0 -0.85391,-0.20303 -0.85391,-0.55523 0,-0.30538 0.635,-4.34178 1.41111,-8.96977 0.77611,-4.628 1.41111,-8.58502 1.41111,-8.79338 0,-0.25853 -2.48036,-0.37884 -7.81025,-0.37884 h -7.81025 l 0.22246,1.85208 c 0.12236,1.01865 0.22385,2.28865 0.22553,2.82222 l 0.003,0.97014 h 6.11481 c 3.36315,0 6.19792,0.0831 6.2995,0.18468 0.10157,0.10157 0.10953,0.57782 0.0177,1.05833 l -0.16701,0.87366 h -5.96281 -5.96282 l 0.17569,0.79375 c 0.0966,0.43656 0.66159,5.15937 1.25547,10.49514 0.59388,5.33576 1.15587,10.05857 1.24886,10.49513 0.16882,0.79253 0.18048,0.79375 7.56398,0.79375 7.38349,0 7.39515,-0.001 7.56397,-0.79375 z m -13.56119,-2.19027 c 0,-0.4156 -1.7755,-15.29959 -1.92702,-16.15417 -0.15421,-0.86976 -0.069,-0.97014 0.8234,-0.97014 h 0.99541 l 0.76076,6.4382 c 0.41842,3.541 0.86226,7.43038 0.9863,8.64305 l 0.22555,2.20486 h -0.9322 c -0.51271,0 -0.9322,-0.0728 -0.9322,-0.1618 z"
         id="path33" />
      <path
         style="fill:#8c8c8c;fill-opacity:1;stroke-width:0.352778"
         d="m 118.88169,189.09925 c -0.29034,-0.18437 -1.09773,-5.85556 -2.38125,-16.72611 -1.06808,-9.04594 -1.94197,-16.61736 -1.94197,-16.82537 0,-0.25917 2.82375,-0.3782 8.97206,-0.3782 8.23884,0 8.98725,-0.0505 9.15792,-0.61736 0.10222,-0.33955 0.43409,-2.18627 0.73749,-4.10383 0.30339,-1.91756 0.6367,-3.62412 0.74067,-3.79236 0.10399,-0.16824 1.60844,-0.3059 3.34324,-0.3059 h 3.15418 v 1.04288 1.04288 l -2.5507,0.10365 -2.5507,0.10365 -0.42623,2.46944 c -0.74879,4.33822 -0.92413,4.05695 2.52902,4.05695 1.89829,0 2.99861,0.13878 2.99861,0.3782 0,0.20801 -0.87388,7.77943 -1.94197,16.82537 -1.28352,10.87055 -2.09091,16.54174 -2.38125,16.72611 -0.2416,0.15343 -4.16991,0.27896 -8.72956,0.27896 -4.55965,0 -8.48795,-0.12553 -8.72956,-0.27896 z m 16.29879,-2.62066 c 0.0959,-0.43656 0.66005,-5.08 1.25371,-10.31875 0.59365,-5.23875 1.16584,-9.96156 1.27152,-10.49513 0.18719,-0.94508 0.15042,-0.97014 -1.42337,-0.97014 -1.64579,0 -1.88252,-0.25307 -1.2836,-1.37217 0.23393,-0.43709 0.70587,-0.60159 1.59827,-0.55708 0.69647,0.0348 1.32152,-0.0329 1.389,-0.15032 0.0675,-0.11742 0.23566,-1.45175 0.37377,-2.96517 l 0.25109,-2.75169 -2.22546,0.10585 -2.22545,0.10585 -0.97688,5.99723 c -2.10672,12.93347 -2.0099,12.52361 -2.9586,12.52361 -0.46714,0 -0.84934,-0.16906 -0.84934,-0.37569 0,-0.20662 0.635,-4.18455 1.41111,-8.83985 0.77611,-4.65529 1.41111,-8.69311 1.41111,-8.97292 0,-0.42781 -1.23977,-0.50876 -7.79121,-0.50876 h -7.79121 l 0.24944,2.73402 c 0.13719,1.50372 0.32293,2.85968 0.41275,3.01326 0.0898,0.15358 2.72956,0.26561 5.86608,0.24896 3.13652,-0.0166 5.87919,-0.0232 6.09482,-0.0146 0.22605,0.009 0.32066,0.38904 0.22345,0.89757 l -0.16859,0.88194 h -5.97208 -5.97208 l 0.19438,1.14653 c 0.10691,0.63059 0.67348,5.3534 1.25904,10.49514 0.58556,5.14174 1.1433,9.7058 1.23943,10.14236 0.17447,0.79234 0.18787,0.79374 7.56967,0.79374 7.38194,0 7.3952,-0.001 7.56923,-0.79375 z m -13.56645,-2.29864 c 0,-0.14859 -0.39688,-3.5831 -0.88194,-7.63225 -0.48507,-4.04914 -0.88195,-7.81694 -0.88195,-8.37288 0,-0.84301 0.14641,-1.01081 0.88195,-1.01081 0.60375,0 0.88278,0.19473 0.88459,0.61736 10e-4,0.33955 0.3962,3.95111 0.87721,8.0257 1.08455,9.18712 1.08442,8.64305 0.002,8.64305 -0.48507,0 -0.88194,-0.12158 -0.88194,-0.27017 z"
         id="path31" />
      <path
         style="fill:#767676;fill-opacity:1;stroke-width:0.352778"
         d="m 118.43903,188.84464 c 0,-0.10538 -0.87291,-7.60632 -1.93979,-16.66875 -1.06689,-9.06244 -1.94002,-16.59354 -1.94028,-16.73578 -2.7e-4,-0.14225 4.08501,-0.301 9.07839,-0.35278 l 9.07888,-0.0942 0.67174,-4.14514 c 0.65673,-4.05247 0.69233,-4.14553 1.59265,-4.16271 0.5065,-0.01 1.95278,-0.0407 3.21397,-0.0689 2.21108,-0.0495 2.29305,-0.0205 2.29305,0.81132 0,0.82387 -0.11196,0.86727 -2.489,0.96493 l -2.489,0.10227 -0.42142,2.91465 c -0.23178,1.60307 -0.42141,3.10486 -0.42141,3.33732 0,0.29522 0.90418,0.42267 2.99861,0.42267 1.64923,0 2.99839,0.11906 2.99813,0.26458 -2.7e-4,0.14552 -0.87339,7.6793 -1.94028,16.74174 -1.06689,9.06243 -1.9398,16.56337 -1.9398,16.66875 0,0.10537 -4.1275,0.19159 -9.17222,0.19159 -5.04472,0 -9.17222,-0.0862 -9.17222,-0.19159 z m 17.86723,-11.27368 c 0.61146,-5.23875 1.19962,-10.27907 1.30702,-11.2007 l 0.19529,-1.67569 h -1.60863 c -1.32191,0 -1.57045,-0.0995 -1.39449,-0.55802 0.11778,-0.30691 0.21414,-0.70379 0.21414,-0.88195 0,-0.17815 0.62563,-0.32392 1.39029,-0.32392 0.76466,0 1.46265,-0.11906 1.55111,-0.26459 0.0884,-0.14552 0.27597,-1.50297 0.41672,-3.01656 l 0.25591,-2.75198 -2.23604,0.10615 -2.23603,0.10614 -1.48072,8.89191 c -0.81439,4.89055 -1.5832,9.05773 -1.70847,9.26042 -0.25927,0.41952 -1.59838,0.50677 -1.59501,0.10392 0.001,-0.14552 0.63622,-4.12671 1.41111,-8.84708 0.7749,-4.72038 1.4089,-8.80819 1.4089,-9.08403 0,-0.4184 -1.29327,-0.50152 -7.80256,-0.50152 h -7.80255 l 0.25422,2.73402 c 0.13983,1.50372 0.3266,2.85309 0.41505,2.99861 0.0884,0.14553 2.8502,0.26459 6.13722,0.26459 h 5.9764 v 0.88194 0.88195 h -6.01321 -6.0132 l 0.18889,1.14652 c 0.10389,0.6306 0.67902,5.51216 1.27807,10.84792 0.59905,5.33577 1.15248,9.903 1.22984,10.1494 0.10915,0.3477 1.82095,0.42669 7.64481,0.35278 l 7.50417,-0.0952 z m -14.694,6.43819 c -0.001,-0.24253 -0.39514,-3.69535 -0.87591,-7.67292 -1.10631,-9.15279 -1.10647,-9.17222 -0.0762,-9.17222 0.79509,0 0.82778,0.15451 1.7728,8.37847 0.52952,4.60816 0.95876,8.49754 0.95386,8.64306 -0.0155,0.4602 -1.77272,0.28554 -1.77457,-0.17639 z"
         id="path29" />
      <path
         style="fill:#606060;fill-opacity:1;stroke-width:0.352778"
         d="m 118.43903,188.66479 c 0,-0.41528 -3.39721,-29.64463 -3.71875,-31.99592 l -0.20504,-1.4993 h 9.11025 9.11024 l 0.66718,-4.23334 0.66719,-4.23333 h 3.29696 c 3.03717,0 3.29697,0.0544 3.29697,0.6901 0,0.61172 -0.28954,0.70187 -2.54923,0.79375 l -2.54923,0.10365 -0.56676,3.43958 -0.56676,3.43959 h 3.11599 c 1.71379,0 3.11599,0.0776 3.11599,0.17242 0,0.0948 -0.87313,7.53648 -1.94028,16.53698 -1.06715,9.0005 -1.94028,16.5429 -1.94028,16.7609 0,0.28314 -2.62022,0.39636 -9.17222,0.39636 -6.18696,0 -9.17222,-0.12089 -9.17222,-0.37144 z m 17.87355,-10.99117 c 0.61834,-5.29521 1.22085,-10.38173 1.3389,-11.30336 l 0.21463,-1.67569 h -1.36447 c -1.59614,0 -1.82088,-0.15355 -1.57893,-1.07876 0.13798,-0.52766 0.48926,-0.68513 1.52831,-0.68513 0.74203,0 1.42852,-0.12844 1.52554,-0.28541 0.097,-0.15698 0.28777,-1.51451 0.4239,-3.01675 l 0.24751,-2.73134 -2.25517,0.10633 -2.25516,0.10633 -1.48139,8.81945 c -0.81477,4.85069 -1.48945,8.93851 -1.49931,9.08403 -0.01,0.14552 -0.4274,0.26458 -0.92789,0.26458 -0.80568,0 -0.88719,-0.11118 -0.71125,-0.97014 0.49534,-2.41818 2.67956,-15.98151 2.67956,-16.63921 0,-0.7228 -0.13059,-0.73509 -7.80977,-0.73509 h -7.80977 l 0.24587,2.7132 c 0.13522,1.49226 0.32524,2.84163 0.42225,2.99861 0.097,0.15697 2.87682,0.28541 6.17734,0.28541 h 6.00093 l -0.11273,0.79375 c -0.11118,0.78283 -0.19455,0.79508 -6.05938,0.89064 l -5.94666,0.0969 0.19161,1.13782 c 0.10539,0.62581 0.69214,5.58283 1.30391,11.01561 0.61176,5.43278 1.15725,10.03653 1.21219,10.23056 0.0634,0.22404 2.8505,0.32587 7.63752,0.27905 l 7.53763,-0.0737 z m -15.3511,0.33831 c -1.37415,-11.62923 -1.35004,-10.92964 -0.37194,-10.79128 0.83048,0.11748 0.86437,0.26669 1.79029,7.88086 1.19738,9.84651 1.18831,9.34861 0.17025,9.34861 -0.81057,0 -0.84371,-0.13431 -1.5886,-6.43819 z"
         id="path27" />
      <path
         style="fill:#494949;fill-opacity:1;stroke-width:0.352778"
         d="m 118.43903,188.56731 c 0,-0.60566 -3.46137,-30.33035 -3.73504,-32.07483 l -0.20753,-1.32291 h 9.14317 9.14317 l 0.64929,-4.23334 0.64928,-4.23333 h 3.29133 c 3.03158,0 3.29133,0.0545 3.29133,0.6901 0,0.61168 -0.28953,0.70188 -2.54793,0.79375 l -2.54793,0.10365 -0.43831,2.64583 c -0.24107,1.45521 -0.52627,3.00302 -0.63379,3.43959 -0.19194,0.77935 -0.13721,0.79375 3.01725,0.79375 h 3.21273 l -0.21009,1.32291 c -0.2679,1.68694 -3.73249,31.46715 -3.73249,32.08295 0,0.3674 -1.85914,0.4608 -9.17222,0.4608 -7.39419,0 -9.17222,-0.0909 -9.17222,-0.46892 z m 18.07567,-12.23108 c 0.72531,-6.11187 1.24623,-11.31093 1.1576,-11.55347 -0.0886,-0.24253 -0.72173,-0.44097 -1.40692,-0.44097 -1.01061,0 -1.24579,-0.1332 -1.24579,-0.70556 0,-0.60102 0.23518,-0.70555 1.5875,-0.70555 1.48941,0 1.58933,-0.0599 1.61726,-0.97014 0.0164,-0.53358 0.14381,-1.88295 0.28318,-2.99861 l 0.2534,-2.02847 h -2.32255 -2.32255 l -1.17189,7.14375 c -1.99161,12.14076 -1.76094,11.20069 -2.74832,11.20069 -0.65862,0 -0.82552,-0.14894 -0.69186,-0.61736 0.4218,-1.47811 2.81048,-17.37502 2.63688,-17.54862 -0.10573,-0.10573 -3.66841,-0.14945 -7.91706,-0.0972 l -7.72483,0.0951 0.2999,2.91042 0.29989,2.91042 h 6.1383 c 5.90311,0 6.1383,0.027 6.1383,0.70555 0,0.67789 -0.23519,0.70556 -5.99722,0.70556 -4.04544,0 -5.99722,0.12354 -5.99722,0.3796 0,0.7617 2.51793,22.03506 2.65954,22.4698 0.11322,0.34757 1.82852,0.42666 7.65084,0.35278 l 7.50489,-0.0952 z m -14.72214,7.67292 c -0.17081,-0.49525 -1.94242,-15.35495 -1.94242,-16.29248 0,-0.42071 0.2363,-0.56782 0.7855,-0.489 0.75323,0.1081 0.82502,0.44609 1.7474,8.22662 1.1677,9.84992 1.14128,8.99583 0.27825,8.99583 -0.39414,0 -0.78507,-0.19844 -0.86873,-0.44097 z"
         id="path25" />
      <path
         style="fill:#333333;fill-opacity:1;stroke-width:0.352778"
         d="m 116.70813,172.89665 c -1.02395,-8.87677 -1.94372,-16.49677 -2.04394,-16.93333 l -0.1822,-0.79375 h 9.16123 9.16123 l 0.67112,-4.14514 0.6711,-4.14514 3.25868,-0.10143 c 3.05399,-0.0951 3.25868,-0.0573 3.25868,0.6019 0,0.6283 -0.27253,0.7144 -2.55423,0.80699 l -2.55423,0.10365 -0.43225,2.46945 c -0.23773,1.35819 -0.51311,2.906 -0.61195,3.43958 l -0.1797,0.97014 h 3.19421 3.19421 l -0.18753,0.97014 c -0.10314,0.53357 -1.0205,8.15357 -2.03858,16.93333 l -1.85104,15.96319 h -9.03654 -9.03655 z m 18.48668,14.2875 c 0.15321,-0.44136 2.65118,-21.56998 2.64845,-22.40139 -10e-4,-0.27904 -0.51963,-0.44097 -1.41256,-0.44097 -1.17593,0 -1.41111,-0.11759 -1.41111,-0.70556 0,-0.59914 0.23518,-0.70555 1.55942,-0.70555 h 1.55942 l 0.23283,-2.38125 c 0.12805,-1.30969 0.31013,-2.65906 0.40463,-2.99861 0.15166,-0.545 -0.11408,-0.61736 -2.26722,-0.61736 h -2.43902 l -1.51951,9.17222 c -1.48784,8.98111 -1.53689,9.17222 -2.35397,9.17222 -0.68382,0 -0.8018,-0.14331 -0.65349,-0.79375 0.0995,-0.43656 0.73852,-4.20687 1.41996,-8.37847 0.68144,-4.1716 1.32043,-7.94191 1.41997,-8.37847 l 0.18097,-0.79375 h -8.14438 c -7.58682,0 -8.13262,0.0423 -7.97258,0.61736 0.0945,0.33955 0.27657,1.68892 0.40463,2.99861 l 0.23283,2.38125 h 6.14553 c 5.91034,0 6.14553,0.027 6.14553,0.70555 0,0.67789 -0.23519,0.70556 -5.99722,0.70556 -4.93049,0 -5.99722,0.0886 -5.99722,0.49828 0,0.88929 2.4866,21.88937 2.64574,22.34408 0.11687,0.33394 1.95793,0.44097 7.58481,0.44097 5.62756,0 7.46762,-0.107 7.58356,-0.44097 z m -13.39951,-3.175 c -0.13915,-0.41082 -1.94516,-15.7267 -1.94516,-16.49594 0,-0.19206 0.31448,-0.3492 0.69884,-0.3492 0.85924,0 0.84714,-0.0556 1.76522,8.11389 0.40339,3.58951 0.8217,7.1217 0.92958,7.84931 0.17411,1.17425 0.11214,1.32291 -0.55148,1.32291 -0.4112,0 -0.81485,-0.19844 -0.897,-0.44097 z"
         id="path23" />
    </g>
  </g>
</svg>
