<?xml version="1.0" encoding="UTF-8" standalone="no"?>
<!-- Created with Inkscape (http://www.inkscape.org/) -->

<svg
   width="139mm"
   height="111mm"
   viewBox="0 0 139 111"
   version="1.1"
   id="svg5"
   inkscape:version="1.1.1 (3bf5ae0d25, 2021-09-20)"
   sodipodi:docname="popcorn.svg"
   xmlns:inkscape="http://www.inkscape.org/namespaces/inkscape"
   xmlns:sodipodi="http://sodipodi.sourceforge.net/DTD/sodipodi-0.dtd"
   xmlns:xlink="http://www.w3.org/1999/xlink"
   xmlns="http://www.w3.org/2000/svg"
   xmlns:svg="http://www.w3.org/2000/svg">
  <sodipodi:namedview
     id="namedview7"
     pagecolor="#ffffff"
     bordercolor="#666666"
     borderopacity="1.0"
     inkscape:pageshadow="2"
     inkscape:pageopacity="0.0"
     inkscape:pagecheckerboard="false"
     inkscape:document-units="mm"
     showgrid="false"
     height="80mm"
     inkscape:zoom="0.69664703"
     inkscape:cx="400.48976"
     inkscape:cy="232.54244"
     inkscape:window-width="1920"
     inkscape:window-height="986"
     inkscape:window-x="-11"
     inkscape:window-y="-11"
     inkscape:window-maximized="1"
     inkscape:current-layer="layer1" />
  <defs
     id="defs2">
    <color-profile
       name="Agfa-:-Swop-Standard"
       xlink:href="../../../WINDOWS/system32/spool/drivers/color/RSWOP.icm"
       id="color-profile17" />
  </defs>
  <g
     inkscape:label="Warstwa 1"
     inkscape:groupmode="layer"
     id="layer1">
    <g
       id="g836"
       transform="matrix(9.0126491,0,0,7.7201239,-923.60742,-1087.5467)">
      <path
         style="fill:#b9b9b9;fill-opacity:1;stroke-width:0.0846667"
         d="m 105.94556,155.05623 c -0.0316,-0.0511 -0.27113,-2.04945 -0.53233,-4.44079 -0.4615,-4.22499 -0.48038,-4.35038 -0.66775,-4.43575 -0.34652,-0.15789 -0.18006,-0.51482 0.2401,-0.51482 0.21662,0 0.2246,-0.0136 0.13994,-0.23782 -0.12831,-0.33994 -0.0123,-0.82041 0.27799,-1.151 0.14256,-0.16237 0.24982,-0.38111 0.24982,-0.50947 0,-0.3488 0.56185,-0.90501 0.93278,-0.92341 0.26111,-0.0129 0.29489,0.009 0.29489,0.19454 0,0.13865 -0.0714,0.24457 -0.21167,0.31421 -0.31547,0.15656 -0.508,0.43593 -0.508,0.73715 0,0.19191 -0.0722,0.33143 -0.254,0.49098 -0.27032,0.2372 -0.33643,0.60326 -0.16635,0.92106 0.0849,0.15861 0.22299,0.16376 4.38573,0.16376 3.23007,0 4.32333,-0.0252 4.39969,-0.1016 0.0559,-0.0559 0.1016,-0.24047 0.1016,-0.41021 0,-0.34689 -0.18224,-0.56177 -0.5624,-0.66315 -0.13307,-0.0355 -0.28623,-0.15296 -0.34038,-0.26108 -0.0541,-0.10811 -0.19702,-0.28797 -0.3175,-0.39969 -0.13814,-0.12809 -0.21905,-0.29341 -0.21905,-0.44755 0,-0.46709 -0.66361,-0.76048 -1.05335,-0.46569 -0.23798,0.18 -0.46399,0.15268 -0.5477,-0.0662 -0.11087,-0.28992 -0.35704,-0.47062 -0.68302,-0.50138 -0.19886,-0.0188 -0.32358,-0.0867 -0.38431,-0.20926 -0.17757,-0.35843 -0.31273,-0.45353 -0.64455,-0.45353 -0.24526,0 -0.37565,0.0538 -0.5129,0.21167 -0.11358,0.13063 -0.27392,0.21166 -0.41879,0.21166 -0.48994,0 -0.66553,0.15937 -0.8694,0.78911 -0.085,0.26265 -0.42611,0.14852 -0.46057,-0.15411 -0.0564,-0.49529 0.50862,-1.143 0.99706,-1.143 0.10239,0 0.31342,-0.0971 0.46897,-0.21571 0.53103,-0.40503 1.27732,-0.35056 1.67519,0.12228 0.10826,0.12866 0.3275,0.27948 0.4872,0.33515 0.1597,0.0557 0.38835,0.19511 0.50812,0.30985 0.19088,0.18287 0.25332,0.19844 0.50574,0.12605 0.58754,-0.16851 1.23149,0.2077 1.45286,0.84879 0.11958,0.34629 0.49536,0.84425 0.63712,0.84426 0.15907,0 0.61455,0.42058 0.75992,0.70169 0.0919,0.17763 0.11783,0.3726 0.0832,0.62491 -0.0466,0.34003 -0.0362,0.36673 0.14285,0.36673 0.38892,0 0.53243,0.36495 0.20262,0.51522 -0.18796,0.0856 -0.20575,0.19914 -0.60002,3.82935 -0.22348,2.05761 -0.44578,3.78872 -0.494,3.84693 -0.0482,0.0582 -0.1355,0.10584 -0.19395,0.10584 -0.31844,0 -0.33573,0.24997 0.50222,-7.26017 l 0.0496,-0.4445 h -0.7204 c -0.69047,0 -0.72044,0.008 -0.721,0.1905 -3.4e-4,0.10477 -0.11436,1.8669 -0.25341,3.91583 -0.13906,2.04894 -0.25318,3.83964 -0.2536,3.97934 l -7.7e-4,0.254 0.58595,-0.0279 c 0.6773,-0.0322 0.96156,0.076 0.92241,0.35107 l -0.0263,0.18478 -4.16435,0.022 c -2.95271,0.0156 -4.18105,-0.005 -4.22176,-0.0709 z m 1.48519,-0.71302 c -3.4e-4,-0.1397 -0.11436,-1.9304 -0.25342,-3.97934 -0.13905,-2.04893 -0.25309,-3.81106 -0.25341,-3.91583 -5.9e-4,-0.18268 -0.0304,-0.1905 -0.72544,-0.1905 h -0.72486 l 0.0479,0.35983 c 0.0263,0.19791 0.21959,1.94099 0.42942,3.8735 0.20983,1.93252 0.40189,3.64702 0.4268,3.81 l 0.0453,0.29634 h 0.50414 c 0.50383,0 0.50413,-1.7e-4 0.50355,-0.254 z M 109.04,153.3877 v -1.20951 l -0.35983,-0.16135 c -0.19791,-0.0887 -0.48836,-0.2465 -0.64545,-0.35058 -0.26766,-0.17735 -0.2827,-0.17899 -0.23931,-0.0262 0.0255,0.0897 0.0693,0.6203 0.0975,1.1791 0.0282,0.5588 0.0714,1.18745 0.0962,1.397 l 0.045,0.381 h 0.50296 0.50297 z m 1.63918,0.40517 c 0.0293,-0.44238 0.0535,-0.96065 0.0537,-1.15171 l 4.3e-4,-0.34738 h -0.59267 -0.59267 l 4.3e-4,0.34738 c 2.5e-4,0.19106 0.0244,0.70933 0.0537,1.15171 l 0.0533,0.80434 h 0.48524 0.48524 z m 1.61308,0.42334 c 0.0247,-0.20955 0.068,-0.8382 0.0962,-1.397 0.0282,-0.5588 0.072,-1.0894 0.0975,-1.1791 0.0434,-0.15284 0.0283,-0.1512 -0.23932,0.0262 -0.15709,0.10408 -0.44754,0.26185 -0.64544,0.35058 l -0.35984,0.16135 v 1.20951 1.20951 h 0.50297 0.50296 z m -1.22582,-2.58828 c 0.66427,-0.1874 1.11191,-0.51435 1.34434,-0.98188 0.28136,-0.56596 0.19884,-0.92705 -0.32974,-1.44284 -0.48232,-0.47066 -1.08811,-0.68429 -1.94037,-0.68429 -0.85227,0 -1.45806,0.21363 -1.94038,0.68429 -0.5286,0.51581 -0.61104,0.87671 -0.32974,1.44349 0.44688,0.90037 1.90052,1.34668 3.19589,0.98123 z m -2.46625,-3.35855 c 0.34728,-0.15362 0.36958,-0.18284 0.3218,-0.4217 -0.0282,-0.14115 -0.0513,-0.55668 -0.0513,-0.92339 v -0.66675 h -0.7264 -0.72639 l 0.0456,0.23283 c 0.0251,0.12806 0.0711,0.73733 0.10222,1.35394 l 0.0567,1.1211 0.30238,-0.26549 c 0.1663,-0.14602 0.47028,-0.33976 0.6755,-0.43054 z m 4.19118,-1.48267 0.0391,-0.52917 h -0.70992 -0.70991 v 0.66675 c 0,0.36671 -0.0226,0.77962 -0.0502,0.91757 -0.047,0.23528 -0.0219,0.26466 0.40685,0.47441 0.25136,0.12297 0.55015,0.32297 0.664,0.44443 l 0.20698,0.22084 0.057,-0.83284 c 0.0313,-0.45805 0.0746,-1.07095 0.0961,-1.36199 z m -1.97337,0.33866 v -0.86783 h -0.67733 -0.67734 v 0.86783 0.86784 h 0.67734 0.67733 z m -3.17798,-2.14264 c -0.10381,-0.16798 0.0453,-0.49168 0.31504,-0.68372 0.1816,-0.12931 0.39525,-0.19319 0.65596,-0.19612 0.36011,-0.004 0.38848,0.0116 0.41344,0.22848 0.0147,0.12806 -0.004,0.2377 -0.0423,0.24364 -0.038,0.006 -0.14532,0.0194 -0.23845,0.0298 -0.33072,0.0372 -0.55169,0.14236 -0.63807,0.30377 -0.0941,0.17585 -0.37506,0.22057 -0.46558,0.0741 z m 3.48636,-0.69908 c -0.14613,-0.34974 -0.2462,-0.41919 -0.68938,-0.47848 -0.29272,-0.0392 -0.33867,-0.074 -0.33867,-0.25696 0,-0.18477 0.0417,-0.21509 0.32839,-0.2386 0.41905,-0.0344 0.76125,0.10841 1.03248,0.43073 0.27429,0.32598 0.2612,0.76759 -0.024,0.80814 -0.14457,0.0206 -0.21476,-0.0396 -0.30886,-0.26483 z"
         id="path850" />
      <path
         style="fill:#a3a3a3;fill-opacity:1;stroke-width:0.0846667"
         d="m 105.95317,155.06855 c -0.0274,-0.0443 -0.26721,-2.0428 -0.53293,-4.44107 -0.46862,-4.22955 -0.4889,-4.36311 -0.67535,-4.44806 -0.3508,-0.15983 -0.17775,-0.51455 0.25102,-0.51455 0.21919,0 0.2316,-0.0158 0.14289,-0.18154 -0.14864,-0.27773 -0.0374,-0.81507 0.24045,-1.16109 0.13617,-0.1696 0.27378,-0.44833 0.30579,-0.6194 0.12282,-0.65632 1.23829,-1.25068 1.23829,-0.65981 0,0.0938 -0.1049,0.21641 -0.24886,0.29085 -0.32858,0.16992 -0.51314,0.44599 -0.51314,0.76758 0,0.18984 -0.0667,0.31085 -0.24307,0.44128 -0.29069,0.21492 -0.36287,0.50591 -0.21357,0.86098 l 0.1098,0.26115 h 4.31172 c 4.72105,0 4.50521,0.024 4.52018,-0.50238 0.009,-0.31588 -0.21098,-0.57755 -0.56184,-0.66838 -0.14349,-0.0371 -0.30518,-0.15626 -0.35933,-0.26469 -0.0541,-0.10844 -0.19702,-0.28856 -0.3175,-0.40028 -0.13458,-0.12479 -0.21905,-0.29406 -0.21905,-0.43893 0,-0.48322 -0.65289,-0.7772 -1.05335,-0.47431 -0.23798,0.18 -0.46399,0.15268 -0.5477,-0.0662 -0.11039,-0.28865 -0.35659,-0.47053 -0.67869,-0.50138 -0.21998,-0.0211 -0.32373,-0.0892 -0.42934,-0.28179 -0.19475,-0.3552 -0.49836,-0.48982 -0.83781,-0.37149 -0.14668,0.0511 -0.30533,0.16516 -0.35255,0.2534 -0.0542,0.10118 -0.17708,0.16042 -0.33289,0.16042 -0.50284,0 -0.67656,0.15547 -0.88169,0.78911 -0.0806,0.24882 -0.42578,0.15083 -0.45816,-0.13005 -0.0627,-0.54409 0.51038,-1.16706 1.07367,-1.16706 0.14584,0 0.26517,-0.0373 0.26517,-0.0829 0,-0.12138 0.63467,-0.42506 0.88835,-0.42506 0.31855,0 0.75293,0.20347 0.93894,0.4398 0.0893,0.11347 0.29465,0.2524 0.45631,0.30873 0.16166,0.0563 0.39037,0.19481 0.50825,0.30774 0.18031,0.17275 0.26131,0.19506 0.5104,0.14057 0.63546,-0.139 1.24683,0.20996 1.45057,0.82796 0.11649,0.35335 0.49266,0.85386 0.64174,0.85387 0.1915,0 0.69051,0.51467 0.78933,0.81408 0.054,0.16369 0.0737,0.42849 0.0437,0.58844 -0.0495,0.26415 -0.0363,0.29081 0.14402,0.29081 0.39294,0 0.54067,0.36368 0.20909,0.51476 -0.18638,0.0849 -0.20643,0.2111 -0.61383,3.86306 -0.35671,3.19756 -0.44359,3.78933 -0.56774,3.86713 -0.11102,0.0696 -0.17555,0.0614 -0.26602,-0.0337 -0.10303,-0.1083 -0.0629,-0.63196 0.29203,-3.80856 0.22631,-2.02565 0.41279,-3.7211 0.41439,-3.76767 0.002,-0.0521 -0.27397,-0.0741 -0.71696,-0.0573 -0.60594,0.0231 -0.71995,0.0498 -0.72045,0.16934 -3.4e-4,0.0781 -0.11436,1.81834 -0.25341,3.86728 -0.13906,2.04893 -0.25309,3.86672 -0.25341,4.03953 l -6e-4,0.31421 0.74084,0.0245 c 0.72725,0.024 0.74083,0.0283 0.74083,0.23613 v 0.21167 l -4.16435,0.022 c -2.56929,0.0135 -4.18342,-0.009 -4.21414,-0.0586 z m 1.47758,-0.74651 c -3.4e-4,-0.17463 -0.11436,-1.9939 -0.25342,-4.04283 -0.13905,-2.04894 -0.25309,-3.78921 -0.25341,-3.86728 -5.1e-4,-0.11949 -0.11451,-0.14628 -0.72045,-0.16934 -0.39593,-0.0151 -0.71978,-0.0105 -0.71967,0.01 5.9e-4,0.11877 0.85629,7.88429 0.89381,8.11174 0.0453,0.27456 0.0465,0.27517 0.54956,0.27517 h 0.50416 l -5.9e-4,-0.3175 z m 1.60925,-0.91449 v -1.23198 l -0.3175,-0.13101 c -0.17463,-0.072 -0.44383,-0.22635 -0.59823,-0.3429 -0.1544,-0.11654 -0.29073,-0.19851 -0.30296,-0.18217 -0.0176,0.0235 0.17219,3.01672 0.19644,3.09888 0.003,0.0116 0.23485,0.0212 0.51425,0.0212 h 0.508 z m 1.63815,0.66049 c 0.0297,-0.31433 0.0542,-0.84773 0.0546,-1.18533 l 6e-4,-0.61384 h -0.59266 -0.59267 v 0.53756 c 0,0.29566 0.0246,0.82906 0.0548,1.18534 l 0.0547,0.64777 h 0.48334 0.48333 z m 1.58543,0.55033 c 0.0242,-0.0822 0.214,-3.07542 0.19644,-3.09888 -0.0122,-0.0163 -0.14856,0.0656 -0.30296,0.18217 -0.1544,0.11655 -0.4236,0.27085 -0.59823,0.3429 l -0.3175,0.13101 v 1.23198 1.23199 h 0.508 c 0.2794,0 0.51081,-0.01 0.51425,-0.0212 z m -1.11186,-3.01876 c 0.66832,-0.208 1.08397,-0.53028 1.2928,-1.00239 0.22556,-0.50991 0.1495,-0.86709 -0.28502,-1.33849 -0.47565,-0.51602 -1.08004,-0.73652 -2.01883,-0.73652 -0.9388,0 -1.54319,0.2205 -2.01884,0.73652 -0.43452,0.4714 -0.51058,0.82858 -0.28502,1.33849 0.42101,0.95178 1.97131,1.42057 3.31491,1.00239 z m -2.54976,-3.33101 0.37489,-0.16584 -0.0524,-0.43578 c -0.0288,-0.23967 -0.0526,-0.66437 -0.0529,-0.94377 l -5.1e-4,-0.508 -0.72808,0.0276 -0.72807,0.0276 0.0455,0.26871 c 0.025,0.14779 0.0714,0.75442 0.10305,1.34805 l 0.0575,1.07934 0.30303,-0.26606 c 0.16666,-0.14633 0.47173,-0.34068 0.67792,-0.43189 z m 4.19417,-1.43349 0.043,-0.56544 -0.71443,-0.0272 -0.71443,-0.0272 -5.1e-4,0.508 c -2.5e-4,0.2794 -0.0238,0.70134 -0.0522,0.93765 l -0.0516,0.42966 0.45921,0.22467 c 0.25257,0.12357 0.55236,0.32405 0.66621,0.4455 l 0.20698,0.22083 0.0574,-0.79049 c 0.0316,-0.43477 0.0768,-1.04494 0.1004,-1.35592 z m -1.97813,0.29026 v -0.86783 h -0.67733 -0.67734 v 0.86783 0.86784 h 0.67734 0.67733 z m -3.19081,-2.19082 c -0.13732,-0.35787 0.54263,-0.90205 1.07414,-0.85965 0.23421,0.0187 0.30202,0.0637 0.32344,0.21452 0.0275,0.19359 -0.008,0.21921 -0.43649,0.31347 -0.13202,0.0291 -0.32689,0.14654 -0.43304,0.26107 -0.22195,0.2395 -0.45146,0.27018 -0.52805,0.0706 z m 3.49919,-0.6509 c -0.14613,-0.34974 -0.2462,-0.41919 -0.68938,-0.47848 -0.29272,-0.0392 -0.33867,-0.074 -0.33867,-0.25696 0,-0.18803 0.0397,-0.21455 0.35508,-0.23747 0.20819,-0.0151 0.46366,0.0303 0.61757,0.10994 0.52684,0.27244 0.78383,1.06813 0.36426,1.1278 -0.14457,0.0206 -0.21476,-0.0396 -0.30886,-0.26483 z"
         id="path848" />
      <path
         style="fill:#8c8c8c;fill-opacity:1;stroke-width:0.0846667"
         d="m 106.01374,155.0781 c -0.0706,-0.0448 -0.26384,-1.51006 -0.58707,-4.45172 -0.47286,-4.30324 -0.48548,-4.38626 -0.67792,-4.45943 -0.3579,-0.13607 -0.18142,-0.50208 0.24209,-0.50208 0.2204,0 0.22957,-0.0142 0.14789,-0.22903 -0.12708,-0.33424 -0.0132,-0.83254 0.25619,-1.12091 0.12931,-0.13843 0.2579,-0.39209 0.28574,-0.56368 0.0811,-0.49969 0.71051,-1.03787 1.07757,-0.92137 0.26693,0.0847 0.20049,0.36553 -0.123,0.51978 -0.31515,0.15029 -0.4739,0.4134 -0.4739,0.78546 0,0.16399 -0.0684,0.2851 -0.21544,0.38144 -0.31446,0.20604 -0.40212,0.5015 -0.25399,0.85603 l 0.12213,0.29228 h 4.31195 c 4.74104,0 4.53024,0.0239 4.53024,-0.5132 0,-0.30645 -0.30637,-0.65338 -0.60818,-0.68868 -0.12899,-0.0151 -0.26075,-0.10706 -0.31758,-0.22168 -0.0534,-0.10775 -0.19718,-0.30033 -0.31946,-0.42797 -0.12228,-0.12764 -0.22233,-0.32811 -0.22233,-0.44551 0,-0.46139 -0.67444,-0.75145 -1.06332,-0.45732 -0.26686,0.20184 -0.44195,0.15243 -0.59379,-0.16755 -0.1353,-0.28511 -0.2414,-0.34493 -0.70717,-0.39872 -0.12603,-0.0146 -0.25908,-0.12175 -0.34467,-0.2777 -0.19897,-0.36255 -0.53478,-0.51035 -0.85662,-0.37704 -0.138,0.0572 -0.28889,0.1749 -0.33532,0.26165 -0.0599,0.11197 -0.17907,0.15772 -0.41071,0.15772 -0.40109,0 -0.65082,0.19779 -0.74833,0.59267 -0.0587,0.23756 -0.11408,0.29633 -0.27946,0.29633 -0.188,0 -0.20559,-0.0325 -0.1985,-0.3662 0.0101,-0.47414 0.42387,-0.92378 0.92501,-1.0051 0.18274,-0.0296 0.40625,-0.12286 0.4967,-0.20713 0.23856,-0.22225 0.69725,-0.35146 1.02762,-0.28949 0.16454,0.0309 0.44068,0.19708 0.64691,0.38939 0.1979,0.18454 0.42526,0.33553 0.50524,0.33553 0.08,0 0.26524,0.10083 0.41169,0.22406 0.2281,0.19193 0.34965,0.22532 0.84767,0.23284 0.52261,0.008 0.60777,0.0341 0.84224,0.25874 0.14346,0.13748 0.29783,0.38513 0.34304,0.55033 0.0913,0.33358 0.6002,0.93537 0.79101,0.93537 0.18042,0 0.62303,0.53982 0.68904,0.84037 0.0314,0.14316 0.0321,0.37459 10e-4,0.51429 -0.0498,0.22669 -0.0341,0.254 0.14567,0.254 0.39052,0 0.55148,0.37486 0.21416,0.49877 -0.18452,0.0678 -0.20377,0.18887 -0.61383,3.86165 -0.36733,3.29011 -0.44359,3.80408 -0.57646,3.88546 -0.12041,0.0737 -0.1758,0.0633 -0.25929,-0.0488 -0.0865,-0.11622 -0.0315,-0.80616 0.29673,-3.72534 0.22159,-1.97048 0.40494,-3.66842 0.40746,-3.7732 0.004,-0.18297 -0.0239,-0.1905 -0.71511,-0.1905 -0.62872,0 -0.71974,0.0187 -0.72025,0.14817 -3.4e-4,0.0815 -0.11436,1.82457 -0.25341,3.8735 -0.13906,2.04893 -0.25309,3.88577 -0.25342,4.08187 l -5.9e-4,0.35654 0.73988,0.0245 c 0.6461,0.0214 0.74374,0.0446 0.77033,0.18365 0.0167,0.0875 -0.0209,0.19175 -0.0837,0.23154 -0.14362,0.091 -8.11973,0.0963 -8.26275,0.006 z m 1.41701,-0.79839 c -3.4e-4,-0.19791 -0.11436,-2.03624 -0.25342,-4.08517 -0.13905,-2.04893 -0.25309,-3.79201 -0.25341,-3.8735 -5.1e-4,-0.12944 -0.0915,-0.14817 -0.72025,-0.14817 -0.54671,0 -0.71967,0.0274 -0.71967,0.11398 0,0.16672 0.83866,7.75308 0.89295,8.07752 0.0459,0.27448 0.0473,0.27517 0.55022,0.27517 h 0.50416 l -5.9e-4,-0.35983 z m 1.60925,-0.90344 v -1.26328 l -0.2491,-0.0547 c -0.137,-0.0301 -0.40724,-0.16927 -0.60054,-0.30929 -0.19329,-0.14002 -0.3615,-0.24226 -0.37379,-0.22719 -0.0186,0.0228 0.17528,3.03149 0.19954,3.09657 0.004,0.0116 0.23649,0.0212 0.51589,0.0212 h 0.508 z m 1.63847,0.81877 c 0.0294,-0.24448 0.0537,-0.77788 0.0541,-1.18533 l 7.3e-4,-0.74084 h -0.59266 -0.59267 l 7.6e-4,0.74084 c 4.2e-4,0.40745 0.0248,0.94085 0.0541,1.18533 l 0.0534,0.4445 h 0.48441 0.48442 l 0.0534,-0.4445 z m 1.58593,0.42333 c 0.0284,-0.0851 0.22209,-3.07558 0.20068,-3.09888 -0.015,-0.0163 -0.15362,0.0648 -0.30802,0.1803 -0.1544,0.11551 -0.4236,0.26036 -0.59823,0.32189 l -0.3175,0.11188 v 1.25299 1.25299 h 0.508 c 0.2794,0 0.51118,-0.01 0.51507,-0.0212 z m -1.12684,-2.98667 c 0.96402,-0.28628 1.59705,-1.10631 1.38931,-1.79969 -0.23878,-0.79696 -1.1778,-1.31409 -2.3862,-1.31409 -1.2084,0 -2.14743,0.51713 -2.38621,1.31409 -0.20173,0.67333 0.36692,1.4452 1.30289,1.76848 0.55531,0.19181 1.49209,0.20587 2.08021,0.0312 z m -2.61517,-3.30402 0.45605,-0.22799 -0.0539,-0.63752 c -0.0296,-0.35063 -0.0539,-0.78416 -0.0539,-0.9634 v -0.3259 h -0.72943 -0.72942 l 0.0495,0.4445 c 0.0272,0.24448 0.0748,0.87542 0.10564,1.40209 l 0.0561,0.95759 0.22161,-0.21068 c 0.12189,-0.11588 0.42684,-0.31329 0.67767,-0.43869 z m 4.27507,-1.41397 0.0535,-0.74084 h -0.72016 -0.72016 v 0.3259 c 0,0.17924 -0.0243,0.61363 -0.0541,0.96531 l -0.0541,0.63943 0.47396,0.23207 c 0.26067,0.12765 0.56122,0.32521 0.66788,0.43903 l 0.19393,0.20695 0.0528,-0.66351 c 0.029,-0.36493 0.0769,-0.99689 0.10633,-1.40434 z m -1.96676,0.29633 c 0.007,-0.43074 0.0165,-0.83079 0.0212,-0.889 0.006,-0.077 -0.1874,-0.10583 -0.7112,-0.10583 -0.52381,0 -0.71737,0.0288 -0.7112,0.10583 0.005,0.0582 0.0142,0.45826 0.0212,0.889 l 0.0127,0.78317 h 0.67734 0.67733 z m -3.20161,-2.27055 c -0.0787,-0.20502 0.12517,-0.50459 0.47846,-0.70315 0.47622,-0.26765 0.93245,-0.22578 0.93245,0.0856 0,0.16691 -0.0365,0.18958 -0.45172,0.28097 -0.13202,0.0291 -0.32689,0.14654 -0.43304,0.26107 -0.21996,0.23735 -0.45131,0.27056 -0.52615,0.0755 z m 3.56339,-0.58279 c -0.0752,-0.29976 -0.42525,-0.55449 -0.7619,-0.55449 -0.31701,0 -0.40967,-0.0947 -0.33201,-0.33943 0.0725,-0.22837 0.66016,-0.22989 1.03282,-0.003 0.50322,0.30683 0.70519,1.03129 0.30344,1.08842 -0.14172,0.0202 -0.20091,-0.0267 -0.24235,-0.19184 z"
         id="path846" />
      <path
         style="fill:#767676;fill-opacity:1;stroke-width:0.0846667"
         d="m 106.01772,155.08056 c -0.0653,-0.0415 -0.27459,-1.62557 -0.58883,-4.45616 -0.42646,-3.84161 -0.50585,-4.39656 -0.63369,-4.42999 -0.37248,-0.0974 -0.22294,-0.52954 0.18324,-0.52954 0.22966,0 0.23341,-0.008 0.14597,-0.29241 -0.0718,-0.23402 -0.06,-0.37022 0.0591,-0.68213 0.0819,-0.21435 0.22106,-0.43483 0.30933,-0.48996 0.091,-0.0568 0.1605,-0.19598 0.1605,-0.32134 0,-0.48148 0.76297,-1.18461 1.13182,-1.04306 0.23154,0.0888 0.15937,0.35827 -0.13698,0.51141 -0.36974,0.19105 -0.48094,0.35506 -0.48415,0.71407 -0.002,0.23228 -0.0586,0.34295 -0.2462,0.48161 -0.31219,0.23082 -0.39118,0.54096 -0.22138,0.86931 l 0.13137,0.25404 4.33547,-0.0219 4.33546,-0.0219 0.11224,-0.2342 c 0.0617,-0.1288 0.0878,-0.31107 0.058,-0.40503 -0.0795,-0.25055 -0.38328,-0.50377 -0.60431,-0.50377 -0.11444,0 -0.23245,-0.0774 -0.29053,-0.1905 -0.0538,-0.10478 -0.20112,-0.3048 -0.3274,-0.4445 -0.12627,-0.1397 -0.234,-0.34467 -0.2394,-0.45549 -0.0236,-0.48508 -0.68602,-0.77804 -1.082,-0.47854 -0.26526,0.20064 -0.46009,0.15666 -0.55866,-0.12609 -0.10332,-0.29637 -0.29636,-0.42155 -0.6501,-0.42155 -0.19755,0 -0.28871,-0.0636 -0.42681,-0.29763 -0.22022,-0.37325 -0.54242,-0.51005 -0.87592,-0.37191 -0.13292,0.055 -0.27965,0.17107 -0.32608,0.25782 -0.0599,0.11197 -0.17907,0.15772 -0.41071,0.15772 -0.40976,0 -0.67911,0.21147 -0.75749,0.59471 -0.049,0.23984 -0.0987,0.29429 -0.26839,0.29429 -0.15396,0 -0.21551,-0.0517 -0.2363,-0.19854 -0.0684,-0.483 0.43065,-1.0877 0.96739,-1.17223 0.1819,-0.0286 0.43458,-0.13828 0.56152,-0.24365 0.49935,-0.41446 1.10059,-0.36095 1.58804,0.14133 0.17619,0.18155 0.39808,0.33009 0.49309,0.33009 0.095,0 0.29728,0.10478 0.44948,0.23284 0.23875,0.20087 0.33733,0.22892 0.71809,0.20436 0.65396,-0.0422 1.15236,0.27396 1.30427,0.82729 0.0913,0.33263 0.47394,0.76443 0.93123,1.05091 0.40968,0.25666 0.61322,0.67771 0.54854,1.13477 -0.048,0.33889 -0.0389,0.35983 0.15557,0.35983 0.38281,0 0.50908,0.43669 0.15318,0.52976 -0.12869,0.0337 -0.19808,0.50658 -0.55709,3.79717 -0.26199,2.40128 -0.44903,3.80114 -0.51791,3.87615 -0.17418,0.18966 -0.37498,0.0488 -0.37479,-0.26292 9e-5,-0.1528 0.17154,-1.8392 0.381,-3.74755 0.20946,-1.90835 0.38083,-3.51807 0.38083,-3.57717 0,-0.0784 -0.19463,-0.10744 -0.71966,-0.10744 -0.51898,0 -0.71983,0.0295 -0.72026,0.10584 -3.4e-4,0.0582 -0.11436,1.78223 -0.25341,3.83116 -0.13906,2.04894 -0.25309,3.90483 -0.25341,4.12421 l -6e-4,0.39887 0.73988,0.0245 c 0.6461,0.0214 0.74374,0.0446 0.77033,0.18365 0.0167,0.0875 -0.0209,0.19175 -0.0837,0.23154 -0.14115,0.0894 -8.1185,0.0971 -8.25878,0.008 z m 1.41303,-0.84319 c -3.4e-4,-0.22119 -0.11436,-2.07856 -0.25342,-4.1275 -0.13905,-2.04893 -0.25309,-3.77296 -0.25341,-3.83116 -4.2e-4,-0.0763 -0.20128,-0.10584 -0.72025,-0.10584 -0.51926,0 -0.71969,0.0295 -0.71973,0.10584 -9e-5,0.1924 0.85068,7.97589 0.89308,8.17033 0.0374,0.17169 0.0915,0.1905 0.54793,0.1905 h 0.50638 l -5.9e-4,-0.40217 z m 1.60925,-0.85082 v -1.25299 l -0.28833,-0.10426 c -0.15858,-0.0574 -0.42975,-0.20023 -0.60259,-0.31753 -0.17285,-0.1173 -0.32431,-0.20186 -0.33657,-0.18792 -0.0317,0.0361 0.12752,2.69576 0.17516,2.92519 0.0357,0.17191 0.089,0.1905 0.54594,0.1905 H 109.04 Z m 1.63997,1.06249 c 0.0281,-0.10478 0.0516,-0.63818 0.0522,-1.18533 l 0.001,-0.99484 h -0.59266 -0.59267 l 0.001,0.99484 c 0.002,1.38974 -0.004,1.37583 0.59151,1.37583 0.43476,0 0.49384,-0.0209 0.5393,-0.1905 z m 1.61284,0 c 0.0501,-0.24667 0.21182,-2.89189 0.17883,-2.92519 -0.0138,-0.0139 -0.16654,0.0706 -0.33939,0.18792 -0.17284,0.1173 -0.44401,0.26018 -0.60259,0.31753 l -0.28833,0.10426 v 1.25299 1.25299 h 0.50639 c 0.45723,0 0.51014,-0.0185 0.54509,-0.1905 z m -0.75053,-2.98805 c 0.56799,-0.29225 0.95456,-0.73057 1.02452,-1.16168 0.10729,-0.66109 -0.54579,-1.42369 -1.44746,-1.69019 -0.4972,-0.14696 -1.62321,-0.11852 -2.07934,0.0525 -0.59211,0.22202 -0.99313,0.54321 -1.19255,0.95516 -0.22134,0.45724 -0.18128,0.84899 0.12836,1.25494 0.47502,0.62278 1.20762,0.89727 2.30479,0.86354 0.66508,-0.0205 0.84393,-0.0593 1.26168,-0.27427 z m -2.99821,-3.13523 c 0.46493,-0.2356 0.46411,-0.23215 0.3565,-1.50511 l -0.0547,-0.64778 h -0.71711 -0.7171 l 0.0503,0.52917 c 0.0276,0.29104 0.075,0.91899 0.10533,1.39544 l 0.0551,0.86628 0.25527,-0.2148 c 0.1404,-0.11814 0.44034,-0.30858 0.66654,-0.4232 z m 4.25682,-1.36972 0.0552,-0.78317 h -0.71028 -0.71029 l -0.0547,0.64778 c -0.10948,1.29504 -0.12123,1.2542 0.44851,1.55787 0.2768,0.14753 0.57208,0.34448 0.65617,0.43767 0.16937,0.18769 0.17239,0.16985 0.31545,-1.86015 z m -1.963,0.1905 c 0.0208,-0.46567 0.0226,-0.87524 0.004,-0.91017 -0.0186,-0.0349 -0.33419,-0.0635 -0.70122,-0.0635 -0.36704,0 -0.68259,0.0286 -0.70123,0.0635 -0.0186,0.0349 -0.0168,0.4445 0.004,0.91017 l 0.0379,0.84667 h 0.65934 0.65934 l 0.0379,-0.84667 z m -3.18078,-2.13078 c -0.12957,-0.12957 -0.0385,-0.36513 0.2336,-0.60401 0.47878,-0.42037 1.18967,-0.46771 1.13306,-0.0755 -0.02,0.13835 -0.11105,0.19759 -0.38745,0.25201 -0.23872,0.047 -0.40722,0.14117 -0.49657,0.27752 -0.12932,0.19737 -0.36271,0.26987 -0.48264,0.14994 z m 3.60363,-0.55068 c -0.0572,-0.0572 -0.10407,-0.15084 -0.10407,-0.208 0,-0.18069 -0.43522,-0.45487 -0.72203,-0.45487 -0.17666,0 -0.29486,-0.0495 -0.32871,-0.13773 -0.14108,-0.36766 0.53627,-0.50265 1.02546,-0.20437 0.30976,0.18888 0.55591,0.60581 0.51725,0.87613 -0.0304,0.21224 -0.23615,0.28059 -0.3879,0.12884 z"
         id="path844" />
      <path
         style="fill:#606060;fill-opacity:1;stroke-width:0.0846667"
         d="m 106.00679,155.03836 c -0.0498,-0.0601 -0.30932,-2.07935 -0.57664,-4.48733 -0.43061,-3.87885 -0.5025,-4.37816 -0.63037,-4.37816 -0.18477,0 -0.27904,-0.24051 -0.15354,-0.39173 0.0531,-0.064 0.20208,-0.11627 0.33112,-0.11627 0.23054,0 0.23317,-0.006 0.15098,-0.32956 -0.0689,-0.2715 -0.0532,-0.39848 0.0894,-0.72067 0.0951,-0.2151 0.2321,-0.41378 0.30432,-0.44149 0.0745,-0.0286 0.13132,-0.15093 0.13132,-0.28281 0,-0.52314 0.84109,-1.27003 1.1456,-1.01731 0.20525,0.17034 0.14281,0.32368 -0.20382,0.50052 -0.35774,0.1825 -0.43378,0.30601 -0.43378,0.70458 0,0.19127 -0.0732,0.32319 -0.27093,0.48826 -0.21165,0.1767 -0.27093,0.2921 -0.27093,0.52742 0,0.60346 -0.25699,0.57106 4.52961,0.57106 h 4.30568 l 0.13829,-0.21105 c 0.246,-0.37545 -0.0694,-0.97428 -0.51321,-0.97428 -0.15022,0 -0.24929,-0.077 -0.35016,-0.27202 -0.0774,-0.14962 -0.23162,-0.34357 -0.34279,-0.43101 -0.11117,-0.0874 -0.19673,-0.20316 -0.19014,-0.25715 0.0721,-0.59088 -0.59439,-0.96964 -1.0714,-0.60885 -0.25582,0.19349 -0.43061,0.15271 -0.54669,-0.12754 -0.1215,-0.29333 -0.29706,-0.40886 -0.691,-0.45472 -0.15143,-0.0176 -0.29244,-0.0834 -0.31334,-0.14607 -0.0209,-0.0627 -0.1476,-0.22361 -0.28155,-0.35756 -0.20173,-0.20173 -0.29023,-0.23456 -0.51533,-0.19116 -0.14948,0.0288 -0.34941,0.14758 -0.44429,0.2639 -0.126,0.15449 -0.25473,0.21151 -0.47745,0.21151 -0.38782,0 -0.65936,0.21937 -0.73612,0.59471 -0.049,0.23984 -0.0987,0.29429 -0.26839,0.29429 -0.16976,0 -0.21244,-0.0469 -0.23122,-0.254 -0.0448,-0.49399 0.57294,-1.14194 1.08941,-1.14268 0.12084,-1.7e-4 0.28897,-0.0769 0.37361,-0.17038 0.0847,-0.0935 0.29885,-0.21349 0.47601,-0.26657 0.41535,-0.12444 1.00732,0.0832 1.26369,0.44323 0.11082,0.15563 0.25146,0.2474 0.37913,0.2474 0.11162,0 0.3281,0.10972 0.48107,0.24382 0.2481,0.21751 0.32455,0.23933 0.70859,0.20224 0.30282,-0.0292 0.51107,9e-5 0.70224,0.099 0.27614,0.1428 0.60119,0.57875 0.60368,0.80965 0.002,0.14332 0.62573,0.84667 0.75137,0.84667 0.0449,0 0.19807,0.098 0.34047,0.21784 0.31761,0.26726 0.48039,0.78988 0.35661,1.14495 -0.0814,0.2336 -0.0738,0.24587 0.15352,0.24587 0.13158,0 0.28265,0.0523 0.33572,0.11627 0.12587,0.15166 0.031,0.39173 -0.15475,0.39173 -0.12923,0 -0.19218,0.42368 -0.56155,3.77921 -0.2288,2.07857 -0.45852,3.83736 -0.51049,3.90842 -0.15635,0.21384 -0.37297,0.0598 -0.37297,-0.26515 0,-0.15813 0.17145,-1.82184 0.381,-3.69714 0.20955,-1.8753 0.381,-3.48067 0.381,-3.56749 0,-0.14164 -0.0739,-0.15785 -0.71966,-0.15785 -0.62738,0 -0.7202,0.019 -0.72382,0.14817 -0.002,0.0815 -0.12725,1.96948 -0.2777,4.19552 -0.15046,2.22604 -0.25654,4.06437 -0.23574,4.08517 0.0208,0.0208 0.35651,0.0378 0.74602,0.0378 0.55407,0 0.71891,0.0279 0.75736,0.12808 0.027,0.0704 0.002,0.18474 -0.0554,0.254 -0.0898,0.10823 -0.67244,0.12592 -4.14777,0.12592 -3.19739,0 -4.06223,-0.0228 -4.13388,-0.10918 z m 1.43413,-0.43663 c 0.0208,-0.0208 -0.0853,-1.85913 -0.23574,-4.08517 -0.15045,-2.22604 -0.27542,-4.11403 -0.2777,-4.19552 -0.004,-0.12917 -0.0964,-0.14817 -0.72381,-0.14817 -0.51809,0 -0.7203,0.0297 -0.72193,0.10584 -0.004,0.16453 0.86341,8.13571 0.89778,8.255 0.0289,0.10017 0.969,0.16041 1.0614,0.068 z m 1.63295,-0.11036 c -0.005,-0.0582 -0.0143,-0.61066 -0.0215,-1.22766 l -0.013,-1.12184 -0.3875,-0.15937 c -0.21314,-0.0877 -0.50412,-0.2575 -0.64664,-0.37742 l -0.25913,-0.21804 0.0521,0.46208 c 0.0287,0.25415 0.077,0.95739 0.10736,1.56275 0.0304,0.60537 0.0728,1.13098 0.0942,1.16802 0.0665,0.1149 1.08365,0.0311 1.07409,-0.0885 z m 1.64068,-1.05833 0.0236,-1.16417 h -0.59506 -0.59505 v 1.12889 c 0,0.62089 0.027,1.1559 0.06,1.18892 0.033,0.033 0.29019,0.0489 0.5715,0.0353 l 0.51148,-0.0247 z m 1.64136,0.27517 c 0.0309,-0.48895 0.081,-1.20876 0.11123,-1.59957 l 0.055,-0.71057 -0.25257,0.21253 c -0.13891,0.11688 -0.42519,0.28392 -0.63617,0.37118 l -0.38361,0.15866 -0.0254,1.18605 c -0.014,0.65233 -0.0125,1.21636 0.003,1.2534 0.0157,0.037 0.26335,0.0561 0.55034,0.0423 l 0.52179,-0.025 z M 111.453,151.5183 c 0.72092,-0.32329 1.143,-0.85189 1.143,-1.43146 0,-0.13208 -0.11088,-0.41499 -0.2464,-0.62868 -0.19344,-0.30502 -0.37008,-0.44941 -0.82185,-0.67182 -0.5313,-0.26156 -0.63772,-0.28329 -1.38708,-0.28329 -0.74937,0 -0.85578,0.0217 -1.38709,0.28329 -1.5802,0.77793 -1.36405,2.2737 0.41342,2.86087 0.52759,0.17428 1.76557,0.10447 2.286,-0.12891 z m -2.90893,-3.19254 0.41126,-0.20841 -7.6e-4,-0.52774 c -4.2e-4,-0.29025 -0.0248,-0.72776 -0.0541,-0.97224 l -0.0534,-0.4445 h -0.71782 -0.71782 l 0.0509,0.61384 c 0.028,0.3376 0.0754,0.96555 0.10541,1.39544 l 0.0545,0.7816 0.25527,-0.21479 c 0.1404,-0.11814 0.44034,-0.30858 0.66653,-0.4232 z m 4.25616,-1.28505 0.0575,-0.86784 h -0.71175 -0.71175 l -0.0534,0.4445 c -0.0294,0.24448 -0.0536,0.69215 -0.0538,0.99484 l -4.2e-4,0.55033 0.36498,0.15006 c 0.20074,0.0825 0.49587,0.25963 0.65585,0.39355 l 0.29087,0.24349 0.0522,-0.52055 c 0.0287,-0.2863 0.0781,-0.91108 0.10971,-1.38838 z m -1.95037,0.12031 c 0.03,-0.45771 0.0328,-0.86728 0.006,-0.91017 -0.0265,-0.0429 -0.3485,-0.078 -0.71553,-0.078 -0.36704,0 -0.68903,0.0351 -0.71554,0.078 -0.0265,0.0429 -0.0236,0.45246 0.006,0.91017 l 0.0545,0.83219 h 0.65465 0.65466 l 0.0545,-0.83219 z m -3.19275,-2.14526 c -0.12957,-0.12957 -0.0385,-0.36513 0.2336,-0.60401 0.47878,-0.42037 1.18967,-0.46771 1.13306,-0.0755 -0.02,0.13835 -0.11105,0.19759 -0.38745,0.25201 -0.23872,0.047 -0.40722,0.14117 -0.49657,0.27752 -0.12932,0.19737 -0.36271,0.26987 -0.48264,0.14994 z m 3.60363,-0.55068 c -0.0572,-0.0572 -0.10407,-0.15084 -0.10407,-0.208 0,-0.18069 -0.43522,-0.45487 -0.72203,-0.45487 -0.30396,0 -0.44702,-0.19659 -0.28507,-0.39173 0.23699,-0.28556 1.08134,-0.0198 1.3575,0.42728 0.27014,0.43733 0.0709,0.94459 -0.24633,0.62732 z"
         id="path842" />
      <path
         style="fill:#494949;fill-opacity:1;stroke-width:0.0846667"
         d="m 106.00594,155.03734 c -0.0697,-0.084 -1.02994,-8.25133 -1.02994,-8.76028 0,-0.0573 -0.0721,-0.10419 -0.16028,-0.10419 -0.0881,0 -0.18178,-0.056 -0.20807,-0.12455 -0.0647,-0.16855 0.16556,-0.38345 0.41082,-0.38345 0.18435,0 0.19374,-0.0208 0.12213,-0.27049 -0.1007,-0.35112 0.0259,-0.82162 0.30097,-1.11841 0.11647,-0.12567 0.21176,-0.31614 0.21176,-0.42327 0,-0.49041 0.85457,-1.2212 1.1456,-0.97967 0.20163,0.16734 0.14407,0.32602 -0.16512,0.45521 -0.33415,0.13961 -0.47248,0.35278 -0.47248,0.72809 0,0.19524 -0.0811,0.3417 -0.30711,0.5549 -0.2658,0.25067 -0.29991,0.32571 -0.2535,0.55774 0.10463,0.52314 -0.14523,0.4959 4.54836,0.4959 h 4.30568 l 0.13829,-0.21105 c 0.246,-0.37545 -0.0694,-0.97428 -0.51321,-0.97428 -0.15082,0 -0.2492,-0.0771 -0.35127,-0.27517 -0.078,-0.15134 -0.21231,-0.32495 -0.29851,-0.3858 -0.0862,-0.0608 -0.15673,-0.18656 -0.15673,-0.27937 0,-0.23567 -0.22073,-0.63744 -0.38479,-0.7004 -0.23683,-0.0909 -0.5924,-0.0575 -0.76319,0.0717 -0.25599,0.19362 -0.43063,0.15266 -0.547,-0.1283 -0.11437,-0.27609 -0.52962,-0.54568 -0.72503,-0.47069 -0.0653,0.025 -0.16664,-0.0145 -0.22519,-0.088 -0.56006,-0.7025 -0.84534,-0.7858 -1.26249,-0.36866 -0.17998,0.17998 -0.33573,0.254 -0.53444,0.254 -0.36484,0 -0.63641,0.22695 -0.71162,0.59471 -0.049,0.23984 -0.0987,0.29429 -0.26839,0.29429 -0.18545,0 -0.20717,-0.0343 -0.19881,-0.31437 0.005,-0.1729 0.0739,-0.41285 0.15277,-0.53321 0.1848,-0.28205 0.62391,-0.5487 0.90423,-0.5491 0.12084,-1.7e-4 0.28881,-0.0767 0.37328,-0.17001 0.0845,-0.0933 0.30561,-0.21063 0.49144,-0.26067 0.42854,-0.11539 0.99336,0.0785 1.24076,0.42596 0.0926,0.13003 0.27825,0.25839 0.41259,0.28526 0.13433,0.0269 0.35433,0.14146 0.48889,0.25464 0.20877,0.17561 0.3078,0.19972 0.67514,0.16439 0.30258,-0.0291 0.51122,3.4e-4 0.70224,0.0991 0.26829,0.13874 0.60201,0.57813 0.60263,0.79345 4.2e-4,0.16144 0.50735,0.76648 0.69097,0.82476 0.53396,0.16947 0.90509,0.84741 0.75341,1.37628 -0.0716,0.24969 -0.0622,0.27049 0.12213,0.27049 0.24526,0 0.4755,0.2149 0.41082,0.38345 -0.0263,0.0685 -0.11992,0.12455 -0.20807,0.12455 -0.0952,0 -0.16138,0.0602 -0.16298,0.14817 -0.012,0.65718 -0.82973,7.49147 -0.90545,7.56718 -0.15828,0.15829 -0.36185,0.0173 -0.36185,-0.25054 0,-0.13484 0.17145,-1.77951 0.381,-3.65481 0.20955,-1.8753 0.381,-3.49971 0.381,-3.60981 0,-0.19458 -0.0199,-0.20019 -0.71107,-0.20019 h -0.71108 l -0.0518,0.5715 c -0.0285,0.31433 -0.14564,2.03835 -0.26029,3.83117 -0.11466,1.79282 -0.22676,3.44064 -0.24911,3.66183 l -0.0406,0.40217 h 0.76067 c 0.60089,0 0.77099,0.0269 0.80981,0.12808 0.027,0.0704 0.002,0.18474 -0.0554,0.254 -0.0898,0.10823 -0.67244,0.12592 -4.14777,0.12592 -3.21685,0 -4.06196,-0.0225 -4.13473,-0.1102 z m 1.46144,-0.79997 c -0.0224,-0.22119 -0.13445,-1.86901 -0.24911,-3.66183 -0.11465,-1.79282 -0.23179,-3.51684 -0.26029,-3.83117 l -0.0518,-0.5715 h -0.71108 c -0.6809,0 -0.71108,0.008 -0.71127,0.1905 -2.6e-4,0.24865 0.85104,8.03205 0.89363,8.17034 0.0217,0.0704 0.21621,0.10583 0.58159,0.10583 h 0.549 z m 1.62696,0.0847 c -0.0289,-0.17463 -0.053,-0.7366 -0.0537,-1.24883 l -10e-4,-0.93134 -0.38751,-0.15937 c -0.21313,-0.0877 -0.50447,-0.2578 -0.64742,-0.37808 l -0.25991,-0.2187 0.053,0.58974 c 0.0292,0.32436 0.0759,1.00885 0.10388,1.52108 0.028,0.51223 0.0658,0.97896 0.084,1.03717 0.0222,0.0707 0.22016,0.10583 0.59727,0.10583 h 0.56407 l -0.0525,-0.3175 z m 1.62021,-0.889 0.0236,-1.16417 h -0.59506 -0.59505 v 1.12889 c 0,0.62089 0.027,1.1559 0.06,1.18892 0.033,0.033 0.29019,0.0489 0.5715,0.0353 l 0.51148,-0.0247 z m 1.6401,0.35983 c 0.0302,-0.44238 0.0801,-1.15567 0.11077,-1.58509 l 0.0558,-0.78076 -0.43802,0.29476 c -0.2409,0.16212 -0.52887,0.31756 -0.63993,0.34544 -0.19759,0.0496 -0.20194,0.0709 -0.20285,0.994 -5.1e-4,0.51882 -0.0249,1.08806 -0.0541,1.26496 l -0.0531,0.32163 0.58325,-0.0253 0.58325,-0.0253 z m -1.05299,-2.21389 c 0.61937,-0.22991 1.17158,-0.75661 1.25403,-1.19612 0.12483,-0.6654 -0.19711,-1.16945 -1.01256,-1.58532 -0.54585,-0.27837 -0.63084,-0.29633 -1.40246,-0.29633 -0.77163,0 -0.85662,0.018 -1.40247,0.29633 -1.10878,0.56546 -1.36567,1.44663 -0.64513,2.21289 0.67638,0.71929 2.11552,0.9743 3.20859,0.56855 z m -2.64398,-3.30049 0.29765,-0.10763 v -0.73441 c 0,-0.40393 -0.0238,-0.85347 -0.0529,-0.99899 l -0.0529,-0.26459 h -0.7191 -0.7191 l 0.0551,0.74084 c 0.0303,0.40745 0.0775,1.03235 0.10488,1.38865 l 0.0498,0.64782 0.36948,-0.28203 c 0.20321,-0.15512 0.50342,-0.33046 0.66713,-0.38966 z m 4.14543,-1.19545 0.0582,-0.91017 h -0.71474 -0.71475 l -0.0529,0.26459 c -0.0291,0.14552 -0.0528,0.59319 -0.0526,0.99483 l 3.3e-4,0.73025 0.36499,0.15006 c 0.20074,0.0825 0.49587,0.25964 0.65585,0.39356 l 0.29086,0.24351 0.0533,-0.47823 c 0.0293,-0.26303 0.0795,-0.88781 0.1115,-1.3884 z m -1.95351,0.28467 c 0.0292,-0.34524 0.0531,-0.75532 0.0531,-0.91128 v -0.28356 h -0.762 -0.762 v 0.28356 c 0,0.15596 0.0239,0.56604 0.0531,0.91128 l 0.0531,0.62772 h 0.65588 0.65587 z m -3.19249,-2.35195 c -0.13013,-0.13013 -0.0379,-0.36561 0.23808,-0.60794 0.36197,-0.31782 0.84755,-0.43115 1.03673,-0.24198 0.1945,0.1945 0.0745,0.39837 -0.23444,0.39837 -0.17953,0 -0.34391,0.0807 -0.51717,0.254 -0.24901,0.24901 -0.4107,0.31006 -0.5232,0.19755 z m 3.60363,-0.55068 c -0.0572,-0.0572 -0.10407,-0.14696 -0.10407,-0.19938 0,-0.18488 -0.39149,-0.46349 -0.65126,-0.46349 -0.32803,0 -0.51707,-0.19747 -0.36474,-0.381 0.37521,-0.45211 1.59792,0.28362 1.5089,0.90794 -0.0311,0.21832 -0.23513,0.28963 -0.38883,0.13593 z"
         id="path840" />
      <path
         style="fill:#333333;fill-opacity:1;stroke-width:0.0846667"
         d="m 106.01124,155.04171 c -0.0666,-0.0818 -1.03682,-8.29215 -1.03553,-8.763 1.7e-4,-0.0582 -0.0718,-0.10584 -0.15999,-0.10584 -0.0881,0 -0.17778,-0.0476 -0.19919,-0.10583 -0.0761,-0.20683 0.0389,-0.3175 0.3299,-0.3175 0.26341,0 0.28879,-0.0195 0.23714,-0.18224 -0.15199,-0.47887 0.004,-1.10096 0.34814,-1.38409 0.0565,-0.0466 0.12757,-0.22642 0.15789,-0.39968 0.0703,-0.40148 0.40931,-0.80603 0.75392,-0.89959 0.5071,-0.13769 0.67044,0.24368 0.19029,0.4443 -0.33415,0.13961 -0.47248,0.35278 -0.47248,0.72809 0,0.19346 -0.0802,0.34088 -0.29633,0.54473 -0.35752,0.33718 -0.38629,0.64289 -0.0885,0.94066 l 0.20782,0.20782 h 4.1888 c 3.69342,0 4.20452,-0.0157 4.32172,-0.13292 0.37704,-0.37704 0.19979,-0.94828 -0.34814,-1.12202 -0.26287,-0.0833 -0.37453,-0.17358 -0.43717,-0.35327 -0.0463,-0.13274 -0.16334,-0.28373 -0.26015,-0.33554 -0.0968,-0.0518 -0.17603,-0.17096 -0.17603,-0.26477 0,-0.23722 -0.22019,-0.63906 -0.38479,-0.70222 -0.23683,-0.0909 -0.5924,-0.0575 -0.76319,0.0717 -0.25599,0.19362 -0.43063,0.15266 -0.547,-0.1283 -0.11437,-0.27609 -0.52962,-0.54568 -0.72503,-0.47069 -0.0653,0.025 -0.16664,-0.0145 -0.22519,-0.088 -0.56006,-0.7025 -0.84534,-0.7858 -1.26249,-0.36866 -0.18458,0.18459 -0.33426,0.254 -0.54767,0.254 -0.32801,0 -0.7093,0.30743 -0.7093,0.57189 0,0.35958 -0.38892,0.48372 -0.47248,0.15081 -0.11845,-0.47196 0.53785,-1.2307 1.06454,-1.2307 0.1256,0 0.29712,-0.076 0.38117,-0.16886 0.21902,-0.242 0.69035,-0.35367 1.06593,-0.25254 0.29419,0.0792 0.75484,0.44676 0.75484,0.60228 0,0.0402 0.0781,0.0731 0.17353,0.0731 0.20778,0 0.60291,0.19437 0.74624,0.36708 0.0765,0.0922 0.22771,0.1141 0.5865,0.0849 0.5951,-0.0484 0.96844,0.15126 1.17209,0.62694 0.29027,0.67799 0.52245,0.97527 0.90971,1.16475 0.52595,0.25734 0.78337,0.8594 0.63351,1.48167 -0.021,0.0873 0.0488,0.13601 0.22314,0.1558 0.13955,0.0159 0.2789,0.0695 0.30967,0.11933 0.0887,0.14347 -0.0163,0.31753 -0.19145,0.31753 -0.0954,0 -0.16108,0.0599 -0.16225,0.14817 -0.008,0.58116 -0.84233,7.50334 -0.91322,7.57422 -0.14244,0.14245 -0.35481,0.007 -0.35481,-0.2258 0,-0.11736 0.17137,-1.76638 0.38083,-3.66449 0.20945,-1.8981 0.3809,-3.53682 0.381,-3.6416 1.7e-4,-0.18248 -0.0298,-0.1905 -0.71276,-0.1905 h -0.71292 l -0.0505,0.52917 c -0.0278,0.29104 -0.14412,1.99602 -0.2585,3.78883 -0.11438,1.79282 -0.22835,3.45969 -0.25328,3.70417 l -0.0453,0.4445 h 0.7654 c 0.60511,0 0.77569,0.0268 0.81454,0.12808 0.027,0.0704 0.002,0.18474 -0.0554,0.254 -0.0898,0.10823 -0.67244,0.12592 -4.14777,0.12592 -3.13222,0 -4.06268,-0.0238 -4.12943,-0.10583 z m 1.46093,-0.84667 c -0.0249,-0.24448 -0.1389,-1.91135 -0.25328,-3.70417 -0.11438,-1.79281 -0.23071,-3.49779 -0.2585,-3.78883 l -0.0505,-0.52917 h -0.71292 c -0.67355,0 -0.71293,0.0101 -0.71293,0.18244 0,0.25828 0.84914,8.05011 0.89126,8.1784 0.0231,0.0703 0.22048,0.10583 0.58849,0.10583 h 0.55373 z m 1.62301,-0.127 c -0.0297,-0.31433 -0.0542,-0.88287 -0.0546,-1.26343 l -6e-4,-0.69194 -0.28965,-0.0956 c -0.15931,-0.0526 -0.4507,-0.21226 -0.64755,-0.35486 l -0.3579,-0.25926 0.0533,0.62346 c 0.0293,0.3429 0.0787,1.07113 0.10964,1.61829 l 0.0563,0.99483 h 0.59249 0.59248 z m 1.63815,-0.61383 v -1.18534 h -0.59266 -0.59267 v 1.18534 1.18533 h 0.59267 0.59266 z m 1.64014,0.1905 c 0.031,-0.54716 0.0803,-1.27539 0.10964,-1.61829 l 0.0533,-0.62346 -0.3579,0.25926 c -0.19684,0.1426 -0.48824,0.30228 -0.64755,0.35486 l -0.28965,0.0956 -5.9e-4,0.69194 c -3.4e-4,0.38056 -0.0249,0.9491 -0.0546,1.26343 l -0.054,0.5715 h 0.59248 0.59249 l 0.0563,-0.99483 z m -0.82818,-2.15832 c 1.41146,-0.7292 1.39855,-2.00291 -0.0274,-2.70492 -0.52384,-0.25789 -0.63381,-0.28026 -1.37719,-0.28026 -0.74339,0 -0.85336,0.0224 -1.3772,0.28026 -0.82885,0.40804 -1.20807,1.01083 -1.04491,1.66092 0.11421,0.45507 0.78195,1.01222 1.49077,1.24386 0.11642,0.038 0.59267,0.0587 1.05834,0.046 0.72103,-0.0197 0.91061,-0.0562 1.27762,-0.24584 z m -2.88508,-3.20882 0.30019,-0.10854 -0.0237,-0.97691 -0.0237,-0.97691 -0.75203,-0.0246 -0.75202,-0.0246 0.0549,0.78663 c 0.0302,0.43264 0.0775,1.05943 0.10509,1.39285 l 0.0502,0.60623 0.37045,-0.28277 c 0.20375,-0.15552 0.50553,-0.33162 0.67063,-0.39132 z m 4.14146,-1.11325 0.061,-0.99822 -0.74716,0.0246 -0.74716,0.0246 -0.023,0.97366 -0.023,0.97367 0.36717,0.15006 c 0.20194,0.0825 0.49806,0.25967 0.65803,0.39365 l 0.29087,0.24358 0.0512,-0.39364 c 0.0281,-0.21651 0.0786,-0.84285 0.11216,-1.39187 z m -1.95149,0.40667 c 0.0281,-0.23345 0.0513,-0.64353 0.0517,-0.91128 l 7.4e-4,-0.48684 h -0.762 -0.762 l 7.6e-4,0.48684 c 4.2e-4,0.26775 0.0237,0.67783 0.0517,0.91128 l 0.051,0.42444 h 0.65849 0.6585 l 0.051,-0.42444 z m -3.21915,-2.62644 c -0.0594,-0.15478 0.15639,-0.50249 0.41531,-0.66923 0.31306,-0.2016 0.77573,-0.25268 0.90273,-0.0997 0.16562,0.19956 0.0478,0.38855 -0.24213,0.38855 -0.16117,0 -0.35923,0.0926 -0.54301,0.254 -0.32242,0.28309 -0.46021,0.31576 -0.5329,0.12634 z m 3.62971,-0.47947 c -0.0572,-0.0572 -0.10407,-0.14696 -0.10407,-0.19938 0,-0.18488 -0.39149,-0.46349 -0.65126,-0.46349 -0.32803,0 -0.51707,-0.19747 -0.36474,-0.381 0.37521,-0.45211 1.59792,0.28362 1.5089,0.90794 -0.0311,0.21832 -0.23513,0.28963 -0.38883,0.13593 z"
         id="path838" />
    </g>
  </g>
</svg>
