<?xml version="1.0" encoding="UTF-8" standalone="no"?>
<!-- Created with Inkscape (http://www.inkscape.org/) -->

<svg
   width="139mm"
   height="111mm"
   viewBox="0 0 139 111"
   version="1.1"
   id="svg5"
   inkscape:version="1.1.1 (3bf5ae0d25, 2021-09-20)"
   sodipodi:docname="zestawnachosy.svg"
   xmlns:inkscape="http://www.inkscape.org/namespaces/inkscape"
   xmlns:sodipodi="http://sodipodi.sourceforge.net/DTD/sodipodi-0.dtd"
   xmlns="http://www.w3.org/2000/svg"
   xmlns:svg="http://www.w3.org/2000/svg">
  <sodipodi:namedview
     id="namedview7"
     pagecolor="#ffffff"
     bordercolor="#666666"
     borderopacity="1.0"
     inkscape:pageshadow="2"
     inkscape:pageopacity="0.0"
     inkscape:pagecheckerboard="0"
     inkscape:document-units="mm"
     showgrid="false"
     inkscape:zoom="0.69664703"
     inkscape:cx="396.18342"
     inkscape:cy="298.57301"
     inkscape:window-width="1920"
     inkscape:window-height="986"
     inkscape:window-x="-11"
     inkscape:window-y="-11"
     inkscape:window-maximized="1"
     inkscape:current-layer="layer1" />
  <defs
     id="defs2" />
  <g
     inkscape:label="Warstwa 1"
     inkscape:groupmode="layer"
     id="layer1">
    <g
       id="g713"
       transform="matrix(5.2323721,0,0,5.2323721,-460.59792,-611.81742)" />
    <g
       id="g21"
       transform="matrix(1.9408607,0,0,1.9408607,-134.95829,-258.24007)">
      <path
         id="path23"
         style="fill:#333333;fill-opacity:1;stroke-width:0.352778"
         d="m 116.70813,172.89665 c -1.02395,-8.87677 -1.94372,-16.49677 -2.04394,-16.93333 l -0.1822,-0.79375 h 9.16123 9.16123 l 0.67112,-4.14514 0.6711,-4.14514 3.25868,-0.10143 c 3.05399,-0.0951 3.25868,-0.0573 3.25868,0.6019 0,0.6283 -0.27253,0.7144 -2.55423,0.80699 l -2.55423,0.10365 -0.43225,2.46945 c -0.23773,1.35819 -0.51311,2.906 -0.61195,3.43958 l -0.1797,0.97014 h 3.19421 3.19421 l -0.18753,0.97014 c -0.10314,0.53357 -1.0205,8.15357 -2.03858,16.93333 l -1.85104,15.96319 h -9.03654 -9.03655 z m 18.48668,14.2875 c 0.15321,-0.44136 2.65118,-21.56998 2.64845,-22.40139 -10e-4,-0.27904 -0.51963,-0.44097 -1.41256,-0.44097 -1.17593,0 -1.41111,-0.11759 -1.41111,-0.70556 0,-0.59914 0.23518,-0.70555 1.55942,-0.70555 h 1.55942 l 0.23283,-2.38125 c 0.12805,-1.30969 0.31013,-2.65906 0.40463,-2.99861 0.15166,-0.545 -0.11408,-0.61736 -2.26722,-0.61736 h -2.43902 l -1.51951,9.17222 c -1.48784,8.98111 -1.53689,9.17222 -2.35397,9.17222 -0.68382,0 -0.8018,-0.14331 -0.65349,-0.79375 0.0995,-0.43656 0.73852,-4.20687 1.41996,-8.37847 0.68144,-4.1716 1.32043,-7.94191 1.41997,-8.37847 l 0.18097,-0.79375 h -8.14438 c -7.58682,0 -8.13262,0.0423 -7.97258,0.61736 0.0945,0.33955 0.27657,1.68892 0.40463,2.99861 l 0.23283,2.38125 h 6.14553 c 5.91034,0 6.14553,0.027 6.14553,0.70555 0,0.67789 -0.23519,0.70556 -5.99722,0.70556 -4.93049,0 -5.99722,0.0886 -5.99722,0.49828 0,0.88929 2.4866,21.88937 2.64574,22.34408 0.11687,0.33394 1.95793,0.44097 7.58481,0.44097 5.62756,0 7.46762,-0.107 7.58356,-0.44097 z m -13.39951,-3.175 c -0.13915,-0.41082 -1.94516,-15.7267 -1.94516,-16.49594 0,-0.19206 0.31448,-0.3492 0.69884,-0.3492 0.85924,0 0.84714,-0.0556 1.76522,8.11389 0.40339,3.58951 0.8217,7.1217 0.92958,7.84931 0.17411,1.17425 0.11214,1.32291 -0.55148,1.32291 -0.4112,0 -0.81485,-0.19844 -0.897,-0.44097 z m -3.35627,4.55816 c 0,-0.60566 -3.46137,-30.33035 -3.73504,-32.07483 l -0.20753,-1.32291 h 9.14317 9.14317 l 0.64929,-4.23334 0.64928,-4.23333 h 3.29133 c 3.03158,0 3.29133,0.0545 3.29133,0.6901 0,0.61168 -0.28953,0.70188 -2.54793,0.79375 l -2.54793,0.10365 -0.43831,2.64583 c -0.24107,1.45521 -0.52627,3.00302 -0.63379,3.43959 -0.19194,0.77935 -0.13721,0.79375 3.01725,0.79375 h 3.21273 l -0.21009,1.32291 c -0.2679,1.68694 -3.73249,31.46715 -3.73249,32.08295 0,0.3674 -1.85914,0.4608 -9.17222,0.4608 -7.39419,0 -9.17222,-0.0909 -9.17222,-0.46892 z m 18.07567,-12.23108 c 0.72531,-6.11187 1.24623,-11.31093 1.1576,-11.55347 -0.0886,-0.24253 -0.72173,-0.44097 -1.40692,-0.44097 -1.01061,0 -1.24579,-0.1332 -1.24579,-0.70556 0,-0.60102 0.23518,-0.70555 1.5875,-0.70555 1.48941,0 1.58933,-0.0599 1.61726,-0.97014 0.0164,-0.53358 0.14381,-1.88295 0.28318,-2.99861 l 0.2534,-2.02847 h -2.32255 -2.32255 l -1.17189,7.14375 c -1.99161,12.14076 -1.76094,11.20069 -2.74832,11.20069 -0.65862,0 -0.82552,-0.14894 -0.69186,-0.61736 0.4218,-1.47811 2.81048,-17.37502 2.63688,-17.54862 -0.10573,-0.10573 -3.66841,-0.14945 -7.91706,-0.0972 l -7.72483,0.0951 0.2999,2.91042 0.29989,2.91042 h 6.1383 c 5.90311,0 6.1383,0.027 6.1383,0.70555 0,0.67789 -0.23519,0.70556 -5.99722,0.70556 -4.04544,0 -5.99722,0.12354 -5.99722,0.3796 0,0.7617 2.51793,22.03506 2.65954,22.4698 0.11322,0.34757 1.82852,0.42666 7.65084,0.35278 l 7.50489,-0.0952 z m -14.72214,7.67292 c -0.17081,-0.49525 -1.94242,-15.35495 -1.94242,-16.29248 0,-0.42071 0.2363,-0.56782 0.7855,-0.489 0.75323,0.1081 0.82502,0.44609 1.7474,8.22662 1.1677,9.84992 1.14128,8.99583 0.27825,8.99583 -0.39414,0 -0.78507,-0.19844 -0.86873,-0.44097 z m -3.35353,4.65564 c 0,-0.41528 -3.39721,-29.64463 -3.71875,-31.99592 l -0.20504,-1.4993 h 9.11025 9.11024 l 0.66718,-4.23334 0.66719,-4.23333 h 3.29696 c 3.03717,0 3.29697,0.0544 3.29697,0.6901 0,0.61172 -0.28954,0.70187 -2.54923,0.79375 l -2.54923,0.10365 -0.56676,3.43958 -0.56676,3.43959 h 3.11599 c 1.71379,0 3.11599,0.0776 3.11599,0.17242 0,0.0948 -0.87313,7.53648 -1.94028,16.53698 -1.06715,9.0005 -1.94028,16.5429 -1.94028,16.7609 0,0.28314 -2.62022,0.39636 -9.17222,0.39636 -6.18696,0 -9.17222,-0.12089 -9.17222,-0.37144 z m 17.87355,-10.99117 c 0.61834,-5.29521 1.22085,-10.38173 1.3389,-11.30336 l 0.21463,-1.67569 h -1.36447 c -1.59614,0 -1.82088,-0.15355 -1.57893,-1.07876 0.13798,-0.52766 0.48926,-0.68513 1.52831,-0.68513 0.74203,0 1.42852,-0.12844 1.52554,-0.28541 0.097,-0.15698 0.28777,-1.51451 0.4239,-3.01675 l 0.24751,-2.73134 -2.25517,0.10633 -2.25516,0.10633 -1.48139,8.81945 c -0.81477,4.85069 -1.48945,8.93851 -1.49931,9.08403 -0.01,0.14552 -0.4274,0.26458 -0.92789,0.26458 -0.80568,0 -0.88719,-0.11118 -0.71125,-0.97014 0.49534,-2.41818 2.67956,-15.98151 2.67956,-16.63921 0,-0.7228 -0.13059,-0.73509 -7.80977,-0.73509 h -7.80977 l 0.24587,2.7132 c 0.13522,1.49226 0.32524,2.84163 0.42225,2.99861 0.097,0.15697 2.87682,0.28541 6.17734,0.28541 h 6.00093 l -0.11273,0.79375 c -0.11118,0.78283 -0.19455,0.79508 -6.05938,0.89064 l -5.94666,0.0969 0.19161,1.13782 c 0.10539,0.62581 0.69214,5.58283 1.30391,11.01561 0.61176,5.43278 1.15725,10.03653 1.21219,10.23056 0.0634,0.22404 2.8505,0.32587 7.63752,0.27905 l 7.53763,-0.0737 z m -15.3511,0.33831 c -1.37415,-11.62923 -1.35004,-10.92964 -0.37194,-10.79128 0.83048,0.11748 0.86437,0.26669 1.79029,7.88086 1.19738,9.84651 1.18831,9.34861 0.17025,9.34861 -0.81057,0 -0.84371,-0.13431 -1.5886,-6.43819 z m -2.52245,10.83271 c 0,-0.10538 -0.87291,-7.60632 -1.93979,-16.66875 -1.06689,-9.06244 -1.94002,-16.59354 -1.94028,-16.73578 -2.7e-4,-0.14225 4.08501,-0.301 9.07839,-0.35278 l 9.07888,-0.0942 0.67174,-4.14514 c 0.65673,-4.05247 0.69233,-4.14553 1.59265,-4.16271 0.5065,-0.01 1.95278,-0.0407 3.21397,-0.0689 2.21108,-0.0495 2.29305,-0.0205 2.29305,0.81132 0,0.82387 -0.11196,0.86727 -2.489,0.96493 l -2.489,0.10227 -0.42142,2.91465 c -0.23178,1.60307 -0.42141,3.10486 -0.42141,3.33732 0,0.29522 0.90418,0.42267 2.99861,0.42267 1.64923,0 2.99839,0.11906 2.99813,0.26458 -2.7e-4,0.14552 -0.87339,7.6793 -1.94028,16.74174 -1.06689,9.06243 -1.9398,16.56337 -1.9398,16.66875 0,0.10537 -4.1275,0.19159 -9.17222,0.19159 -5.04472,0 -9.17222,-0.0862 -9.17222,-0.19159 z m 17.86723,-11.27368 c 0.61146,-5.23875 1.19962,-10.27907 1.30702,-11.2007 l 0.19529,-1.67569 h -1.60863 c -1.32191,0 -1.57045,-0.0995 -1.39449,-0.55802 0.11778,-0.30691 0.21414,-0.70379 0.21414,-0.88195 0,-0.17815 0.62563,-0.32392 1.39029,-0.32392 0.76466,0 1.46265,-0.11906 1.55111,-0.26459 0.0884,-0.14552 0.27597,-1.50297 0.41672,-3.01656 l 0.25591,-2.75198 -2.23604,0.10615 -2.23603,0.10614 -1.48072,8.89191 c -0.81439,4.89055 -1.5832,9.05773 -1.70847,9.26042 -0.25927,0.41952 -1.59838,0.50677 -1.59501,0.10392 0.001,-0.14552 0.63622,-4.12671 1.41111,-8.84708 0.7749,-4.72038 1.4089,-8.80819 1.4089,-9.08403 0,-0.4184 -1.29327,-0.50152 -7.80256,-0.50152 h -7.80255 l 0.25422,2.73402 c 0.13983,1.50372 0.3266,2.85309 0.41505,2.99861 0.0884,0.14553 2.8502,0.26459 6.13722,0.26459 h 5.9764 v 0.88194 0.88195 h -6.01321 -6.0132 l 0.18889,1.14652 c 0.10389,0.6306 0.67902,5.51216 1.27807,10.84792 0.59905,5.33577 1.15248,9.903 1.22984,10.1494 0.10915,0.3477 1.82095,0.42669 7.64481,0.35278 l 7.50417,-0.0952 z m -14.694,6.43819 c -0.001,-0.24253 -0.39514,-3.69535 -0.87591,-7.67292 -1.10631,-9.15279 -1.10647,-9.17222 -0.0762,-9.17222 0.79509,0 0.82778,0.15451 1.7728,8.37847 0.52952,4.60816 0.95876,8.49754 0.95386,8.64306 -0.0155,0.4602 -1.77272,0.28554 -1.77457,-0.17639 z m -2.73057,5.0901 c -0.29034,-0.18437 -1.09773,-5.85556 -2.38125,-16.72611 -1.06808,-9.04594 -1.94197,-16.61736 -1.94197,-16.82537 0,-0.25917 2.82375,-0.3782 8.97206,-0.3782 8.23884,0 8.98725,-0.0505 9.15792,-0.61736 0.10222,-0.33955 0.43409,-2.18627 0.73749,-4.10383 0.30339,-1.91756 0.6367,-3.62412 0.74067,-3.79236 0.10399,-0.16824 1.60844,-0.3059 3.34324,-0.3059 h 3.15418 v 1.04288 1.04288 l -2.5507,0.10365 -2.5507,0.10365 -0.42623,2.46944 c -0.74879,4.33822 -0.92413,4.05695 2.52902,4.05695 1.89829,0 2.99861,0.13878 2.99861,0.3782 0,0.20801 -0.87388,7.77943 -1.94197,16.82537 -1.28352,10.87055 -2.09091,16.54174 -2.38125,16.72611 -0.2416,0.15343 -4.16991,0.27896 -8.72956,0.27896 -4.55965,0 -8.48795,-0.12553 -8.72956,-0.27896 z m 16.29879,-2.62066 c 0.0959,-0.43656 0.66005,-5.08 1.25371,-10.31875 0.59365,-5.23875 1.16584,-9.96156 1.27152,-10.49513 0.18719,-0.94508 0.15042,-0.97014 -1.42337,-0.97014 -1.64579,0 -1.88252,-0.25307 -1.2836,-1.37217 0.23393,-0.43709 0.70587,-0.60159 1.59827,-0.55708 0.69647,0.0348 1.32152,-0.0329 1.389,-0.15032 0.0675,-0.11742 0.23566,-1.45175 0.37377,-2.96517 l 0.25109,-2.75169 -2.22546,0.10585 -2.22545,0.10585 -0.97688,5.99723 c -2.10672,12.93347 -2.0099,12.52361 -2.9586,12.52361 -0.46714,0 -0.84934,-0.16906 -0.84934,-0.37569 0,-0.20662 0.635,-4.18455 1.41111,-8.83985 0.77611,-4.65529 1.41111,-8.69311 1.41111,-8.97292 0,-0.42781 -1.23977,-0.50876 -7.79121,-0.50876 h -7.79121 l 0.24944,2.73402 c 0.13719,1.50372 0.32293,2.85968 0.41275,3.01326 0.0898,0.15358 2.72956,0.26561 5.86608,0.24896 3.13652,-0.0166 5.87919,-0.0232 6.09482,-0.0146 0.22605,0.009 0.32066,0.38904 0.22345,0.89757 l -0.16859,0.88194 h -5.97208 -5.97208 l 0.19438,1.14653 c 0.10691,0.63059 0.67348,5.3534 1.25904,10.49514 0.58556,5.14174 1.1433,9.7058 1.23943,10.14236 0.17447,0.79234 0.18787,0.79374 7.56967,0.79374 7.38194,0 7.3952,-0.001 7.56923,-0.79375 z m -13.56645,-2.29864 c 0,-0.14859 -0.39688,-3.5831 -0.88194,-7.63225 -0.48507,-4.04914 -0.88195,-7.81694 -0.88195,-8.37288 0,-0.84301 0.14641,-1.01081 0.88195,-1.01081 0.60375,0 0.88278,0.19473 0.88459,0.61736 10e-4,0.33955 0.3962,3.95111 0.87721,8.0257 1.08455,9.18712 1.08442,8.64305 0.002,8.64305 -0.48507,0 -0.88194,-0.12158 -0.88194,-0.27017 z m -3.175,5.07221 c 0,-0.0753 -0.87313,-7.54714 -1.94028,-16.60415 -1.06715,-9.05703 -1.94028,-16.69482 -1.94028,-16.97288 0,-0.42567 1.4205,-0.50556 8.98912,-0.50556 h 8.98911 l 0.17775,-0.79375 c 0.0978,-0.43657 0.42874,-2.29425 0.7355,-4.1282 0.30675,-1.83394 0.63603,-3.46113 0.73172,-3.61597 0.0957,-0.15484 1.59338,-0.28153 3.32818,-0.28153 h 3.15418 v 1.04288 1.04288 l -2.54739,0.10365 -2.5474,0.10365 -0.42436,2.64583 c -0.67845,4.23013 -0.90551,3.88056 2.52054,3.88056 2.417,0 2.99861,0.10162 2.99861,0.52395 0,0.28818 -0.87313,7.90338 -1.94028,16.92267 -1.06715,9.01929 -1.94028,16.48288 -1.94028,16.58576 0,0.10288 -4.1275,0.18706 -9.17222,0.18706 -5.04472,0 -9.17222,-0.0616 -9.17222,-0.13685 z m 16.73619,-2.77357 c 0.093,-0.43656 0.65499,-5.15937 1.24887,-10.49513 0.59388,-5.33577 1.15884,-10.05858 1.25547,-10.49514 0.16201,-0.73197 0.0516,-0.79375 -1.41853,-0.79375 -1.64605,0 -1.86186,-0.25186 -1.22903,-1.43431 0.25131,-0.46957 0.73985,-0.68236 1.56668,-0.68236 0.66082,0 1.27222,-0.11906 1.35867,-0.26458 0.0865,-0.14552 0.27068,-1.41552 0.4094,-2.82223 l 0.25222,-2.55763 h -2.14575 c -1.93641,0 -2.1634,0.0774 -2.32672,0.79375 -0.0995,0.43656 -0.74013,4.20687 -1.42353,8.37847 -1.67828,10.24441 -1.48991,9.525 -2.49392,9.525 -0.54166,0 -0.85391,-0.20303 -0.85391,-0.55523 0,-0.30538 0.635,-4.34178 1.41111,-8.96977 0.77611,-4.628 1.41111,-8.58502 1.41111,-8.79338 0,-0.25853 -2.48036,-0.37884 -7.81025,-0.37884 h -7.81025 l 0.22246,1.85208 c 0.12236,1.01865 0.22385,2.28865 0.22553,2.82222 l 0.003,0.97014 h 6.11481 c 3.36315,0 6.19792,0.0831 6.2995,0.18468 0.10157,0.10157 0.10953,0.57782 0.0177,1.05833 l -0.16701,0.87366 h -5.96281 -5.96282 l 0.17569,0.79375 c 0.0966,0.43656 0.66159,5.15937 1.25547,10.49514 0.59388,5.33576 1.15587,10.05857 1.24886,10.49513 0.16882,0.79253 0.18048,0.79375 7.56398,0.79375 7.38349,0 7.39515,-0.001 7.56397,-0.79375 z m -13.56119,-2.19027 c 0,-0.4156 -1.7755,-15.29959 -1.92702,-16.15417 -0.15421,-0.86976 -0.069,-0.97014 0.8234,-0.97014 h 0.99541 l 0.76076,6.4382 c 0.41842,3.541 0.86226,7.43038 0.9863,8.64305 l 0.22555,2.20486 h -0.9322 c -0.51271,0 -0.9322,-0.0728 -0.9322,-0.1618 z m -3.34297,3.60139 c -0.41691,-2.95961 -3.71259,-31.42371 -3.71259,-32.06486 0,-0.62138 0.46506,-0.65528 8.98912,-0.65528 h 8.98911 l 0.17896,-0.79375 c 0.18016,-0.79913 1.24559,-7.50982 1.24559,-7.84551 0,-0.0991 1.50813,-0.18019 3.35139,-0.18019 h 3.35139 v 1.05834 1.05833 h -2.46272 c -2.76937,0 -2.47679,-0.33947 -3.17234,3.68076 -0.55654,3.21674 -0.72641,3.02202 2.63645,3.02202 2.68674,0 2.99861,0.0682 2.99861,0.65528 0,0.64115 -3.29568,29.10525 -3.71258,32.06486 l -0.21121,1.4993 h -9.12899 -9.12899 z m 16.76929,-0.70556 c 0.0114,-0.0485 0.61317,-5.12851 1.33724,-11.28889 l 1.31649,-11.20069 h -1.51363 c -1.54316,0 -1.7859,-0.29114 -1.29951,-1.55865 0.14374,-0.37458 0.65877,-0.55802 1.56668,-0.55802 0.7439,0 1.42078,-0.11906 1.50417,-0.26458 0.0834,-0.14552 0.26113,-1.41552 0.39496,-2.82223 l 0.24333,-2.55763 h -2.09978 c -2.49145,0 -2.04851,-1.10655 -3.74213,9.34861 -1.61577,9.9745 -1.44853,9.34861 -2.49781,9.34861 -0.53643,0 -0.87522,-0.20154 -0.87522,-0.52066 0,-0.28635 0.635,-4.35793 1.41111,-9.04793 0.77611,-4.69001 1.41111,-8.66259 1.41111,-8.82796 0,-0.16537 -3.50808,-0.30067 -7.79575,-0.30067 h -7.79575 l 0.23642,2.20486 c 0.40396,3.76748 -0.21936,3.43958 6.53859,3.43958 3.27395,0 6.03372,0.1312 6.13282,0.29156 0.0991,0.16035 0.0909,0.63293 -0.0182,1.05017 -0.19168,0.73298 -0.39709,0.76187 -6.07898,0.85497 l -5.8806,0.0964 1.30879,10.93611 c 0.71984,6.01486 1.31992,11.05517 1.33351,11.20069 0.0216,0.23094 14.80799,0.40643 14.86214,0.17639 z m -13.54648,-3.88056 c -0.10927,-0.63059 -0.52546,-4.0834 -0.92487,-7.67291 -0.39941,-3.58952 -0.79996,-6.96295 -0.8901,-7.49653 -0.14827,-0.87766 -0.0639,-0.97014 0.88562,-0.97014 0.6012,0 1.05209,0.18837 1.05555,0.44097 0.003,0.24254 0.3994,3.69535 0.88017,7.67292 1.10761,9.16358 1.10764,9.17222 0.035,9.17222 -0.67478,0 -0.88227,-0.22844 -1.04136,-1.14653 z m -36.015482,6.58365 c -2.675069,-0.40063 -5.810026,-1.75892 -7.81967,-3.38802 -3.246136,-2.63148 -5.434457,-6.68132 -5.796042,-10.72651 l -0.134168,-1.50108 -0.793263,0.0175 -0.793262,0.0175 v -1.97496 -1.97496 h 1.183265 1.183266 l 3.311891,-3.00576 c 1.821539,-1.65313 3.714329,-3.36658 4.206197,-3.80766 1.610813,-1.44441 2.918297,-0.96488 3.437056,1.26058 0.142388,0.6108 0.285832,1.11056 0.318779,1.11056 0.278407,0 3.818735,-1.71452 3.872329,-1.87529 0.03828,-0.11493 -0.02099,-0.70699 -0.131594,-1.31585 -0.255638,-1.40651 -7.59e-4,-2.18413 0.828449,-2.52759 0.573505,-0.23761 1.070103,-0.0964 6.067953,1.72379 5.716136,2.08189 6.523286,2.52542 6.340076,3.48378 -0.16365,0.8562 0.17989,0.77248 0.59351,-0.14466 0.46714,-1.03591 1.02525,-1.45963 1.92257,-1.45963 0.65185,0 1.37985,0.60995 1.9553,1.63827 0.1619,0.28945 0.64308,-0.056 2.91291,-2.09134 3.50045,-3.13892 3.94013,-3.36783 4.91965,-2.56133 0.43349,0.35691 0.77016,1.67777 2.12962,8.3557 l 0.2476,1.21635 h 1.25423 1.25423 v 1.97496 1.97496 l -0.79327,-0.0175 -0.79326,-0.0175 -0.13417,1.50107 c -0.47535,5.31799 -3.88833,10.21943 -8.75037,12.56651 -3.19029,1.54008 -3.23364,1.5455 -12.797951,1.59697 -4.711981,0.0252 -8.852813,0.002 -9.201848,-0.049 z m 18.481442,-1.66065 c 2.6489,-0.62445 5.84417,-2.59456 7.51499,-4.63358 1.95635,-2.38749 3.26489,-5.51367 3.35871,-8.02415 l 0.0485,-1.29723 H 94.045626 73.209256 l 0.04847,1.29723 c 0.09382,2.51048 1.402347,5.63666 3.35871,8.02415 1.634881,1.99515 4.857359,4.00356 7.419003,4.62391 1.852722,0.44865 18.028861,0.45649 19.924391,0.01 z M 92.709769,185.5976 c -1.745085,-0.55991 -2.884743,-2.2336 -2.886752,-4.2395 -0.0015,-1.46447 0.604626,-2.59725 1.862839,-3.48156 0.803389,-0.56463 1.092269,-0.6434 2.35977,-0.6434 1.267504,0 1.556382,0.0787 2.359771,0.6434 1.291759,0.90789 1.864005,2.00919 1.864005,3.58735 0,1.55739 -0.570395,2.67813 -1.804434,3.54545 -0.939561,0.66034 -2.680519,0.93307 -3.755199,0.58826 z m 2.939315,-1.67687 c 0.736735,-0.44925 1.358058,-1.58942 1.358058,-2.49212 0,-0.33327 -0.177341,-0.93762 -0.394115,-1.34302 -1.084826,-2.02886 -4.049975,-2.02886 -5.134801,0 -1.067452,1.99637 0.288955,4.23245 2.5674,4.23245 0.559049,0 1.220813,-0.1639 1.603458,-0.39731 z m 21.030986,-11.65869 v -0.63461 H 94.045626 71.411193 v 0.63461 0.63461 h 22.634433 22.634444 z m -33.523196,-2.37979 c -0.05964,-0.26179 -0.35018,-1.61665 -0.645643,-3.01082 -0.295461,-1.3942 -0.619692,-2.61737 -0.72051,-2.71818 -0.171445,-0.1714 -6.941877,5.69462 -6.978444,6.04631 -0.009,0.0872 1.889149,0.15865 4.218271,0.15865 h 4.234764 z m 2.850357,-1.09523 c 0,-1.44541 0.04462,-1.60626 0.55737,-2.00959 0.306552,-0.2411 0.782509,-0.43843 1.057683,-0.43843 0.303698,0 0.500313,-0.12467 0.500313,-0.3173 0,-0.17464 -0.09889,-0.31731 -0.21974,-0.31731 -0.182114,0 -3.511594,1.42878 -3.775364,1.62013 -0.09227,0.067 0.387309,2.63011 0.537919,2.87504 0.05367,0.0872 0.377526,0.15865 0.719696,0.15865 h 0.622125 z m 6.55764,1.46705 c 0,-0.0572 -1.137664,-0.67443 -2.528142,-1.37145 -1.587708,-0.79592 -2.579639,-1.184 -2.666583,-1.04331 -0.07615,0.12317 -0.07393,0.74034 0.005,1.37143 l 0.143362,1.14747 h 2.52322 c 1.387771,0 2.523221,-0.047 2.523221,-0.10419 z m 10.625989,-1.11504 c 0.69812,-1.07304 0.74709,-1.23037 0.42306,-1.35914 -0.50644,-0.20137 -10.604532,-1.05605 -10.829976,-0.91671 -0.100264,0.062 0.163374,0.87371 0.585905,1.80384 l 0.768221,1.69119 4.131629,-0.003 4.131621,-0.002 0.78954,-1.21353 z m 3.254,0.69033 c -0.18789,-0.29087 -0.49582,-0.7675 -0.68426,-1.05917 l -0.34261,-0.53035 -0.6093,0.96076 c -0.33512,0.52842 -0.6093,1.00505 -0.6093,1.05917 0,0.0542 0.58209,0.0984 1.29355,0.0984 h 1.29356 z m 7.47218,0.053 c -0.0262,-0.96239 -1.60326,-7.85443 -1.81308,-7.92436 -0.37962,-0.12667 -5.81993,4.84208 -5.68544,5.19251 0.0665,0.17314 0.55349,0.96561 1.08241,1.76122 l 0.96169,1.44658 h 2.73372 c 2.69784,0 2.73357,-0.007 2.7207,-0.47595 z m -22.56031,-2.67254 c -0.0887,-0.66129 -0.01724,-0.91466 0.366718,-1.2985 0.464647,-0.46466 0.545544,-0.47248 3.144726,-0.30431 3.996627,0.25859 4.342118,0.24959 4.410573,-0.11393 0.04445,-0.23611 -1.232438,-0.79149 -4.983956,-2.16825 -2.774019,-1.01802 -5.154802,-1.85093 -5.290628,-1.85093 -0.331916,0 -0.311267,0.35121 0.17934,3.05022 0.230933,1.27042 0.419859,2.37959 0.419859,2.46481 0,0.14641 1.428545,0.99812 1.725048,1.02842 0.0762,0.007 0.08895,-0.35553 0.02833,-0.8074 z m 12.63111,-0.98392 c 0,-0.21237 -0.6828,-1.15601 -0.83651,-1.15601 -0.13592,0 -0.64423,0.926 -0.64423,1.1734 0,0.0527 0.33317,0.0959 0.74037,0.0959 0.4072,0 0.74037,-0.051 0.74037,-0.11318 z m -19.088346,23.59396 c -6.870718,-1.20618 -12.50483,-7.22529 -13.009525,-13.89851 l -0.116778,-1.54393 h -0.801098 -0.801098 l -0.06741,-2.01006 -0.06741,-2.01007 1.207718,4.8e-4 1.207721,4.7e-4 3.452806,-3.12018 c 5.148953,-4.6529 4.946337,-4.49514 5.773637,-4.49514 0.989729,0 1.488983,0.55621 1.786772,1.99065 0.134992,0.65033 0.28224,1.1824 0.327192,1.1824 0.04495,0 0.946079,-0.39596 2.002503,-0.87991 l 1.92077,-0.87989 -0.16265,-0.97105 c -0.383337,-2.28859 -0.02613,-3.089 1.365933,-3.06079 1.07868,0.0225 10.812552,3.63686 11.420233,4.24129 0.29512,0.29355 0.47953,0.7383 0.48533,1.17053 l 0.01,0.69712 0.4389,-0.84615 c 0.67681,-1.30485 1.00621,-1.58688 1.84919,-1.58328 0.90862,0.005 1.05438,0.0939 1.70698,1.05443 0.27666,0.40722 0.5282,0.7744 0.55898,0.81597 0.0307,0.0415 1.39227,-1.12451 3.02557,-2.59133 2.36472,-2.12367 3.09502,-2.66691 3.58525,-2.66691 1.28668,0 1.47304,0.38863 2.48157,5.17522 0.51199,2.42991 0.93091,4.49654 0.93091,4.59253 0,0.0959 0.59493,0.17414 1.32208,0.17389 l 1.32212,-4.7e-4 -0.0675,2.01006 -0.0675,2.01007 h -0.80111 -0.80111 l -0.11667,1.54392 c -0.0642,0.84916 -0.36905,2.30084 -0.67736,3.22595 -1.64904,4.94773 -5.3431,8.53171 -10.58418,10.26876 -1.44299,0.47826 -1.70455,0.4919 -10.259524,0.53523 -4.828325,0.025 -9.229662,-0.0347 -9.780743,-0.13142 z m 19.137766,-1.67812 c 5.93521,-1.51799 10.05058,-6.31749 10.85009,-12.65375 l 0.14016,-1.11057 H 94.045676 73.063838 l 0.140139,1.11057 c 0.794032,6.29301 4.890009,11.10308 10.76678,12.64383 1.347445,0.35326 2.409055,0.39651 9.988208,0.40693 7.711705,0.01 8.625365,-0.0255 10.078345,-0.39701 z m -11.682418,-2.6783 c -3.480617,-1.5094 -3.450758,-6.54698 0.04747,-8.00863 3.202798,-1.33821 6.588568,1.5372 5.852326,4.97017 -0.548239,2.55635 -3.502739,4.07794 -5.899796,3.03846 z m 3.374445,-1.69783 c 1.312332,-1.10425 1.589909,-2.32348 0.834842,-3.66695 -0.562007,-0.99994 -1.390885,-1.49049 -2.518503,-1.49049 -1.127615,0 -1.956493,0.49055 -2.5185,1.49049 -0.755069,1.34347 -0.47749,2.5627 0.834839,3.66695 0.512111,0.43093 0.886279,0.55405 1.683661,0.55405 0.797386,0 1.171553,-0.12317 1.683661,-0.55405 z m 20.911933,-11.45067 -0.067,-0.58172 H 94.045601 71.516938 l -0.06693,0.58172 -0.06693,0.58174 h 22.662534 22.662528 z m -33.533718,-2.11535 c 0.115079,-0.21037 -1.109804,-5.82175 -1.318535,-6.04037 -0.13909,-0.14566 -6.993185,5.83589 -6.993185,6.10298 0,0.16615 8.220531,0.10418 8.31172,-0.0627 z m 2.899729,-1.36137 c 0,-1.26949 0.0758,-1.60069 0.459947,-2.00959 0.270317,-0.28775 0.706387,-0.4896 1.057683,-0.4896 0.579215,0 0.796266,-0.2754 0.406768,-0.51613 -0.289325,-0.17889 -3.828988,1.5142 -3.82306,1.82855 0.0057,0.30097 0.373886,2.02154 0.522674,2.44235 0.05142,0.14541 0.382051,0.26444 0.734737,0.26444 h 0.641251 z m 6.342132,1.36137 c -0.0055,-0.21987 -4.336866,-2.37979 -4.772306,-2.37979 -0.283089,0 -0.327159,0.13167 -0.221289,0.66104 0.0727,0.36358 0.132218,0.93473 0.132218,1.26922 v 0.60818 h 2.432674 c 1.337971,0 2.430884,-0.0715 2.428703,-0.15865 z M 103.0317,169.3534 c 0.40713,-0.55263 0.71616,-1.14759 0.68671,-1.32211 -0.0432,-0.25644 -1.02682,-0.40535 -5.12757,-0.77637 -6.275464,-0.56778 -5.814434,-0.55429 -5.814434,-0.17015 0,0.17739 0.334367,0.98654 0.743038,1.79805 l 0.743037,1.47549 h 4.014486 4.014493 z m 3.49458,0.79029 c 0,-0.27023 -0.90676,-1.68316 -1.08243,-1.68671 -0.13467,-0.002 -1.24446,1.59442 -1.24446,1.79092 0,0.0607 0.52355,0.11043 1.16346,0.11043 0.64533,0 1.16343,-0.0954 1.16343,-0.21461 z m 7.40381,-0.0777 c 0,-0.28955 -1.40607,-7.08785 -1.61309,-7.79916 -0.0592,-0.20363 -0.17689,-0.3702 -0.26119,-0.3702 -0.11718,0 -4.50818,3.81141 -5.61527,4.87416 -0.11243,0.10793 0.26973,0.8864 0.9257,1.88557 l 1.11722,1.70175 h 2.72332 c 2.17524,0 2.72331,-0.0587 2.72331,-0.29212 z m -22.547576,-2.56363 c -0.205049,-0.81697 0.07303,-1.54979 0.709462,-1.86972 0.490252,-0.24635 1.061761,-0.24685 3.740643,-0.002 3.082232,0.28028 3.919275,0.19663 3.384631,-0.33794 -0.217417,-0.21737 -9.916282,-3.81778 -10.284553,-3.81778 -0.133968,0 -0.176217,0.27368 -0.106135,0.68747 0.06404,0.37812 0.279536,1.65149 0.478883,2.82972 l 0.36245,2.14221 0.866765,0.43598 c 0.47672,0.23985 0.892375,0.4419 0.923678,0.44912 0.03131,0.007 -0.0027,-0.22486 -0.0758,-0.51571 z m 12.605326,-1.27666 c 0,-0.21237 -0.6828,-1.15602 -0.83651,-1.15602 -0.21786,0 -0.64163,0.9898 -0.48905,1.14235 0.15716,0.15715 1.32556,0.1694 1.32556,0.0125 z m -19.672905,23.47408 c -6.764448,-1.4646 -12.168439,-7.55166 -12.505507,-14.08625 l -0.05831,-1.13035 -0.857458,-0.10569 -0.857458,-0.10568 -0.06081,-1.95673 -0.06081,-1.9567 h 1.255459 1.255457 l 4.199553,-3.80261 c 3.565957,-3.22892 4.300666,-3.80339 4.869744,-3.80766 1.305663,-0.01 1.781578,0.51298 2.075193,2.27977 0.08317,0.50042 0.221114,0.88119 0.306579,0.84616 0.08545,-0.035 0.986469,-0.43836 2.00225,-0.89625 1.58738,-0.71559 1.831838,-0.8939 1.739862,-1.26922 -0.05886,-0.2401 -0.17127,-0.92943 -0.249797,-1.53166 -0.129395,-0.99229 -0.09172,-1.14607 0.401631,-1.63942 0.299428,-0.29944 0.762921,-0.54474 1.029987,-0.54514 0.711823,-10e-4 10.993953,3.79962 11.45412,4.23388 0.21537,0.20337 0.45719,0.69 0.5373,1.08158 l 0.14566,0.71191 0.52387,-0.94964 c 0.66097,-1.19824 1.45539,-1.6254 2.34077,-1.25867 0.34581,0.14316 0.76358,0.50883 0.92835,0.8124 0.67851,1.25 0.57327,1.27779 2.78407,-0.73538 3.69855,-3.36795 3.83442,-3.47229 4.52194,-3.47229 1.24514,0 1.50291,0.54517 2.49732,5.28161 0.49994,2.38131 0.95504,4.40414 1.01128,4.49514 0.0562,0.0909 0.67139,0.16539 1.36696,0.16539 h 1.26467 l -0.0607,1.9567 -0.0607,1.95673 -0.85748,0.10568 -0.85744,0.10569 -0.0582,1.13035 c -0.18064,3.5025 -2.13231,7.49043 -4.95213,10.11899 -2.20535,2.05576 -4.71118,3.35759 -7.65915,3.97908 -2.08015,0.43853 -17.318536,0.42923 -19.355613,-0.0125 z m 19.755535,-1.56656 c 2.2386,-0.57255 4.30498,-1.71098 6.0674,-3.3427 2.80607,-2.598 4.24479,-5.41785 4.74623,-9.30256 l 0.14341,-1.11057 H 94.045676 73.063838 l 0.143362,1.11057 c 0.501459,3.88471 1.940171,6.70456 4.746242,9.30256 1.731897,1.60347 3.817965,2.7653 5.984065,3.33283 1.388657,0.36383 2.378991,0.40488 10.02145,0.41537 7.770873,0.01 8.617003,-0.0225 10.111563,-0.4055 z M 92.2326,185.39997 c -1.825419,-0.82906 -2.89402,-3.01455 -2.411317,-4.93152 0.871513,-3.4611 5.301577,-4.48689 7.557561,-1.75 2.315985,2.8097 0.306922,7.07263 -3.333218,7.07263 -0.523553,0 -1.339415,-0.17589 -1.813026,-0.39111 z m 3.590814,-1.72554 c 1.428053,-1.25383 1.476011,-3.03256 0.116879,-4.33471 -0.572109,-0.54811 -0.80738,-0.62582 -1.894664,-0.62582 -1.083105,0 -1.323525,0.0787 -1.88505,0.61662 -1.364842,1.3076 -1.325054,3.08633 0.09697,4.33487 0.61738,0.54206 0.923932,0.65424 1.788086,0.65424 0.861004,0 1.171163,-0.11268 1.777788,-0.6452 z m 20.817806,-11.31527 -0.067,-0.53747 -22.317121,0.007 c -12.274421,0.005 -22.436118,0.007 -22.581548,0.007 -0.145436,6.2e-4 -0.264423,0.2391 -0.264423,0.53 v 0.52885 h 22.648485 22.648477 z m -33.595505,-2.42217 c 0,-0.62037 -1.076522,-5.58034 -1.252216,-5.76948 -0.129446,-0.13941 -6.997717,5.84621 -6.997717,6.09836 0,0.0507 1.856235,0.0924 4.124966,0.0924 3.977872,0 4.124967,-0.015 4.124967,-0.42122 z m 2.961516,-1.16531 c 0,-1.76216 0.375547,-2.43268 1.362503,-2.43268 0.547551,0 0.891313,-0.31253 0.565345,-0.51401 -0.192506,-0.11892 -3.831679,1.45514 -3.831679,1.65736 0,0.1664 0.441941,2.31873 0.536188,2.61142 0.04682,0.14541 0.373706,0.26444 0.726392,0.26444 h 0.641251 z m 6.331903,1.42788 c -0.01799,-0.20038 -4.433801,-2.38064 -4.820894,-2.38017 -0.174792,2.3e-4 -0.236829,0.13117 -0.158652,0.33497 0.07063,0.18414 0.128396,0.75519 0.128396,1.26922 v 0.93463 h 2.432673 c 1.337971,0 2.426285,-0.0715 2.418477,-0.15865 z m 10.699846,-0.90317 c 0.95341,-1.29881 0.86894,-1.68789 -0.3666,-1.68889 -0.79067,-6.5e-4 -5.47804,-0.39243 -8.785406,-0.73432 -1.369217,-0.14167 -1.390953,-0.0225 -0.36753,2.00954 l 0.743037,1.47549 h 3.998524 3.998525 z m 3.4873,0.94507 c 0,-0.19313 -0.94367,-1.78391 -1.05767,-1.78283 -0.0972,9e-4 -1.07147,1.37528 -1.23397,1.74093 -0.0387,0.0872 0.46099,0.15865 1.11057,0.15865 0.6496,0 1.18107,-0.0525 1.18107,-0.11668 z m 7.40381,-0.0775 c 0,-0.17714 -1.32432,-6.67502 -1.58795,-7.79131 -0.0617,-0.26179 -0.18189,-0.47588 -0.26704,-0.47581 -0.11168,1.3e-4 -4.90354,4.16309 -5.73753,4.98464 -0.0457,0.045 0.41855,0.84558 1.03147,1.77921 l 1.11442,1.69748 h 2.72332 c 1.5125,0 2.72331,-0.0865 2.72331,-0.19413 z M 91.29565,167.1712 c 0,-0.84563 0.332109,-1.44274 0.928602,-1.66952 0.283401,-0.10769 1.726605,-0.0705 3.52565,0.0907 3.0733,0.27568 3.664599,0.2476 3.526124,-0.16789 -0.08632,-0.259 -10.263841,-4.06486 -10.428842,-3.89986 -0.05909,0.059 0.0869,1.22637 0.324381,2.59401 0.237479,1.36763 0.43179,2.57087 0.43179,2.67385 0,0.19114 1.245932,1.02498 1.533643,1.0264 0.08727,4.5e-4 0.158652,-0.29105 0.158652,-0.64773 z m 12.69219,-0.95753 c 0,-0.069 -0.18264,-0.35764 -0.40615,-0.64164 l -0.40615,-0.51633 -0.33097,0.47251 c -0.25589,0.36535 -0.27173,0.51014 -0.0697,0.63838 0.30596,0.19438 1.21306,0.22961 1.21306,0.047 z m -19.778672,23.5131 c -3.157936,-0.70409 -5.863641,-2.27685 -8.212509,-4.77371 -2.452823,-2.60735 -3.741422,-5.49593 -4.26961,-9.5709 l -0.130245,-1.00481 h -0.833181 -0.833185 v -2.00959 -2.00959 l 1.216335,-0.003 1.216335,-0.002 4.228366,-3.78994 c 2.325602,-2.08445 4.445315,-3.8314 4.710472,-3.8821 0.265159,-0.0507 0.78978,0.0615 1.165824,0.24935 0.578754,0.28915 0.728048,0.5283 0.972505,1.55792 0.158827,0.66896 0.37831,1.21633 0.487718,1.21633 0.109408,0 1.008456,-0.35159 1.997883,-0.78132 1.54636,-0.67161 1.783992,-0.84241 1.692363,-1.21633 -0.05864,-0.23935 -0.170845,-0.92778 -0.249372,-1.53001 -0.129395,-0.99229 -0.09172,-1.14607 0.401631,-1.63942 0.299428,-0.29944 0.782369,-0.54441 1.073206,-0.54441 0.788051,0 10.945267,3.78525 11.483686,4.27957 0.25547,0.2346 0.49345,0.72408 0.52885,1.08783 l 0.0645,0.66139 0.52883,-0.94394 c 0.99211,-1.77084 2.41356,-1.89644 3.39998,-0.30039 0.2431,0.39353 0.52713,0.71548 0.63094,0.71548 0.10369,0 1.40494,-1.0955 2.89137,-2.43448 1.48647,-1.33897 2.91681,-2.49159 3.1786,-2.56137 0.70295,-0.18739 1.48721,0.0735 1.833,0.60982 0.16765,0.25994 0.70247,2.37644 1.18862,4.70334 0.48615,2.32692 0.92701,4.30213 0.97968,4.3894 0.0527,0.0872 0.66129,0.15865 1.35249,0.15865 h 1.25673 v 2.0096 2.00959 h -0.83319 -0.83319 l -0.13017,1.0048 c -0.31738,2.4485 -0.83691,4.23318 -1.76302,6.05613 -0.79501,1.56492 -1.3406,2.28905 -2.88812,3.83328 -2.1624,2.15777 -3.52866,3.0387 -6.1892,3.99062 l -1.85334,0.66312 -9.096059,0.0422 c -6.950416,0.0322 -9.395474,-0.025 -10.365301,-0.24085 z m 19.691952,-1.59799 c 2.72947,-0.68765 4.58426,-1.74653 6.66758,-3.80646 1.47702,-1.4604 1.98661,-2.14066 2.69602,-3.59887 0.87389,-1.79629 1.36646,-3.44665 1.59417,-5.34129 l 0.12068,-1.00481 H 94.045626 73.111581 l 0.120776,1.00481 c 0.227735,1.89464 0.720303,3.545 1.594193,5.34129 1.166072,2.39688 3.746329,5.01455 6.103804,6.19225 3.060188,1.52879 3.710866,1.60984 13.028556,1.62298 7.58136,0.01 8.4081,-0.0225 9.94221,-0.4099 z m -11.655371,-2.72295 c -1.480453,-0.67256 -2.640036,-2.404 -2.640036,-3.94198 0,-2.27833 2.107263,-4.33651 4.439913,-4.33651 2.33265,0 4.439913,2.05818 4.439913,4.33651 0,2.26186 -2.119136,4.32719 -4.439913,4.32719 -0.523553,0 -1.333498,-0.17339 -1.799877,-0.38521 z m 3.716972,-1.83932 c 1.271737,-1.2184 1.258263,-2.99984 -0.03205,-4.23603 -0.561525,-0.53797 -0.801945,-0.61662 -1.885052,-0.61662 -1.083105,0 -1.323525,0.0787 -1.88505,0.61662 -1.272346,1.21898 -1.304918,3.03339 -0.07503,4.17954 0.779334,0.72625 1.040229,0.81132 2.2344,0.72855 0.768111,-0.0532 1.167323,-0.21662 1.642786,-0.67206 z m 20.679179,-11.25164 0.0677,-0.47596 H 94.060465 c -21.821783,0 -22.649147,0.015 -22.649147,0.38784 0,0.21337 0.06389,0.45169 0.141988,0.52977 0.0781,0.0782 10.239786,0.11768 22.581548,0.0882 l 22.439556,-0.054 z m -33.596185,-2.31048 c 0,-0.86597 -1.176767,-5.7808 -1.384108,-5.7808 -0.19533,0 -4.778265,4.00281 -6.437943,5.62299 l -0.524036,0.51159 h 4.173045 c 3.759541,0 4.173042,-0.035 4.173042,-0.35378 z m 2.886147,-0.91544 c 0.01674,-0.63991 0.04053,-1.33006 0.05289,-1.53366 0.03328,-0.54776 0.794524,-1.21633 1.384987,-1.21633 0.529754,0 0.894802,-0.31038 0.588033,-0.49996 -0.165773,-0.10244 -3.357055,1.23709 -3.711115,1.55774 -0.09572,0.0867 -0.08148,0.5267 0.03168,0.9778 0.113156,0.4511 0.266187,1.08795 0.340084,1.41523 0.112281,0.49727 0.228759,0.58419 0.708707,0.52885 0.542772,-0.0625 0.576019,-0.13017 0.604749,-1.22967 z m 6.421471,1.16521 c 0,-0.10469 -4.551762,-2.43443 -4.756054,-2.43443 -0.162175,0 -0.132618,2.23305 0.03173,2.3974 0.160626,0.16065 4.724321,0.19638 4.724321,0.037 z m 10.723667,-1.0794 c 0.41989,-0.63241 0.70659,-1.20671 0.63709,-1.27621 -0.21687,-0.21662 -10.609871,-1.09278 -10.808576,-0.91104 -0.106909,0.0977 0.141413,0.86621 0.574879,1.77895 l 0.763082,1.60684 4.035029,-0.025 4.035016,-0.025 z m 3.44928,1.021 c 0,-0.0892 -0.24709,-0.5262 -0.54933,-0.97085 l -0.54934,-0.80843 -0.50834,0.74811 c -0.27958,0.41145 -0.50834,0.84833 -0.50834,0.97086 0,0.12617 0.45807,0.22286 1.05768,0.22286 0.58172,0 1.05767,-0.0732 1.05767,-0.1624 z m 7.40381,-0.025 c 0,-0.3647 -1.69976,-8.14102 -1.80177,-8.24303 -0.057,-0.057 -0.31753,0.0909 -0.57887,0.32912 -0.26132,0.2381 -1.52222,1.36004 -2.80203,2.49329 -1.27979,1.13326 -2.3269,2.12587 -2.3269,2.20582 0,0.08 0.47596,0.87679 1.05768,1.77079 l 1.0577,1.62543 2.69709,0.002 c 1.48339,10e-4 2.6971,-0.0815 2.6971,-0.18414 z m -22.59372,-3.22944 c 0.04775,-0.64428 0.205774,-0.98244 0.593891,-1.27084 0.502701,-0.37352 0.685676,-0.37852 3.701891,-0.10119 2.641647,0.24285 3.223473,0.2446 3.474109,0.01 0.257496,-0.24085 0.22691,-0.30945 -0.211545,-0.4746 -4.2142,-1.58723 -9.98134,-3.64714 -10.041768,-3.5867 -0.043,0.043 0.125148,1.29955 0.373663,2.79236 0.433102,2.60168 0.478776,2.73062 1.101778,3.11054 0.357471,0.21787 0.715868,0.39671 0.796436,0.39713 0.08058,4.5e-4 0.175767,-0.39426 0.211545,-0.87709 z m 12.29382,-1.24885 -0.38157,-0.64596 -0.39278,0.48505 c -0.38731,0.47831 -0.38584,0.48703 0.10518,0.6249 0.99019,0.278 1.07339,0.22036 0.66917,-0.46399 z m -19.949865,23.90736 c -6.463945,-1.66223 -11.178155,-7.18741 -11.9503,-14.0061 l -0.137741,-1.21635 h -0.838585 -0.838585 l 0.06054,-2.06248 0.06054,-2.06249 0.846148,-0.0357 c 0.465379,-0.02 1.037018,-0.0435 1.270305,-0.053 0.235805,-0.01 2.208553,-1.62313 4.442271,-3.63352 2.209963,-1.98898 4.238902,-3.70257 4.508751,-3.80799 1.161387,-0.45369 2.217973,0.4174 2.45945,2.02768 0.0787,0.52491 0.240027,0.95439 0.358462,0.95439 0.547631,0 3.774986,-1.60639 3.687163,-1.83524 -0.05309,-0.13842 -0.161076,-0.82197 -0.239953,-1.51915 -0.132968,-1.1753 -0.103736,-1.30727 0.401339,-1.81236 0.299628,-0.29961 0.786756,-0.54474 1.082575,-0.54474 0.80476,0 10.937944,3.77401 11.474665,4.27363 0.25546,0.23785 0.49844,0.73002 0.53994,1.09377 l 0.0755,0.6614 0.35376,-0.77373 c 0.36732,-0.80338 1.27399,-1.65895 1.758,-1.65895 0.59506,0 1.38584,0.52652 1.80194,1.19979 0.23935,0.38723 0.51178,0.70404 0.6055,0.70404 0.0937,0 1.44242,-1.14015 2.99714,-2.53365 2.48659,-2.22875 2.9178,-2.53424 3.58317,-2.53844 1.31994,-0.007 1.53278,0.43831 2.53877,5.32736 l 0.90129,4.38021 1.28636,0.062 1.28636,0.062 0.0605,2.06248 0.0605,2.06249 h -0.83859 -0.83858 l -0.13767,1.21635 c -0.77704,6.86201 -5.51511,12.37952 -12.037,14.01722 -1.53858,0.38633 -2.37287,0.41921 -10.365309,0.40849 -7.87203,-0.01 -8.841729,-0.0502 -10.278579,-0.41961 z m 21.390125,-1.80791 c 4.59001,-1.64329 8.00569,-5.2614 9.26826,-9.81762 0.2406,-0.86834 0.43753,-2.03288 0.43753,-2.58786 v -1.00906 H 94.045626 73.315024 v 1.00906 c 0,1.38545 0.72487,3.88094 1.624707,5.59334 1.413869,2.69059 4.421569,5.38934 7.264101,6.51789 2.460201,0.97678 3.180444,1.03437 12.370637,0.98937 l 8.673001,-0.0425 z M 92.247566,185.5181 c -1.35137,-0.61377 -2.641853,-2.59418 -2.641853,-4.05421 0,-1.49188 1.317576,-3.47787 2.687942,-4.05154 0.374385,-0.15665 1.162773,-0.28497 1.751971,-0.28497 1.409442,0 2.262266,0.38109 3.214553,1.43642 1.826234,2.02388 1.525976,4.64597 -0.740919,6.47032 -0.689914,0.55524 -1.007896,0.6569 -2.221136,0.71011 -0.872117,0.0382 -1.659688,-0.0485 -2.050558,-0.22611 z m 3.21444,-1.61224 c 0.949949,-0.57922 1.40411,-1.36908 1.40411,-2.44197 0,-1.07292 -0.454161,-1.86278 -1.40411,-2.442 -1.849176,-1.12751 -4.236867,0.2486 -4.236867,2.442 0,1.55887 1.279998,2.85415 2.820487,2.85415 0.40721,0 1.044581,-0.18539 1.41638,-0.41218 z m 21.179894,-11.59095 0.0677,-0.47596 H 94.060465 c -21.821783,0 -22.649147,0.015 -22.649147,0.38784 0,0.21337 0.06389,0.45169 0.141988,0.52977 0.0781,0.0782 10.239786,0.11768 22.581548,0.0882 l 22.439556,-0.054 z m -33.603968,-2.4415 c -0.02349,-0.77358 -1.189067,-5.51989 -1.370296,-5.5803 -0.19433,-0.0647 -6.482019,5.46659 -6.607694,5.81288 -0.02923,0.0805 1.755612,0.11868 3.966314,0.0847 2.971697,-0.0457 4.01743,-0.12842 4.011676,-0.31731 z m 9.086237,0.19188 c -0.140489,-0.12992 -4.405272,-2.24542 -4.52657,-2.24542 -0.06029,0 -0.109608,0.52033 -0.109608,1.15629 v 1.15629 l 2.274021,0.06 c 2.216097,0.0585 2.54397,0.041 2.362162,-0.12717 z m 11.006221,-0.99032 c 0.39264,-0.57537 0.6618,-1.09822 0.59814,-1.16188 -0.18339,-0.18339 -10.761191,-1.07717 -10.859803,-0.91761 -0.04875,0.079 0.209346,0.81809 0.573565,1.64269 l 0.662213,1.49928 3.831107,0.0575 c 2.107108,0.0317 3.977308,0.028 4.156018,-0.007 0.17864,-0.0362 0.64613,-0.53647 1.03876,-1.11184 z m 3.39589,1.06802 c 0,-0.0602 -0.24709,-0.47333 -0.54933,-0.91798 l -0.54934,-0.80843 -0.50834,0.74811 c -0.27958,0.41145 -0.50834,0.82455 -0.50834,0.91796 0,0.0934 0.47596,0.1699 1.05768,0.1699 0.58172,0 1.05767,-0.0492 1.05767,-0.10943 z m -20.582085,-1.18047 c -0.06723,-0.65133 -0.03368,-1.41716 0.07455,-1.70183 0.190233,-0.50032 1.403948,-1.19844 1.731554,-0.99597 0.08842,0.0547 0.160751,-0.0502 0.160751,-0.23335 0,-0.29532 -0.0771,-0.29924 -0.687495,-0.035 -2.811353,1.2175 -3.145004,1.41223 -3.038921,1.77363 0.05926,0.20188 0.172894,0.74777 0.252565,1.21313 0.192931,1.12711 0.223462,1.16346 0.977489,1.16346 h 0.65172 z m 27.882955,0.70829 c -0.061,-0.26179 -0.44735,-2.08999 -0.85845,-4.06271 -0.41107,-1.97271 -0.78861,-3.62794 -0.83896,-3.67829 -0.0847,-0.0847 -2.43233,1.93164 -4.81062,4.13176 l -1.00526,0.92993 1.06457,1.57763 1.0646,1.57763 h 2.74756 c 2.74117,0 2.74729,-0.001 2.63656,-0.47595 z m -22.595128,-2.61842 c -0.01674,-0.59119 0.112206,-0.88268 0.561575,-1.26922 0.65913,-0.56695 0.716642,-0.56973 4.431018,-0.21437 2.107569,0.20163 2.754594,0.20263 2.91877,0.005 0.232183,-0.27978 0.392092,-0.21187 -6.234633,-2.6492 -2.195939,-0.80768 -4.02561,-1.43552 -4.06593,-1.39522 -0.04032,0.0402 0.143012,1.3013 0.407427,2.80213 0.453097,2.57192 0.5166,2.75061 1.104417,3.10759 0.84959,0.51596 0.902276,0.49275 0.877356,-0.38648 z m 12.550598,-1.12458 c -0.31351,-0.58579 -0.65852,-0.74749 -0.87287,-0.40908 -0.33894,0.53515 -0.2848,0.58142 0.92689,0.79157 0.0914,0.015 0.0669,-0.15641 -0.054,-0.38249 z m -20.097933,23.66581 c -6.646288,-1.73993 -11.145362,-7.00295 -11.967742,-13.99988 l -0.142962,-1.21635 H 70.75221 69.930438 v -2.11535 -2.11538 l 1.322102,-0.002 1.322106,-0.002 4.090865,-3.68037 c 2.249976,-2.0242 4.313783,-3.7363 4.586243,-3.80468 1.152175,-0.2892 2.064475,0.55603 2.32107,2.15037 0.07958,0.49445 0.241276,0.89903 0.359346,0.89903 0.118053,0 1.006207,-0.37093 1.973658,-0.8243 l 1.759,-0.82429 -0.189134,-0.81512 c -0.458159,-1.97447 0.07151,-3.24856 1.349758,-3.24691 0.912652,0.001 11.378368,3.89823 11.718678,4.36362 0.14891,0.20362 0.27298,0.66134 0.27581,1.01725 0.005,0.63578 0.015,0.62979 0.55663,-0.34359 0.95926,-1.72314 2.38461,-1.88359 3.37938,-0.38042 0.30653,0.46322 0.61762,0.84221 0.69125,0.84221 0.0737,0 1.41748,-1.14025 2.98629,-2.53389 2.50421,-2.22459 2.94471,-2.53445 3.60878,-2.53844 1.31734,-0.008 1.53203,0.44038 2.55578,5.33677 l 0.91771,4.38938 h 1.32254 1.32251 v 2.11537 2.11536 h -0.82177 -0.82177 l -0.14291,1.21635 c -0.46212,3.93166 -2.02498,7.23975 -4.66996,9.88473 -2.05703,2.05703 -4.38708,3.35928 -7.38014,4.12471 -1.55057,0.39656 -2.31058,0.42707 -10.365298,0.41627 -7.927511,-0.01 -8.831218,-0.048 -10.274217,-0.42584 z m 21.169703,-1.72132 c 2.33434,-0.82274 4.11594,-1.942 5.79688,-3.64181 2.38237,-2.40912 3.80927,-5.35551 4.06376,-8.39127 l 0.12267,-1.46183 H 94.045751 73.253789 l 0.12255,1.46183 c 0.254506,3.03576 1.681402,5.98215 4.063774,8.39127 2.134918,2.1589 4.846853,3.61865 7.619427,4.10133 0.57947,0.10094 4.908835,0.16615 9.620816,0.14516 l 8.567244,-0.0382 z m -12.606824,-2.35847 c -1.492679,-0.68803 -2.630777,-2.43913 -2.639567,-4.06131 -0.0067,-1.24571 0.913134,-2.95733 1.962622,-3.65186 0.742579,-0.49142 1.074485,-0.56752 2.475005,-0.56752 1.40052,0 1.732429,0.0762 2.475008,0.56752 1.049623,0.6946 1.967264,2.40335 1.967264,3.66323 0,1.23939 -0.882955,2.88865 -1.937857,3.6197 -0.70082,0.48565 -1.133582,0.61195 -2.267018,0.66149 -0.869663,0.038 -1.641484,-0.0497 -2.035457,-0.23135 z m 3.297339,-1.67652 c 0.901487,-0.60751 1.243619,-1.27844 1.247582,-2.44655 0.0092,-2.70816 -3.346565,-3.76691 -5.055086,-1.59487 -0.509124,0.64725 -0.596416,2.19615 -0.171144,3.03663 0.703615,1.39052 2.669518,1.88702 3.978636,1.00479 z M 116.46853,172.3678 v -0.52885 H 94.045626 71.622731 v 0.52885 0.52885 h 22.422895 22.422904 z m -33.537512,-2.93472 c -0.545638,-2.90849 -1.106133,-5.10367 -1.303122,-5.10367 -0.128546,0 -1.398504,1.04711 -2.82212,2.3269 -1.423613,1.27979 -2.884451,2.58481 -3.246306,2.90004 l -0.657921,0.57313 4.081668,0.007 4.081669,0.008 z m 2.984657,-0.40938 c -0.191158,-1.52996 0.103286,-2.20914 1.147967,-2.64789 0.463715,-0.19488 0.844084,-0.42055 0.845268,-0.50175 0.002,-0.13441 -3.464829,1.32297 -3.695293,1.55342 -0.05432,0.0542 -0.01549,0.42659 0.08652,0.82725 0.101888,0.40068 0.243926,0.99026 0.315602,1.31022 0.107833,0.48128 0.2434,0.58171 0.785282,0.58171 h 0.654955 z m 4.110755,-0.0405 c -1.221627,-0.62796 -2.292532,-1.14665 -2.379791,-1.15259 -0.08725,-0.005 -0.158653,0.51271 -0.158653,1.15259 v 1.16346 l 2.379791,-0.01 2.379789,-0.01 z m 13.09232,0.0949 c 0.39461,-0.58164 0.66939,-1.10559 0.61068,-1.16431 -0.15841,-0.1584 -10.70343,-1.04883 -10.837198,-0.91506 -0.06301,0.063 0.194531,0.79656 0.572296,1.6301 l 0.686868,1.51552 4.124967,-0.005 4.124957,-0.005 0.71743,-1.05752 z m 2.8576,0.22836 -0.55599,-0.84013 -0.50471,0.74374 c -0.27761,0.40907 -0.50472,0.78712 -0.50472,0.84013 0,0.053 0.47731,0.0964 1.06068,0.0964 h 1.06069 z m 7.87306,0.46991 c -0.06,-0.20362 -0.45549,-2.03602 -0.87876,-4.07207 -0.42324,-2.03605 -0.80553,-3.73821 -0.84953,-3.78258 -0.044,-0.0445 -1.3446,1.04653 -2.89027,2.42421 -1.54568,1.37771 -2.84226,2.52478 -2.88126,2.54904 -0.039,0.025 0.41605,0.76583 1.01126,1.64786 l 1.08218,1.60374 h 2.75778 c 2.52703,0 2.74864,-0.031 2.6486,-0.3702 z m -22.650663,-2.35183 c -0.180664,-0.56925 0.205124,-1.43124 0.821211,-1.83492 0.480237,-0.31468 0.82664,-0.3229 3.581858,-0.0852 2.967589,0.25614 4.22913,0.17814 3.520692,-0.21737 -0.469699,-0.26228 -10.206961,-3.83112 -10.271549,-3.76466 -0.14571,0.14991 0.923563,5.5434 1.111428,5.60601 0.118577,0.0395 0.395667,0.20812 0.615769,0.37482 0.551241,0.41729 0.769248,0.38963 0.620591,-0.0787 z m 12.375723,-1.70213 c -0.20237,-0.37824 -0.6443,-0.62014 -0.6443,-0.35271 0,0.0487 -0.055,0.23136 -0.12193,0.40623 -0.0832,0.21687 0.0345,0.34261 0.37017,0.39591 0.64643,0.10268 0.67449,0.0707 0.39606,-0.44943 z m -20.025177,23.89048 c -6.393071,-1.67617 -11.155446,-7.2813 -11.85245,-13.94986 l -0.134393,-1.28571 h -0.816011 -0.816011 v -2.11535 -2.11538 l 1.322102,-0.005 1.322106,-0.005 4.036381,-3.65983 c 2.220011,-2.01291 4.203021,-3.72378 4.406688,-3.80196 1.172788,-0.45002 2.326699,0.47061 2.562741,2.04467 0.08135,0.54246 0.224263,0.98629 0.317595,0.98629 0.09332,0 0.945809,-0.34978 1.894402,-0.77727 l 1.724715,-0.77727 -0.14631,-1.56127 c -0.135267,-1.44354 -0.109657,-1.60027 0.339589,-2.07847 0.315277,-0.3356 0.719106,-0.51721 1.150069,-0.51721 0.559924,0 6.483333,2.06191 10.427928,3.6299 1.197306,0.47593 1.523456,0.86002 1.531276,1.80326 0.005,0.54384 0.0552,0.50404 0.58175,-0.45767 0.93907,-1.71494 2.33159,-1.84829 3.38557,-0.3242 0.31668,0.45795 0.62339,0.83292 0.68155,0.83327 0.0582,3.7e-4 1.34325,-1.09905 2.85575,-2.44318 1.5125,-1.3441 2.96873,-2.53007 3.23606,-2.63545 0.66579,-0.26247 1.85926,0.25606 2.06426,0.89687 0.0872,0.27238 0.54849,2.35151 1.02519,4.62024 l 0.86675,4.12496 1.32211,0.063 1.32209,0.063 v 2.10528 2.10526 h -0.816 -0.81603 l -0.13441,1.28571 c -0.70152,6.71152 -5.48911,12.31101 -11.93575,13.95977 -1.45685,0.3726 -2.37331,0.40723 -10.499763,0.39658 -7.989071,-0.01 -9.058279,-0.0522 -10.409611,-0.4065 z m 19.759987,-1.38405 c 5.96407,-1.17585 10.84369,-6.49196 11.39403,-12.4132 l 0.13367,-1.43832 H 94.045626 73.254271 l 0.133668,1.43832 c 0.430566,4.6327 3.459788,8.95687 7.781281,11.10768 3.010253,1.4982 3.734471,1.58979 12.726666,1.60973 6.161474,0.0125 8.122594,-0.0497 9.413394,-0.30421 z m -10.331111,-2.51323 c -3.684472,-0.96191 -4.551352,-5.74917 -1.425154,-7.87029 1.243971,-0.84404 2.330563,-1.01768 3.743061,-0.59821 2.863316,0.8503 4.018312,4.01119 2.413942,6.60622 -0.9729,1.57363 -2.912913,2.33714 -4.731849,1.86228 z m 2.233071,-1.70063 c 2.231802,-0.93251 2.050134,-4.37941 -0.273477,-5.18887 -0.784688,-0.27333 -0.999583,-0.27333 -1.784271,0 -1.692091,0.58947 -2.384968,2.61667 -1.429812,4.18331 0.714876,1.17253 2.119006,1.57738 3.48756,1.00556 z m 21.25729,-11.75301 c 0,-0.42042 -0.14092,-0.42309 -22.422904,-0.42309 -22.281869,0 -22.422895,0.002 -22.422895,0.42309 0,0.42039 0.141038,0.42307 22.422895,0.42307 22.281864,0 22.422904,-0.002 22.422904,-0.42307 z m -33.492078,-2.59133 c -0.06331,-0.26179 -0.327254,-1.52307 -0.586514,-2.80286 -0.259261,-1.27981 -0.545918,-2.41231 -0.637012,-2.5167 -0.09109,-0.10444 -1.418736,0.94272 -2.950318,2.3269 -1.531581,1.38419 -3.035875,2.72744 -3.342874,2.98504 l -0.558185,0.46836 4.095015,0.007 4.095015,0.008 z M 85.86689,168.866 c -0.116354,-1.11316 -0.07283,-1.36316 0.332748,-1.91175 l 0.466603,-0.63111 -0.699695,0.29891 c -1.903186,0.81308 -1.826461,0.73293 -1.622581,1.69516 0.400571,1.89057 0.36618,1.82945 1.029443,1.82945 h 0.627334 z m 4.15954,0.12168 c -1.221627,-0.63177 -2.292532,-1.153 -2.379791,-1.15827 -0.08725,-0.005 -0.158653,0.51396 -0.158653,1.15384 v 1.16346 l 2.379791,-0.005 2.379789,-0.005 -2.221136,-1.14867 z m 13.07741,0.0772 c 0.38638,-0.59076 0.66714,-1.10949 0.62391,-1.15272 -0.13741,-0.13741 -10.732239,-1.01667 -10.84858,-0.90034 -0.06126,0.0612 0.199902,0.78786 0.580409,1.61463 l 0.691817,1.50323 4.124967,0.005 4.124957,0.005 z m 2.86566,0.23136 c -0.30953,-0.46774 -0.57994,-0.82472 -0.60088,-0.79327 -0.02,0.0315 -0.25275,0.41415 -0.51513,0.85046 l -0.47706,0.79326 h 1.07794 1.07793 z m 7.06374,-3.22162 c -0.46502,-2.23965 -0.87654,-4.10648 -0.91452,-4.14851 -0.10918,-0.12092 -5.59244,4.85552 -5.59244,5.07539 0,0.10843 0.43698,0.86059 0.97106,1.67125 l 0.97103,1.47394 h 2.70518 2.70517 z m -21.869709,1.13747 c -0.09517,-0.47581 0.01324,-0.75846 0.499089,-1.30232 l 0.620629,-0.6946 3.325063,0.27573 c 2.252406,0.18688 3.394417,0.20637 3.540058,0.0607 0.145635,-0.14566 -0.864527,-0.611 -3.131367,-1.44251 -1.8405,-0.67511 -4.155493,-1.53321 -5.144428,-1.90688 -0.988932,-0.37365 -1.855555,-0.64583 -1.925825,-0.6048 -0.124173,0.0725 0.735863,5.3247 0.894536,5.46282 0.08542,0.0745 1.317276,0.73702 1.39619,0.75106 0.02618,0.005 -0.007,-0.26501 -0.07395,-0.59923 z m -3.270099,-1.21665 c 0.274352,-0.24735 -0.168496,-0.20987 -0.6173,0.0525 l -0.528523,0.30881 0.528842,-0.14092 c 0.290862,-0.0774 0.568504,-0.17664 0.616981,-0.22036 z m 15.671348,-0.29102 c -0.19488,-0.36435 -0.63461,-0.59614 -0.63461,-0.3346 0,0.0487 -0.0577,0.23911 -0.12842,0.42307 -0.0972,0.25309 0.007,0.33459 0.43051,0.33459 0.49337,0 0.53237,-0.0497 0.33249,-0.42306 z" />
    </g>
  </g>
</svg>
