<?xml version="1.0" encoding="UTF-8" standalone="no"?>
<!-- Created with Inkscape (http://www.inkscape.org/) -->

<svg
   width="139mm"
   height="111mm"
   viewBox="0 0 139 111"
   version="1.1"
   id="svg5"
   inkscape:version="1.1.1 (3bf5ae0d25, 2021-09-20)"
   sodipodi:docname="zestawpopcorn.svg"
   xmlns:inkscape="http://www.inkscape.org/namespaces/inkscape"
   xmlns:sodipodi="http://sodipodi.sourceforge.net/DTD/sodipodi-0.dtd"
   xmlns="http://www.w3.org/2000/svg"
   xmlns:svg="http://www.w3.org/2000/svg">
  <sodipodi:namedview
     id="namedview7"
     pagecolor="#ffffff"
     bordercolor="#666666"
     borderopacity="1.0"
     inkscape:pageshadow="2"
     inkscape:pageopacity="0.0"
     inkscape:pagecheckerboard="0"
     inkscape:document-units="mm"
     showgrid="false"
     inkscape:zoom="0.69664703"
     inkscape:cx="396.18342"
     inkscape:cy="367.47447"
     inkscape:window-width="1920"
     inkscape:window-height="986"
     inkscape:window-x="-11"
     inkscape:window-y="-11"
     inkscape:window-maximized="1"
     inkscape:current-layer="layer1" />
  <defs
     id="defs2" />
  <g
     inkscape:label="Warstwa 1"
     inkscape:groupmode="layer"
     id="layer1">
    <g
       id="g836"
       transform="matrix(6.6639197,0,0,5.7082313,-677.36666,-764.60815)" />
    <g
       id="g21"
       transform="matrix(2.4270827,0,0,2.4270827,-191.01945,-338.25716)">
      <path
         id="path23"
         style="fill:#333333;fill-opacity:1;stroke-width:0.371586"
         d="m 110.66691,167.57913 c -1.08477,-9.29633 -2.05917,-17.2765 -2.16535,-17.73369 l -0.19302,-0.83127 h 9.70538 9.70539 l 0.71098,-4.34106 0.71096,-4.34107 3.45224,-0.10622 c 3.23539,-0.0996 3.45223,-0.06 3.45223,0.63035 0,0.65799 -0.28872,0.74816 -2.70594,0.84513 l -2.70595,0.10855 -0.45792,2.58617 c -0.25185,1.42239 -0.54359,3.04335 -0.6483,3.60215 l -0.19037,1.016 h 3.38394 3.38393 l -0.19866,1.01599 c -0.10927,0.55879 -1.08112,8.53896 -2.15967,17.7337 l -1.96099,16.7177 h -9.57329 -9.57329 z m 19.58474,14.96281 c 0.16231,-0.46222 2.80865,-22.5895 2.80576,-23.46021 -0.001,-0.29222 -0.55049,-0.46181 -1.49647,-0.46181 -1.24577,0 -1.49492,-0.12315 -1.49492,-0.73891 0,-0.62746 0.24915,-0.7389 1.65205,-0.7389 h 1.65204 l 0.24666,-2.4938 c 0.13565,-1.37159 0.32855,-2.78474 0.42867,-3.14034 0.16067,-0.57076 -0.12086,-0.64654 -2.40189,-0.64654 h -2.5839 l -1.60976,9.60575 c -1.57622,9.40561 -1.62817,9.60576 -2.49379,9.60576 -0.72444,0 -0.84943,-0.15009 -0.69231,-0.83127 0.10541,-0.4572 0.7824,-4.40571 1.50431,-8.77449 0.72191,-4.36877 1.39886,-8.31729 1.50431,-8.77448 l 0.19172,-0.83127 h -8.62814 c -8.03745,0 -8.61567,0.0443 -8.44612,0.64654 0.10012,0.3556 0.29299,1.76875 0.42867,3.14034 l 0.24665,2.4938 h 6.51056 c 6.2614,0 6.51055,0.0283 6.51055,0.7389 0,0.70993 -0.24915,0.73891 -6.35343,0.73891 -5.22335,0 -6.35344,0.0928 -6.35344,0.52183 0,0.93133 2.63429,22.92399 2.80289,23.40019 0.12381,0.34973 2.07423,0.46182 8.03533,0.46182 5.96182,0 7.91117,-0.11206 8.034,-0.46182 z m -14.1954,-3.32506 c -0.14743,-0.43024 -2.06071,-16.47004 -2.06071,-17.27564 0,-0.20114 0.33317,-0.3657 0.74036,-0.3657 0.91027,0 0.89745,-0.0582 1.87007,8.4974 0.42734,3.75917 0.87051,7.45831 0.98479,8.22031 0.18445,1.22975 0.11879,1.38544 -0.58423,1.38544 -0.43564,0 -0.86326,-0.20782 -0.95028,-0.46181 z m -3.55563,4.7736 c 0,-0.63429 -3.66697,-31.76394 -3.95689,-33.59087 l -0.21986,-1.38544 h 9.68625 9.68625 l 0.68786,-4.43343 0.68785,-4.43343 h 3.48681 c 3.21165,0 3.48683,0.0571 3.48683,0.72272 0,0.64059 -0.30672,0.73506 -2.69926,0.83127 l -2.69928,0.10855 -0.46434,2.77089 c -0.25539,1.52399 -0.55753,3.14496 -0.67144,3.60216 -0.20333,0.81619 -0.14536,0.83127 3.19647,0.83127 h 3.40356 l -0.22257,1.38544 c -0.28381,1.76667 -3.95419,32.95447 -3.95419,33.59937 0,0.38477 -1.96957,0.48258 -9.71702,0.48258 -7.83339,0 -9.71703,-0.0952 -9.71703,-0.49108 z m 19.14932,-12.80919 c 0.76839,-6.40075 1.32025,-11.84555 1.22635,-12.09956 -0.0938,-0.25399 -0.7646,-0.46181 -1.49048,-0.46181 -1.07064,0 -1.31979,-0.13949 -1.31979,-0.73891 0,-0.62943 0.24915,-0.7389 1.6818,-0.7389 1.57787,0 1.68373,-0.0627 1.71331,-1.01599 0.0174,-0.5588 0.15236,-1.97195 0.3,-3.14034 l 0.26846,-2.12435 h -2.46051 -2.4605 l -1.2415,7.48141 c -2.10991,12.7146 -1.86554,11.7301 -2.91156,11.7301 -0.69774,0 -0.87456,-0.15598 -0.73296,-0.64654 0.44686,-1.54798 2.97742,-18.19627 2.79351,-18.37807 -0.11201,-0.11073 -3.88631,-0.15652 -8.38731,-0.1018 l -8.18367,0.0996 0.31772,3.04798 0.3177,3.04798 h 6.5029 c 6.25374,0 6.50289,0.0283 6.50289,0.7389 0,0.70993 -0.24915,0.73891 -6.35343,0.73891 -4.28573,0 -6.35344,0.12938 -6.35344,0.39754 0,0.79771 2.66749,23.07657 2.81751,23.53186 0.11994,0.36399 1.93713,0.44682 8.10527,0.36945 l 7.95067,-0.0997 z m -15.5966,8.03559 c -0.18095,-0.51866 -2.0578,-16.08072 -2.0578,-17.06256 0,-0.4406 0.25034,-0.59466 0.83216,-0.51211 0.79797,0.1132 0.87403,0.46717 1.85119,8.61545 1.23706,10.31549 1.20908,9.42103 0.29478,9.42103 -0.41755,0 -0.8317,-0.20782 -0.92033,-0.46181 z m -3.55272,4.87569 c 0,-0.43491 -3.599,-31.04581 -3.93963,-33.50824 l -0.21723,-1.57016 h 9.65138 9.65137 l 0.70681,-4.43343 0.70682,-4.43343 h 3.49278 c 3.21757,0 3.4928,0.057 3.4928,0.72272 0,0.64064 -0.30673,0.73505 -2.70064,0.83127 l -2.70065,0.10855 -0.60042,3.60215 -0.60043,3.60217 h 3.30108 c 1.81558,0 3.30106,0.0813 3.30106,0.18057 0,0.0993 -0.92498,7.8927 -2.05553,17.31861 -1.13053,9.42592 -2.05552,17.32482 -2.05552,17.55312 0,0.29652 -2.77585,0.41509 -9.71702,0.41509 -6.55445,0 -9.71703,-0.1266 -9.71703,-0.38899 z m 18.93519,-11.51068 c 0.65507,-5.54549 1.29337,-10.87243 1.41842,-11.83762 l 0.22739,-1.75489 h -1.44552 c -1.69095,0 -1.92904,-0.16081 -1.67272,-1.12975 0.14618,-0.5526 0.51833,-0.71752 1.6191,-0.71752 0.78609,0 1.51337,-0.13451 1.61615,-0.2989 0.10273,-0.1644 0.30486,-1.58609 0.44908,-3.15934 l 0.26221,-2.86043 -2.38913,0.11135 -2.3891,0.11136 -1.56938,9.23631 c -0.86317,5.07996 -1.57792,9.36099 -1.58837,9.51339 -0.0106,0.1524 -0.45279,0.27709 -0.98301,0.27709 -0.85353,0 -0.93988,-0.11644 -0.75349,-1.016 0.52476,-2.53248 2.83871,-16.73689 2.83871,-17.42567 0,-0.75697 -0.13834,-0.76984 -8.27364,-0.76984 h -8.27365 l 0.26048,2.84144 c 0.14324,1.5628 0.34455,2.97594 0.44733,3.14034 0.10273,0.16439 3.04769,0.2989 6.54425,0.2989 h 6.35737 l -0.11943,0.83127 c -0.11778,0.81983 -0.2061,0.83266 -6.41929,0.93274 l -6.29987,0.10148 0.20299,1.1916 c 0.11165,0.65539 0.73325,5.84671 1.38136,11.53627 0.6481,5.68957 1.22599,10.51092 1.28419,10.71412 0.0671,0.23463 3.01981,0.34127 8.09116,0.29224 l 7.98535,-0.0772 z m -16.26291,0.3543 c -1.45577,-12.17889 -1.43023,-11.44624 -0.39403,-11.30134 0.8798,0.12304 0.9157,0.2793 1.89662,8.25336 1.26851,10.31191 1.25889,9.79048 0.18037,9.79048 -0.85872,0 -0.89383,-0.14066 -1.68296,-6.7425 z m -2.67228,11.34473 c 0,-0.11036 -0.92475,-7.96584 -2.05501,-17.45661 -1.13026,-9.49079 -2.05526,-17.37785 -2.05553,-17.52681 -2.8e-4,-0.14898 4.32765,-0.31523 9.61762,-0.36946 l 9.61814,-0.0987 0.71165,-4.34106 c 0.69573,-4.24402 0.73345,-4.34148 1.68724,-4.35947 0.53659,-0.0105 2.06878,-0.0426 3.40487,-0.0721 2.34242,-0.0518 2.42926,-0.0215 2.42926,0.84966 0,0.86281 -0.11861,0.90826 -2.63685,1.01054 l -2.63683,0.1071 -0.44645,3.05242 c -0.24555,1.67884 -0.44644,3.25161 -0.44644,3.49506 0,0.30917 0.95788,0.44265 3.17671,0.44265 1.7472,0 3.17649,0.12468 3.17622,0.27708 -2.9e-4,0.1524 -0.92527,8.04227 -2.05553,17.53306 -1.13026,9.49077 -2.05502,17.34625 -2.05502,17.45661 0,0.11035 -4.37266,0.20064 -9.71702,0.20064 -5.34437,0 -9.71703,-0.0903 -9.71703,-0.20064 z m 18.92849,-11.80654 c 0.64778,-5.48636 1.27088,-10.76492 1.38466,-11.73011 l 0.20688,-1.75489 h -1.70417 c -1.40042,0 -1.66373,-0.10421 -1.47731,-0.5844 0.12477,-0.32142 0.22685,-0.73705 0.22685,-0.92364 0,-0.18657 0.66279,-0.33923 1.47287,-0.33923 0.81008,0 1.54952,-0.12468 1.64324,-0.27709 0.0936,-0.1524 0.29237,-1.57401 0.44148,-3.15914 l 0.2711,-2.88206 -2.36885,0.11117 -2.36884,0.11116 -1.56868,9.31219 c -0.86276,5.12171 -1.67724,9.48585 -1.80995,9.69812 -0.27466,0.43935 -1.69331,0.53073 -1.68974,0.10883 0.001,-0.15239 0.67401,-4.32176 1.49492,-9.26524 0.82093,-4.94349 1.49258,-9.22452 1.49258,-9.51339 0,-0.43818 -1.37008,-0.52523 -8.266,-0.52523 h -8.26601 l 0.26933,2.86325 c 0.14813,1.57479 0.34599,2.98794 0.4397,3.14034 0.0936,0.15241 3.01949,0.27709 6.50175,0.27709 h 6.33138 v 0.92363 0.92364 h -6.37038 -6.37036 l 0.20011,1.20071 c 0.11006,0.6604 0.71935,5.77269 1.35398,11.36065 0.63463,5.58797 1.22094,10.37108 1.30289,10.62912 0.11563,0.36414 1.92911,0.44686 8.09889,0.36946 l 7.9499,-0.0997 z m -15.56678,6.7425 c -0.001,-0.254 -0.41861,-3.87002 -0.92794,-8.03559 -1.17202,-9.58541 -1.17219,-9.60575 -0.0807,-9.60575 0.84232,0 0.87695,0.16181 1.87809,8.77448 0.56098,4.82597 1.01572,8.89918 1.01052,9.05158 -0.0164,0.48195 -1.87801,0.29904 -1.87997,-0.18472 z m -2.89275,5.33068 c -0.3076,-0.19308 -1.16294,-6.13232 -2.5227,-17.51668 -1.13152,-9.4735 -2.05731,-17.40279 -2.05731,-17.62064 0,-0.27142 2.99147,-0.39607 9.50497,-0.39607 8.72821,0 9.52107,-0.0529 9.70187,-0.64654 0.1083,-0.3556 0.45988,-2.28961 0.78131,-4.2978 0.3214,-2.0082 0.67451,-3.79542 0.78465,-3.97161 0.11017,-0.17619 1.70399,-0.32036 3.54182,-0.32036 h 3.34153 v 1.09217 1.09218 l -2.7022,0.10854 -2.7022,0.10855 -0.45155,2.58616 c -0.79326,4.54327 -0.97903,4.24871 2.67923,4.24871 2.01104,0 3.17672,0.14534 3.17672,0.39607 0,0.21785 -0.92578,8.14714 -2.05732,17.62064 -1.35975,11.38436 -2.2151,17.3236 -2.52268,17.51668 -0.25596,0.16069 -4.41759,0.29215 -9.24807,0.29215 -4.83049,0 -8.99212,-0.13146 -9.24807,-0.29215 z m 17.26689,-2.74452 c 0.10158,-0.4572 0.69926,-5.32011 1.32817,-10.80648 0.62892,-5.48636 1.23509,-10.4324 1.34705,-10.99119 0.19831,-0.98975 0.15935,-1.01599 -1.50792,-1.01599 -1.74354,0 -1.99433,-0.26504 -1.35984,-1.43703 0.24782,-0.45775 0.7478,-0.63003 1.69321,-0.58341 0.73784,0.0364 1.40001,-0.0345 1.4715,-0.15743 0.0715,-0.12297 0.24966,-1.52036 0.39597,-3.10532 l 0.26601,-2.88175 -2.35765,0.11085 -2.35764,0.11086 -1.03491,6.28069 c -2.23184,13.54478 -2.12928,13.11555 -3.13433,13.11555 -0.49488,0 -0.89979,-0.17705 -0.89979,-0.39345 0,-0.21638 0.67273,-4.38233 1.49493,-9.25767 0.82221,-4.87533 1.49492,-9.104 1.49492,-9.39703 0,-0.44803 -1.3134,-0.53281 -8.25398,-0.53281 h -8.25398 l 0.26425,2.86325 c 0.14534,1.57479 0.34211,2.99484 0.43727,3.15568 0.0951,0.16084 2.89169,0.27816 6.2145,0.26073 3.32282,-0.0174 6.2284,-0.0243 6.45684,-0.0153 0.23948,0.009 0.33971,0.40743 0.23672,0.93999 l -0.1786,0.92363 h -6.3268 -6.32681 l 0.20593,1.20072 c 0.11326,0.66039 0.71348,5.60643 1.33381,10.9912 0.62035,5.38477 1.21122,10.16455 1.31306,10.62175 0.18483,0.82979 0.19903,0.83126 8.01929,0.83126 7.8204,0 7.83445,-0.001 8.01882,-0.83127 z m -14.37226,-2.40729 c 0,-0.15561 -0.42046,-3.75246 -0.93433,-7.993 -0.51388,-4.24052 -0.93434,-8.18641 -0.93434,-8.76863 0,-0.88285 0.15511,-1.05858 0.93434,-1.05858 0.63961,0 0.93522,0.20393 0.93714,0.64654 0.001,0.3556 0.41973,4.13786 0.92931,8.40504 1.14896,9.62135 1.14883,9.05157 0.002,9.05157 -0.51388,0 -0.93432,-0.12733 -0.93432,-0.28294 z m -3.36359,5.31195 c 0,-0.0789 -0.925,-7.90386 -2.05553,-17.38896 -1.13053,-9.48512 -2.05552,-17.48391 -2.05552,-17.77512 0,-0.44579 1.50487,-0.52945 9.52304,-0.52945 h 9.52304 l 0.18831,-0.83127 c 0.10357,-0.4572 0.45421,-2.40269 0.77918,-4.32332 0.32498,-1.92062 0.67382,-3.62472 0.77519,-3.78688 0.10138,-0.16216 1.68803,-0.29484 3.52586,-0.29484 h 3.34153 v 1.09217 1.09218 l -2.6987,0.10854 -2.69871,0.10855 -0.44955,2.77089 c -0.71875,4.43007 -0.9593,4.06398 2.67024,4.06398 2.56057,0 3.17672,0.10642 3.17672,0.54871 0,0.3018 -0.92498,8.27694 -2.05553,17.72254 -1.13053,9.44559 -2.05552,17.26196 -2.05552,17.3697 0,0.10774 -4.37266,0.1959 -9.71702,0.1959 -5.34437,0 -9.71703,-0.0645 -9.71703,-0.14332 z m 17.73028,-2.90466 c 0.0985,-0.4572 0.69389,-5.40324 1.32305,-10.9912 0.62914,-5.58796 1.22767,-10.534 1.33004,-10.9912 0.17163,-0.76656 0.0547,-0.83126 -1.50279,-0.83126 -1.74382,0 -1.97245,-0.26377 -1.30203,-1.50211 0.26623,-0.49176 0.78379,-0.71461 1.65974,-0.71461 0.70006,0 1.34779,-0.12469 1.43937,-0.27709 0.0916,-0.15239 0.28675,-1.48242 0.43371,-2.95562 l 0.2672,-2.67852 h -2.2732 c -2.05143,0 -2.2919,0.0811 -2.46492,0.83127 -0.10541,0.45719 -0.78409,4.40571 -1.50808,8.77448 -1.77797,10.72862 -1.57841,9.97521 -2.64206,9.97521 -0.57383,0 -0.90463,-0.21263 -0.90463,-0.58147 0,-0.31982 0.67273,-4.547 1.49493,-9.39374 0.82221,-4.84674 1.49492,-8.9908 1.49492,-9.209 0,-0.27075 -2.62768,-0.39675 -8.27415,-0.39675 h -8.27415 l 0.23566,1.93962 c 0.12963,1.0668 0.23716,2.39683 0.23894,2.95562 l 0.003,1.01599 h 6.47801 c 3.56291,0 6.56606,0.087 6.67368,0.19341 0.10759,0.10637 0.11603,0.60513 0.0187,1.10835 l -0.17692,0.91496 h -6.31699 -6.317 l 0.18613,0.83126 c 0.10232,0.4572 0.70089,5.40324 1.33004,10.9912 0.62916,5.58796 1.22453,10.534 1.32304,10.9912 0.17885,0.82999 0.1912,0.83126 8.01326,0.83126 7.82205,0 7.8344,-0.001 8.01325,-0.83126 z m -14.36669,-2.2938 c 0,-0.43524 -1.88096,-16.02274 -2.04149,-16.91771 -0.16336,-0.91087 -0.0731,-1.01599 0.87231,-1.01599 h 1.05454 l 0.80595,6.7425 c 0.44327,3.70837 0.91347,7.78159 1.04488,9.05157 l 0.23894,2.30908 h -0.98756 c -0.54316,0 -0.98757,-0.0762 -0.98757,-0.16945 z m -3.54154,3.77161 c -0.44167,-3.09949 -3.9331,-32.90897 -3.9331,-33.58043 0,-0.65075 0.49268,-0.68625 9.52304,-0.68625 h 9.52304 l 0.1896,-0.83127 c 0.19085,-0.8369 1.31957,-7.86478 1.31957,-8.21633 0,-0.10379 1.59771,-0.18871 3.55045,-0.18871 h 3.55045 v 1.10836 1.10836 h -2.609 c -2.93386,0 -2.6239,-0.35552 -3.36077,3.85473 -0.58959,3.36878 -0.76955,3.16486 2.79305,3.16486 2.84633,0 3.17672,0.0714 3.17672,0.68625 0,0.67146 -3.49143,30.48094 -3.9331,33.58043 l -0.22375,1.57017 h -9.67122 -9.67123 z m 17.76535,-0.73891 c 0.012,-0.0508 0.64958,-5.37091 1.41667,-11.82246 l 1.39468,-11.7301 h -1.60354 c -1.63481,0 -1.89197,-0.30491 -1.37669,-1.63233 0.15227,-0.39228 0.69789,-0.58439 1.65973,-0.58439 0.78809,0 1.50518,-0.12469 1.59351,-0.27709 0.0884,-0.15239 0.27665,-1.48242 0.41843,-2.95562 l 0.25778,-2.67852 h -2.22451 c -2.63943,0 -2.17018,-1.15885 -3.9644,9.79048 -1.71174,10.44595 -1.53457,9.79048 -2.64617,9.79048 -0.56829,0 -0.92721,-0.21107 -0.92721,-0.54527 0,-0.29988 0.67273,-4.56391 1.49493,-9.47559 0.82221,-4.91168 1.49492,-9.07203 1.49492,-9.24522 0,-0.17318 -3.71644,-0.31488 -8.25879,-0.31488 h -8.2588 l 0.25047,2.30908 c 0.42795,3.94555 -0.23239,3.60215 6.92696,3.60215 3.46842,0 6.39211,0.1374 6.4971,0.30534 0.10498,0.16793 0.0962,0.66285 -0.0193,1.09981 -0.20308,0.76762 -0.42068,0.79788 -6.44006,0.89538 l -6.22989,0.10096 1.38653,11.45301 c 0.7626,6.29916 1.39832,11.5777 1.41271,11.7301 0.0229,0.24186 15.68755,0.42564 15.74492,0.18473 z m -14.35112,-4.06397 c -0.11575,-0.6604 -0.55666,-4.27641 -0.9798,-8.03558 -0.42313,-3.75918 -0.84748,-7.29206 -0.94297,-7.85086 -0.15708,-0.91914 -0.0677,-1.01599 0.93823,-1.01599 0.6369,0 1.11458,0.19727 1.11825,0.46181 0.003,0.254 0.42311,3.87001 0.93244,8.03559 1.1734,9.5967 1.17343,9.60575 0.0371,9.60575 -0.71487,0 -0.93468,-0.23924 -1.10323,-1.20072 z m -32.637437,5.94163 c -0.193722,-0.20149 -3.015834,-20.42401 -3.012081,-21.58374 4.93e-4,-0.14335 -0.208848,-0.2607 -0.465369,-0.2607 -0.25626,0 -0.517115,-0.11724 -0.579391,-0.26066 -0.221355,-0.50943 0.11315,-0.78202 0.959591,-0.78202 0.76619,0 0.840013,-0.0481 0.689778,-0.44887 -0.442099,-1.17948 0.01164,-2.71172 1.012646,-3.40909 0.164343,-0.11478 0.371068,-0.55768 0.45926,-0.98443 0.204484,-0.98887 1.190575,-1.98529 2.192953,-2.21574 1.475019,-0.33914 1.950133,0.6002 0.553503,1.09434 -0.971954,0.34387 -1.374318,0.86892 -1.374318,1.79333 0,0.47649 -0.233281,0.8396 -0.861945,1.34169 -1.039931,0.8305 -1.123615,1.58348 -0.257423,2.3169 l 0.604493,0.51187 h 12.184106 c 10.743184,0 12.229834,-0.0386 12.570744,-0.32738 1.09671,-0.92868 0.58113,-2.33567 -1.01266,-2.7636 -0.76462,-0.20517 -1.0894,-0.42754 -1.27161,-0.87012 -0.13466,-0.32695 -0.47511,-0.69885 -0.7567,-0.82646 -0.28157,-0.12759 -0.51202,-0.42109 -0.51202,-0.65215 0,-0.58428 -0.64048,-1.57404 -1.11925,-1.7296 -0.68888,-0.22389 -1.72314,-0.14162 -2.21993,0.1766 -0.74461,0.4769 -1.252591,0.37601 -1.591079,-0.31601 -0.332673,-0.68002 -1.540523,-1.34404 -2.108921,-1.15933 -0.18994,0.0616 -0.484706,-0.0357 -0.655015,-0.21676 -1.629067,-1.73029 -2.458872,-1.93546 -3.672246,-0.90802 -0.536894,0.45465 -0.972273,0.62562 -1.593026,0.62562 -0.954095,0 -2.063166,0.75721 -2.063166,1.40859 0,0.88566 -1.131264,1.19144 -1.374318,0.37146 -0.34454,-1.16247 1.564462,-3.03128 3.096463,-3.03128 0.365338,0 0.864243,-0.1872 1.108722,-0.41591 0.637072,-0.59607 2.00804,-0.87112 3.100512,-0.62203 0.855718,0.19508 2.195622,1.1004 2.195622,1.48346 0,0.099 0.227177,0.18004 0.504761,0.18004 0.604376,0 1.753705,0.47875 2.170611,0.90414 0.22251,0.2271 0.66234,0.28103 1.70597,0.20912 1.73099,-0.11922 2.81694,0.37255 3.4093,1.54418 0.84432,1.66993 1.51967,2.40214 2.64611,2.86884 1.52984,0.63384 2.27861,2.11675 1.84271,3.64944 -0.0611,0.21502 0.14194,0.33499 0.64905,0.38373 0.40591,0.0392 0.81125,0.17119 0.90074,0.29392 0.25801,0.35338 -0.0474,0.7821 -0.55687,0.7821 -0.27749,0 -0.46853,0.14754 -0.47194,0.36495 -0.0233,1.43142 -2.45012,18.48113 -2.65631,18.65571 -0.41432,0.35087 -1.03205,0.0173 -1.03205,-0.55616 0,-0.28906 0.49846,-4.35069 1.10773,-9.02583 0.60924,-4.67512 1.10794,-8.71138 1.10823,-8.96946 5e-4,-0.44946 -0.0866,-0.46921 -2.07323,-0.46921 h -2.07369 l -0.14689,1.30337 c -0.0808,0.71685 -0.41921,4.91631 -0.75192,9.33209 -0.33269,4.41582 -0.6642,8.52141 -0.73672,9.12357 l -0.13177,1.09484 h 2.22636 c 1.76009,0 2.25627,0.066 2.36927,0.31547 0.0785,0.17339 0.005,0.45501 -0.16115,0.62561 -0.26119,0.26657 -1.95593,0.31015 -12.064752,0.31015 -9.110799,0 -11.817259,-0.0587 -12.011416,-0.26067 z m 4.249457,-2.0854 c -0.07243,-0.60217 -0.404024,-4.70775 -0.736724,-9.12357 -0.332701,-4.41579 -0.671075,-8.61524 -0.751909,-9.33209 l -0.14689,-1.30338 h -2.073696 c -1.959176,0 -2.073723,0.0249 -2.073723,0.44936 0,0.63616 2.469923,19.82787 2.592438,20.14385 0.06719,0.17315 0.641319,0.26066 1.711762,0.26066 h 1.610652 z m 4.720905,-0.31281 c -0.0864,-0.7742 -0.157655,-2.17455 -0.158817,-3.11189 l -0.0017,-1.70429 -0.842515,-0.23546 c -0.46339,-0.12956 -1.310966,-0.52281 -1.88355,-0.87404 l -1.041037,-0.63857 0.155036,1.53562 c 0.08523,0.84457 0.228917,2.63825 0.318914,3.98593 l 0.163762,2.45032 h 1.723395 1.723367 z m 4.764943,-1.51189 v -2.91955 H 95.110874 93.38696 v 2.91955 2.91953 h 1.723914 1.723894 z m 4.770742,0.46921 c 0.0902,-1.34768 0.23357,-3.14136 0.3189,-3.98593 l 0.15505,-1.53562 -1.04105,0.63857 c -0.57256,0.35123 -1.42016,0.74453 -1.883551,0.87404 l -0.842517,0.23547 -0.0021,1.70428 c -9.84e-4,0.93735 -0.07246,2.33769 -0.158813,3.1119 l -0.157066,1.40763 h 1.723364 1.723403 l 0.16376,-2.45032 z m -2.408964,-5.31606 c 4.105564,-1.79606 4.068014,-4.93328 -0.07966,-6.66237 -1.52371,-0.63518 -1.843585,-0.69029 -4.005888,-0.69029 -2.162319,0 -2.482193,0.0552 -4.005905,0.69029 -2.410905,1.00503 -3.513954,2.48974 -3.039366,4.09095 0.332208,1.12086 2.274486,2.49315 4.336255,3.06369 0.338635,0.0936 1.723924,0.14458 3.078427,0.1133 2.097289,-0.0485 2.648726,-0.13842 3.71626,-0.60551 z m -8.391934,-7.90349 0.873173,-0.26735 -0.06893,-2.40617 -0.06893,-2.40619 -2.187456,-0.0606 -2.187426,-0.0606 0.159689,1.93751 c 0.08785,1.06561 0.225427,2.60943 0.305679,3.43067 l 0.146019,1.49317 1.07754,-0.69648 c 0.592656,-0.38306 1.470453,-0.81679 1.950685,-0.96384 z m 12.046408,-2.74199 0.17743,-2.45868 -2.17329,0.0606 -2.17329,0.0606 -0.06695,2.39819 -0.06685,2.3982 1.068,0.36961 c 0.58739,0.2032 1.44872,0.63957 1.91403,0.96958 l 0.84607,0.59994 0.14893,-0.96955 c 0.0817,-0.53328 0.22863,-2.07599 0.32624,-3.42825 z m -5.676365,1.00164 c 0.08168,-0.575 0.149216,-1.58504 0.150381,-2.24453 l 0.0021,-1.19912 H 95.110711 92.89425 l 0.0022,1.19912 c 0.0013,0.65949 0.06893,1.66953 0.150386,2.24453 l 0.148336,1.04541 h 1.915381 1.915401 l 0.148347,-1.04541 z m -9.363654,-6.46906 c -0.172778,-0.38123 0.454897,-1.23766 1.208026,-1.64835 0.910608,-0.49656 2.256393,-0.62237 2.625803,-0.24557 0.481744,0.49153 0.139037,0.95702 -0.704293,0.95702 -0.4688,0 -1.044903,0.22808 -1.579472,0.62562 -0.937832,0.69727 -1.338628,0.77773 -1.550064,0.31118 z m 10.55786,-1.18096 c -0.166379,-0.14089 -0.302712,-0.36197 -0.302712,-0.49109 0,-0.45537 -1.138737,-1.1416 -1.894341,-1.1416 -0.954146,0 -1.504016,-0.48637 -1.060934,-0.93842 1.091392,-1.11357 4.647926,0.69857 4.388989,2.23631 -0.09047,0.53773 -0.683927,0.71337 -1.131002,0.3348 z m -15.284814,26.04004 c -0.202739,-0.2069 -2.995822,-20.32347 -2.995822,-21.57704 0,-0.14114 -0.209719,-0.25663 -0.466212,-0.25663 -0.25626,0 -0.528749,-0.13792 -0.605221,-0.30676 -0.188194,-0.41515 0.481571,-0.94447 1.194967,-0.94447 0.536225,0 0.563538,-0.0512 0.355243,-0.66623 -0.292909,-0.86482 0.07533,-2.02369 0.875442,-2.75471 0.33878,-0.30953 0.615954,-0.77866 0.615954,-1.04253 0,-1.2079 2.485717,-3.00788 3.332246,-2.41298 0.586488,0.41217 0.419061,0.80301 -0.480291,1.12121 -0.971954,0.34387 -1.374318,0.86892 -1.374318,1.79333 0,0.48088 -0.235899,0.84162 -0.893301,1.36674 -0.773142,0.61742 -0.872359,0.80224 -0.737366,1.37374 0.304342,1.28853 -0.422434,1.22143 13.229968,1.22143 h 12.524084 l 0.40225,-0.51982 c 0.71554,-0.92476 -0.20187,-2.39971 -1.49279,-2.39971 -0.43869,0 -0.72486,-0.1899 -1.02175,-0.67775 -0.22689,-0.37277 -0.61756,-0.80038 -0.86829,-0.95025 -0.25073,-0.14976 -0.45588,-0.45951 -0.45588,-0.68811 0,-0.58047 -0.64205,-1.57005 -1.11926,-1.72512 -0.68887,-0.22389 -1.72312,-0.14162 -2.21992,0.1766 -0.7446,0.4769 -1.252584,0.37601 -1.591073,-0.31601 -0.332671,-0.68002 -1.540521,-1.34404 -2.10892,-1.15933 -0.189939,0.0616 -0.484717,-0.0357 -0.655015,-0.21676 -1.629067,-1.73029 -2.458872,-1.93546 -3.672252,-0.90802 -0.523513,0.4433 -0.976549,0.62562 -1.554543,0.62562 -1.061223,0 -1.851147,0.55899 -2.069914,1.4648 -0.142527,0.59074 -0.287091,0.72485 -0.780676,0.72485 -0.539423,0 -0.602602,-0.0845 -0.578284,-0.77431 0.01455,-0.42586 0.214955,-1.01687 0.444367,-1.31333 0.537535,-0.6947 1.814788,-1.35147 2.630165,-1.35246 0.351491,-4.2e-4 0.840071,-0.18891 1.085772,-0.41875 0.245788,-0.2298 0.888938,-0.51878 1.429469,-0.64203 1.246508,-0.28422 2.889422,0.19334 3.609038,1.04916 0.269352,0.32026 0.809359,0.63642 1.200118,0.70261 0.390726,0.0663 1.030656,0.34842 1.422049,0.62719 0.607259,0.43254 0.895309,0.49192 1.963809,0.4049 0.88012,-0.0716 1.487,8.4e-4 2.04262,0.24409 0.78039,0.34172 1.75109,1.42396 1.7529,1.95431 10e-4,0.39764 1.47575,1.88788 2.00985,2.03142 1.55314,0.41742 2.63266,2.08722 2.19147,3.38986 -0.20827,0.615 -0.18093,0.66624 0.35523,0.66624 0.7134,0 1.38312,0.5293 1.19497,0.94445 -0.0765,0.16872 -0.34881,0.30678 -0.60522,0.30678 -0.27691,0 -0.46941,0.14827 -0.47406,0.36495 -0.0349,1.61866 -2.41346,18.45189 -2.63371,18.63837 -0.46039,0.38987 -1.05253,0.0426 -1.05253,-0.61709 0,-0.33212 0.4987,-4.38303 1.10823,-9.002 0.60952,-4.61896 1.10823,-8.61998 1.10823,-8.89116 0,-0.47926 -0.0578,-0.49307 -2.06832,-0.49307 h -2.06834 l -0.15067,1.40763 c -0.0828,0.77421 -0.42363,5.02057 -0.75712,9.43638 -0.33351,4.41581 -0.65958,8.47448 -0.72458,9.01928 l -0.11811,0.99057 h 2.2126 c 1.74782,0 2.24259,0.0663 2.35551,0.31546 0.0785,0.17341 0.005,0.45503 -0.16115,0.62562 -0.26119,0.26658 -1.95593,0.31015 -12.064752,0.31015 -9.356964,0 -11.815164,-0.0554 -12.026833,-0.27143 z m 4.25094,-1.97037 c -0.06515,-0.54479 -0.391079,-4.60347 -0.724595,-9.01928 -0.333486,-4.41582 -0.674216,-8.66217 -0.757114,-9.43638 l -0.150672,-1.40764 h -2.068343 c -1.980557,0 -2.068343,0.0197 -2.068896,0.46922 -7.56e-4,0.61244 2.475449,19.78337 2.599333,20.12399 0.06312,0.17339 0.628898,0.26066 1.69169,0.26066 h 1.596895 z m 4.732393,0.20863 c -0.08406,-0.43013 -0.154161,-1.81429 -0.156198,-3.07595 l -0.0028,-2.29393 -1.127164,-0.39254 c -0.619937,-0.21601 -1.467369,-0.63497 -1.883171,-0.93123 l -0.75601,-0.53867 0.154163,1.45256 c 0.08493,0.79892 0.220773,2.48485 0.302159,3.7465 0.08145,1.26166 0.191395,2.41124 0.244335,2.55461 0.06457,0.17414 0.640386,0.26066 1.737299,0.26066 h 1.640729 l -0.152707,-0.78201 z m 4.712766,-2.18965 0.06865,-2.86742 H 95.11793 93.387086 v 2.78051 c 0,1.52929 0.0785,2.84705 0.174525,2.92838 0.09598,0.0813 0.844086,0.12044 1.662343,0.0869 l 1.487754,-0.0608 z m 4.770624,0.88628 c 0.0879,-1.08961 0.23297,-2.84648 0.32219,-3.90417 l 0.1623,-1.92305 -1.27408,0.726 c -0.70072,0.39932 -1.53834,0.78218 -1.861382,0.85085 -0.574743,0.12216 -0.587393,0.17463 -0.590042,2.44827 -10e-4,1.27788 -0.07246,2.67995 -0.157362,3.11566 l -0.15445,0.79219 1.696519,-0.0623 1.696527,-0.0623 z m -3.062886,-5.45294 c 1.801586,-0.56628 3.407816,-1.86357 3.647646,-2.9461 0.3631,-1.63892 -0.57334,-2.88043 -2.945266,-3.90474 -1.58774,-0.68564 -1.83495,-0.72988 -4.07939,-0.72988 -2.244464,0 -2.491677,0.0443 -4.079409,0.72988 -3.225146,1.39276 -3.972371,3.56313 -1.876512,5.45047 1.967409,1.77165 6.153489,2.39976 9.332931,1.40037 z m -7.690631,-8.12929 0.865785,-0.26509 v -1.80889 c 0,-0.9949 -0.06923,-2.10215 -0.153871,-2.46057 l -0.153873,-0.6517 h -2.09167 -2.091671 l 0.16027,1.82473 c 0.08813,1.00357 0.225428,2.54273 0.305069,3.42032 l 0.144855,1.59561 1.074719,-0.69465 c 0.591084,-0.38207 1.464315,-0.81394 1.940505,-0.95976 z m 12.057957,-2.94446 0.16929,-2.24179 h -2.07899 -2.079019 l -0.153878,0.6517 c -0.08464,0.35842 -0.15358,1.46106 -0.152998,2.45032 l 9.65e-4,1.79865 1.061654,0.3696 c 0.583896,0.20321 1.442356,0.63951 1.907706,0.96936 l 0.84603,0.59978 0.15504,-1.17791 c 0.0851,-0.64786 0.23123,-2.18672 0.32431,-3.41971 z m -5.68224,0.70117 c 0.08496,-0.85035 0.15445,-1.8604 0.15445,-2.24453 v -0.69843 h -2.216461 -2.21645 v 0.69843 c 0,0.38413 0.06952,1.39418 0.15445,2.24453 l 0.15446,1.54611 h 1.907774 1.907751 z m -9.286108,-5.79298 c -0.378515,-0.32052 -0.110242,-0.90052 0.692511,-1.49739 1.052875,-0.78282 2.465298,-1.06195 3.015572,-0.59601 0.565749,0.47906 0.2167,0.9812 -0.681924,0.9812 -0.522205,0 -1.000343,0.19877 -1.50431,0.62562 -0.724305,0.61333 -1.194617,0.76369 -1.521849,0.48658 z m 10.481999,-1.35636 c -0.166379,-0.14089 -0.302712,-0.36197 -0.302712,-0.49108 0,-0.45538 -1.138737,-1.14161 -1.894341,-1.14161 -0.954146,0 -1.504016,-0.48637 -1.060934,-0.93842 1.091392,-1.11357 4.647926,0.69858 4.388989,2.23631 -0.09047,0.53773 -0.683927,0.71338 -1.131002,0.3348 z M 83.08652,184.41135 c -0.144856,-0.14804 -0.89973,-5.12155 -1.677294,-11.05254 -1.252529,-9.55381 -1.461638,-10.78365 -1.833579,-10.78365 -0.537446,0 -0.811653,-0.59238 -0.446607,-0.96484 0.154454,-0.15764 0.587797,-0.28639 0.96314,-0.28639 0.67058,0 0.67823,-0.0148 0.439161,-0.81171 -0.200411,-0.66873 -0.154744,-0.98149 0.260041,-1.77506 0.276621,-0.5298 0.675118,-1.01916 0.885187,-1.08742 0.2167,-0.0705 0.381973,-0.37174 0.381973,-0.69657 0,-1.28852 2.446508,-3.12816 3.332247,-2.50569 0.597018,0.41955 0.415396,0.79724 -0.592858,1.23281 -1.04057,0.44951 -1.261751,0.75372 -1.261751,1.73542 0,0.4711 -0.21292,0.79603 -0.788063,1.20261 -0.615633,0.43522 -0.788064,0.71946 -0.788064,1.29906 0,1.48636 -0.747515,1.40655 13.175431,1.40655 h 12.524076 l 0.40226,-0.51982 c 0.71555,-0.92476 -0.20187,-2.39971 -1.4928,-2.39971 -0.43695,0 -0.72511,-0.18966 -1.01851,-0.66999 -0.22515,-0.36853 -0.67372,-0.84624 -0.9971,-1.06161 -0.32336,-0.21527 -0.57223,-0.50039 -0.55306,-0.63337 0.20973,-1.45537 -1.72892,-2.38828 -3.11642,-1.49964 -0.74412,0.47658 -1.252533,0.37614 -1.590173,-0.31413 -0.353416,-0.72249 -0.864076,-1.00704 -2.009942,-1.12 -0.440466,-0.0434 -0.850632,-0.20542 -0.911421,-0.35978 -0.0608,-0.15443 -0.429331,-0.55077 -0.818956,-0.88069 -0.58678,-0.49687 -0.844202,-0.57773 -1.498952,-0.47084 -0.434798,0.0709 -1.016344,0.3635 -1.292325,0.65001 -0.3665,0.38051 -0.740941,0.52095 -1.388774,0.52095 -1.128066,0 -1.917903,0.54033 -2.141178,1.46481 -0.142528,0.59073 -0.287092,0.72485 -0.780675,0.72485 -0.493787,0 -0.617932,-0.11552 -0.672557,-0.62562 -0.130313,-1.21672 1.666529,-2.81265 3.168803,-2.81447 0.351493,-4.2e-4 0.840538,-0.18941 1.086732,-0.41966 0.24637,-0.2303 0.869276,-0.52584 1.38459,-0.65658 1.208137,-0.3065 2.930028,0.20493 3.675738,1.0917 0.322343,0.38332 0.731429,0.60936 1.10279,0.60936 0.324673,0 0.954348,0.27024 1.399305,0.60054 0.721655,0.53574 0.944025,0.58948 2.061105,0.49813 0.88081,-0.0719 1.48656,2.2e-4 2.04262,0.24384 0.80323,0.35172 1.74871,1.42549 1.75596,1.99421 0.005,0.35301 1.82007,2.0854 2.18552,2.0854 0.1306,0 0.57614,0.24137 0.99034,0.53655 0.92384,0.65828 1.39733,1.94551 1.03728,2.82007 -0.23677,0.57537 -0.21466,0.6056 0.44655,0.6056 0.38274,0 0.82216,0.12881 0.97651,0.28637 0.36614,0.37355 0.0902,0.96486 -0.45012,0.96486 -0.3759,0 -0.55899,1.04354 -1.6334,9.30839 -0.66551,5.11963 -1.3337,9.45163 -1.48487,9.62665 -0.45478,0.52671 -1.08488,0.14729 -1.08488,-0.65308 0,-0.38948 0.49871,-4.48728 1.10824,-9.10625 0.60953,-4.61897 1.10822,-8.57307 1.10822,-8.78693 0,-0.34886 -0.21496,-0.38878 -2.0933,-0.38878 -1.82487,0 -2.09487,0.0468 -2.10539,0.36495 -0.005,0.20074 -0.37015,4.85093 -0.80776,10.33379 -0.43765,5.48285 -0.74621,10.01076 -0.68571,10.06199 0.0605,0.0512 1.03699,0.0931 2.16998,0.0931 1.61164,0 2.09112,0.0687 2.20295,0.31547 0.0785,0.1734 0.005,0.45503 -0.16114,0.62562 -0.2612,0.26658 -1.95596,0.31015 -12.064766,0.31015 -9.300355,0 -11.815945,-0.0561 -12.024354,-0.26892 z m 4.171503,-1.07545 c 0.0605,-0.0512 -0.248115,-4.57913 -0.685706,-10.062 -0.437619,-5.48285 -0.801124,-10.13307 -0.807755,-10.33379 -0.01163,-0.31815 -0.280404,-0.36495 -2.105372,-0.36495 -1.506986,0 -2.095161,0.0732 -2.099902,0.2607 -0.01163,0.40524 2.51143,20.03869 2.611403,20.33251 0.08406,0.24672 2.818564,0.3951 3.087332,0.16749 z m 4.749816,-0.27182 c -0.01455,-0.14335 -0.04159,-1.50408 -0.06253,-3.02379 l -0.03781,-2.76315 -1.127134,-0.39255 c -0.619968,-0.21601 -1.466352,-0.63423 -1.880905,-0.9296 l -0.75374,-0.53704 0.151544,1.13813 c 0.08348,0.62598 0.223974,2.3581 0.312282,3.84914 0.08843,1.49105 0.211757,2.78566 0.274004,2.87689 0.19343,0.283 3.152049,0.0766 3.124242,-0.21798 z m 4.772307,-2.60673 0.06865,-2.8674 H 95.11793 93.387086 v 2.78051 c 0,1.52929 0.0785,2.84704 0.174525,2.92838 0.09598,0.0813 0.844086,0.12044 1.662343,0.0869 l 1.487754,-0.0609 z m 4.774284,0.67776 c 0.0899,-1.2043 0.23559,-2.97724 0.32352,-3.93982 l 0.15999,-1.75017 -0.73465,0.52347 c -0.40406,0.28789 -1.23678,0.69931 -1.850455,0.91423 l -1.115821,0.39079 -0.07384,2.92131 c -0.04068,1.60672 -0.03634,2.99596 0.0085,3.08719 0.04566,0.0911 0.766008,0.13818 1.60079,0.1042 l 1.517746,-0.0616 z m -2.626335,-5.39386 c 2.096975,-0.79629 3.324685,-2.09825 3.324685,-3.52577 0,-0.32532 -0.32252,-1.02214 -0.71671,-1.54847 -0.56267,-0.75128 -1.07647,-1.10692 -2.390544,-1.65472 -1.545417,-0.64424 -1.854963,-0.69777 -4.034652,-0.69777 -2.179715,0 -2.489233,0.0534 -4.034673,0.69777 -4.596383,1.91607 -3.967659,5.60024 1.202528,7.04647 1.534617,0.42927 5.135572,0.25732 6.649366,-0.31751 z m -8.461303,-7.8634 1.196246,-0.51332 -0.0022,-1.29986 c -0.0013,-0.7149 -0.07213,-1.79251 -0.157363,-2.39468 l -0.155326,-1.09483 h -2.087948 -2.087947 l 0.148054,1.51193 c 0.08145,0.83153 0.219319,2.3782 0.30661,3.43704 l 0.158527,1.92513 0.742511,-0.52905 c 0.408387,-0.29098 1.280833,-0.76004 1.938759,-1.04236 z m 12.380038,-3.16515 0.16726,-2.13754 h -2.0703 -2.070285 l -0.15533,1.09483 c -0.0855,0.60217 -0.155911,1.70481 -0.156494,2.45034 l -10e-4,1.3555 1.061633,0.3696 c 0.583896,0.2032 1.442356,0.63948 1.907696,0.96934 l 0.84606,0.59973 0.15184,-1.28214 c 0.0835,-0.70517 0.22717,-2.24404 0.31912,-3.41966 z m -5.673108,0.29633 c 0.0873,-1.12736 0.09545,-2.13615 0.01748,-2.2418 -0.07712,-0.10566 -1.013696,-0.19211 -2.081282,-0.19211 -1.067618,0 -2.00421,0.0864 -2.081313,0.19211 -0.07708,0.10567 -0.06865,1.11444 0.01748,2.2418 l 0.158528,2.04973 h 1.904203 1.904236 l 0.158517,-2.04973 z m -9.28686,-5.28389 c -0.376885,-0.31914 -0.111988,-0.89934 0.679479,-1.48771 1.392644,-1.03539 3.460434,-1.15199 3.295771,-0.18595 -0.05817,0.34076 -0.323015,0.48667 -1.126989,0.62071 -0.694374,0.11575 -1.184495,0.3477 -1.444391,0.68354 -0.376157,0.48613 -1.055026,0.66471 -1.40387,0.36931 z m 10.481999,-1.35635 c -0.166379,-0.14089 -0.302712,-0.37153 -0.302712,-0.51231 0,-0.44506 -1.265939,-1.12038 -2.100193,-1.12038 -0.88414,0 -1.300261,-0.48421 -0.82919,-0.96485 0.68934,-0.70335 3.14533,-0.0488 3.948607,1.05241 0.785765,1.07717 0.206233,2.32658 -0.716512,1.54513 z m -15.250549,26.1465 c -0.189941,-0.10222 -0.79871,-4.00387 -1.712751,-10.97577 -1.240459,-9.46209 -1.471384,-10.82896 -1.843236,-10.9113 -1.083444,-0.2399 -0.648473,-1.30429 0.532996,-1.30429 0.668021,0 0.678929,-0.0197 0.424589,-0.72021 -0.208848,-0.57641 -0.174524,-0.91188 0.171907,-1.68013 0.238225,-0.52795 0.643004,-1.07101 0.899758,-1.2068 0.264694,-0.1399 0.466852,-0.4827 0.466852,-0.79147 0,-1.18591 2.219277,-2.91777 3.292163,-2.56912 0.673488,0.21872 0.463565,0.88244 -0.398438,1.25963 -1.075475,0.47057 -1.398927,0.87453 -1.408263,1.7588 -0.0059,0.57211 -0.170453,0.8447 -0.716131,1.18623 -0.908078,0.56851 -1.137838,1.33241 -0.643935,2.14115 l 0.38212,0.62572 12.610731,-0.0539 12.610696,-0.0539 0.32649,-0.57684 c 0.17946,-0.31724 0.25537,-0.76618 0.1687,-0.99762 -0.23124,-0.61711 -1.11486,-1.24081 -1.75777,-1.24081 -0.33288,0 -0.67615,-0.19063 -0.84508,-0.4692 -0.1565,-0.25808 -0.58501,-0.75075 -0.95232,-1.09484 -0.36728,-0.34409 -0.68064,-0.84893 -0.69635,-1.12189 -0.0686,-1.19477 -1.99545,-1.91635 -3.14726,-1.17867 -0.77157,0.49419 -1.338278,0.38586 -1.624994,-0.31056 -0.30053,-0.72998 -0.862031,-1.0383 -1.890961,-1.0383 -0.574627,0 -0.839784,-0.15665 -1.241476,-0.73308 -0.640564,-0.91934 -1.57776,-1.25629 -2.547818,-0.91604 -0.386638,0.13547 -0.813432,0.42135 -0.948484,0.63503 -0.174234,0.27578 -0.520868,0.38847 -1.194646,0.38847 -1.191884,0 -1.97535,0.52086 -2.203338,1.4648 -0.142527,0.59074 -0.287091,0.72485 -0.780676,0.72485 -0.447827,0 -0.626861,-0.12733 -0.687333,-0.48902 -0.198957,-1.18965 1.252647,-2.67906 2.813881,-2.88726 0.529099,-0.0705 1.264077,-0.34059 1.633313,-0.60012 1.45248,-1.02083 3.201322,-0.88904 4.619188,0.3481 0.512483,0.44717 1.15791,0.81303 1.434265,0.81303 0.276332,0 0.864711,0.25808 1.307423,0.5735 0.694456,0.49476 0.981206,0.56385 2.088736,0.50335 1.90219,-0.10389 3.35191,0.67478 3.79377,2.03766 0.26557,0.81929 1.37857,1.88283 2.7087,2.58844 1.19165,0.63217 1.7837,1.66924 1.59556,2.79501 -0.13962,0.8347 -0.11316,0.88628 0.45251,0.88628 1.11349,0 1.48079,1.07559 0.44556,1.30483 -0.37432,0.083 -0.57616,1.24773 -1.62043,9.35263 -0.76206,5.91448 -1.30611,9.36241 -1.50646,9.54717 -0.50664,0.46714 -1.09072,0.12019 -1.09016,-0.64759 2.6e-4,-0.37636 0.49896,-4.53004 1.10823,-9.23041 0.60926,-4.70037 1.10773,-8.66521 1.10773,-8.81077 0,-0.1931 -0.56612,-0.26463 -2.0933,-0.26463 -1.50958,0 -2.0938,0.0727 -2.09505,0.26069 -9.9e-4,0.14335 -0.33265,4.38973 -0.7371,9.43635 -0.40449,5.04665 -0.73618,9.61781 -0.73711,10.15816 l -0.002,0.98244 2.15211,0.0603 c 1.87933,0.0527 2.16334,0.10985 2.24069,0.45234 0.0486,0.21551 -0.0609,0.47229 -0.24347,0.57029 -0.41056,0.2202 -23.614562,0.23917 -24.022599,0.0197 z m 4.110127,-2.07683 c -9.88e-4,-0.54479 -0.332642,-5.1196 -0.73713,-10.16626 -0.40446,-5.04661 -0.736173,-9.29299 -0.737103,-9.43634 -0.0013,-0.18793 -0.58547,-0.2607 -2.095016,-0.2607 -1.510389,0 -2.093387,0.0727 -2.093503,0.2607 -2.62e-4,0.47389 2.474402,19.64504 2.597733,20.12395 0.108786,0.42289 0.266149,0.46922 1.593783,0.46922 h 1.472925 l -0.0017,-0.99057 z m 4.680882,-2.09561 v -3.08618 l -0.838676,-0.2568 c -0.461267,-0.14138 -1.250029,-0.49318 -1.752774,-0.78209 -0.502775,-0.28892 -0.943332,-0.4972 -0.978993,-0.46286 -0.09221,0.0889 0.370922,6.6398 0.509494,7.20489 0.103847,0.42343 0.258878,0.46922 1.587995,0.46922 h 1.472954 z m 4.770235,2.61696 c 0.08178,-0.25807 0.150095,-1.57186 0.151833,-2.91952 l 0.0031,-2.45034 h -1.723893 -1.723915 l 0.0031,2.45034 c 0.0053,3.423 -0.01166,3.38874 1.720545,3.38874 1.264603,0 1.436458,-0.0515 1.568682,-0.46922 z m 4.691334,0 c 0.14571,-0.60756 0.61613,-7.12287 0.52016,-7.20489 -0.0401,-0.0342 -0.48442,0.17389 -0.9872,0.46286 -0.50274,0.28891 -1.2915,0.64083 -1.752773,0.78209 l -0.838672,0.2568 v 3.08618 3.08618 h 1.472954 c 1.329951,0 1.483871,-0.0456 1.585531,-0.46922 z m -2.183105,-7.35972 c 1.652125,-0.71983 2.776565,-1.79943 2.980065,-2.86128 0.31208,-1.6283 -1.58756,-3.50663 -4.21028,-4.16302 -1.446225,-0.36198 -4.721489,-0.29193 -6.048249,0.1293 -1.722291,0.54685 -2.888752,1.33796 -3.468811,2.35261 -0.643819,1.12621 -0.527296,2.09111 0.373364,3.09099 1.381707,1.53394 3.512646,2.21002 6.704021,2.12694 1.934544,-0.0505 2.454771,-0.14605 3.66989,-0.67554 z m -8.720993,-7.72224 c 1.352358,-0.58029 1.349973,-0.5718 1.036964,-3.70717 l -0.159107,-1.59552 h -2.085883 -2.085854 l 0.14631,1.30338 c 0.08028,0.71685 0.218155,2.26353 0.306376,3.43705 l 0.160272,2.13369 0.742512,-0.52907 c 0.408387,-0.29098 1.280833,-0.76004 1.938788,-1.04236 z m 12.381968,-3.3737 0.16057,-1.92899 h -2.06603 -2.066045 l -0.159111,1.59552 c -0.318444,3.18975 -0.352621,3.08916 1.304596,3.83712 0.80514,0.36337 1.66402,0.84847 1.90862,1.078 0.49267,0.4623 0.50145,0.41836 0.91757,-4.58165 z m -5.70986,0.46922 c 0.06049,-1.14698 0.06579,-2.15577 0.01166,-2.2418 -0.05413,-0.086 -0.972071,-0.15641 -2.039668,-0.15641 -1.067617,0 -1.98547,0.0705 -2.039689,0.15641 -0.05413,0.086 -0.04883,1.09482 0.01166,2.2418 l 0.11024,2.08539 h 1.917848 1.917849 l 0.11024,-2.08539 z m -9.252038,-5.24823 c -0.376885,-0.31914 -0.111988,-0.89934 0.679479,-1.48771 1.392644,-1.03539 3.460434,-1.15199 3.295771,-0.18595 -0.05817,0.34076 -0.323015,0.48667 -1.126989,0.62071 -0.694374,0.11575 -1.184495,0.3477 -1.444391,0.68354 -0.376157,0.48613 -1.055026,0.66471 -1.40387,0.36931 z m 10.481999,-1.35635 c -0.166379,-0.14089 -0.302712,-0.37153 -0.302712,-0.51231 0,-0.44506 -1.265939,-1.12038 -2.100193,-1.12038 -0.51386,0 -0.857666,-0.12192 -0.956127,-0.33923 -0.410368,-0.90557 1.559868,-1.23806 2.982787,-0.50338 0.901017,0.46523 1.617,1.49214 1.504545,2.15795 -0.08846,0.52277 -0.686903,0.69112 -1.1283,0.31735 z m -15.262126,26.14043 c -0.205357,-0.11034 -0.76744,-3.71935 -1.707631,-10.96482 -1.375424,-10.59911 -1.412132,-10.80359 -1.971889,-10.98382 -1.041036,-0.33514 -0.527703,-1.23665 0.704175,-1.23665 0.641086,0 0.667758,-0.035 0.430174,-0.56411 -0.369643,-0.82324 -0.03839,-2.05059 0.745188,-2.76086 0.376129,-0.34096 0.750162,-0.96574 0.831142,-1.38838 0.235897,-1.23076 2.066685,-2.55633 3.134364,-2.26938 0.776428,0.20862 0.583172,0.90033 -0.357774,1.28025 -0.916688,0.37017 -1.378449,1.01823 -1.378449,1.93463 0,0.40392 -0.198958,0.70221 -0.626658,0.93951 -0.914681,0.50748 -1.16966,1.23522 -0.73879,2.10844 l 0.355244,0.7199 h 12.542318 c 13.790431,0 13.177261,0.0589 13.177261,-1.26404 0,-0.75479 -0.89114,-1.6093 -1.76903,-1.69626 -0.3752,-0.0372 -0.75846,-0.26369 -0.92375,-0.546 -0.15533,-0.2654 -0.57356,-0.73973 -0.92924,-1.05411 -0.35566,-0.31439 -0.6467,-0.80816 -0.6467,-1.09732 0,-1.13643 -1.96175,-1.85086 -3.09291,-1.12641 -0.77623,0.49715 -1.28551,0.37545 -1.727173,-0.41268 -0.393555,-0.70223 -0.702169,-0.84957 -2.056969,-0.98206 -0.366593,-0.0359 -0.753591,-0.29988 -1.00256,-0.68399 -0.578748,-0.89299 -1.555524,-1.25703 -2.49167,-0.92868 -0.401406,0.14089 -0.840309,0.4308 -0.975361,0.64446 -0.174234,0.27579 -0.520868,0.38847 -1.194646,0.38847 -1.166665,0 -1.893063,0.48717 -2.176693,1.45978 -0.170743,0.58512 -0.331829,0.72988 -0.812875,0.72988 -0.546843,0 -0.598007,-0.08 -0.577384,-0.90197 0.02938,-1.16783 1.232925,-2.27532 2.690608,-2.47561 0.531543,-0.0729 1.181674,-0.30262 1.444768,-0.51018 0.693908,-0.54741 2.028117,-0.86567 2.989075,-0.71303 0.478604,0.0761 1.281818,0.48542 1.881691,0.95909 0.575634,0.45453 1.236963,0.82643 1.469607,0.82643 0.232696,0 0.771516,0.24834 1.1975,0.55187 0.663482,0.47274 1.017032,0.55498 2.465642,0.5735 1.52014,0.0197 1.76784,0.084 2.44986,0.63729 0.41728,0.33862 0.8663,0.94859 0.99782,1.3555 0.26555,0.82162 1.74581,2.30386 2.30083,2.30386 0.52478,0 1.81222,1.3296 2.00422,2.06987 0.0913,0.35262 0.0933,0.92265 0.003,1.26672 -0.14486,0.55835 -0.0992,0.62562 0.42371,0.62562 1.13592,0 1.60411,0.9233 0.62293,1.22851 -0.53672,0.16698 -0.59271,0.46519 -1.78546,9.51144 -1.06847,8.10372 -1.29029,9.36966 -1.67678,9.57011 -0.35024,0.18152 -0.51136,0.1559 -0.7542,-0.12021 -0.2516,-0.28625 -0.0916,-1.98561 0.8631,-9.17571 0.64455,-4.8534 1.17787,-9.03552 1.1852,-9.2936 0.0116,-0.45066 -0.0695,-0.4692 -2.08006,-0.4692 -1.82879,0 -2.09354,0.0461 -2.09502,0.36495 -9.9e-4,0.20074 -0.33265,4.49401 -0.7371,9.54063 -0.40449,5.04663 -0.73618,9.57087 -0.73714,10.05387 l -0.002,0.87818 2.15212,0.0603 c 1.87933,0.0527 2.16333,0.10984 2.24068,0.45233 0.0485,0.21552 -0.0609,0.4723 -0.24346,0.5703 -0.41776,0.22414 -23.618143,0.23718 -24.034151,0.0148 z m 4.121704,-1.96647 c -9.88e-4,-0.48746 -0.332642,-5.01537 -0.73713,-10.06199 -0.40446,-5.04663 -0.736173,-9.33993 -0.737103,-9.54065 -0.0015,-0.31881 -0.266149,-0.36495 -2.095016,-0.36495 -1.590234,0 -2.093329,0.0675 -2.093329,0.28074 0,0.41065 2.43944,19.09626 2.597355,19.89537 0.133512,0.67606 0.137583,0.67776 1.600444,0.67776 h 1.466468 l -0.0017,-0.88628 z m 4.680882,-2.22522 V 177.206 l -0.724567,-0.13473 c -0.398496,-0.0742 -1.184552,-0.41692 -1.74681,-0.76179 -0.56223,-0.34488 -1.051508,-0.5967 -1.087257,-0.55959 -0.0541,0.0561 0.509844,7.46672 0.58041,7.62702 0.01164,0.0286 0.687887,0.0523 1.500586,0.0523 h 1.477638 z m 4.76587,2.01667 c 0.08549,-0.60217 0.156198,-1.91595 0.157363,-2.91953 l 0.0021,-1.82472 H 95.110755 93.38684 l 0.0021,1.82472 c 10e-4,1.00358 0.07215,2.31736 0.157363,2.91953 l 0.155329,1.09483 h 1.409019 1.409052 l 0.155329,-1.09483 z m 4.613059,1.04269 c 0.0826,-0.20961 0.64599,-7.57533 0.58372,-7.63271 -0.0437,-0.0401 -0.44684,0.15961 -0.89595,0.44409 -0.4491,0.28451 -1.232136,0.64128 -1.740095,0.79283 l -0.92352,0.27557 v 3.08618 3.08618 h 1.477636 c 0.812699,0 1.486889,-0.0246 1.498209,-0.0523 z m -3.277688,-7.35633 c 2.804078,-0.70513 4.645398,-2.7249 4.041128,-4.43273 -0.69453,-1.96296 -3.425894,-3.23668 -6.940816,-3.23668 -3.514911,0 -6.246301,1.27372 -6.940847,3.23668 -0.586779,1.65845 1.067273,3.5596 3.789761,4.35586 1.615247,0.47243 4.34009,0.50706 6.050774,0.0769 z m -7.606831,-8.13798 1.326527,-0.56156 -0.15678,-1.57023 c -0.0861,-0.86363 -0.156781,-1.93143 -0.156781,-2.37291 v -0.80272 H 89.29498 87.17329 l 0.143984,1.09483 c 0.07911,0.60217 0.217572,2.15621 0.307277,3.45343 l 0.163181,2.3586 0.644603,-0.51892 c 0.354547,-0.28543 1.241565,-0.77165 1.971163,-1.08052 z m 12.435049,-3.48268 0.15561,-1.82474 h -2.09476 -2.094743 v 0.80272 c 0,0.44148 -0.07066,1.5114 -0.157362,2.37761 l -0.157364,1.57495 1.378615,0.5716 c 0.758224,0.31441 1.632454,0.80101 1.942694,1.08135 l 0.56409,0.50973 0.15358,-1.63426 c 0.0843,-0.89884 0.22368,-2.45539 0.30929,-3.45896 z m -5.720792,0.72987 c 0.02034,-1.06093 0.048,-2.04628 0.06165,-2.18966 0.01748,-0.18965 -0.545091,-0.26066 -2.068696,-0.26066 -1.523614,0 -2.086631,0.0709 -2.068685,0.26066 0.01452,0.14335 0.04131,1.12873 0.06165,2.18966 l 0.03697,1.92899 h 1.970193 1.970183 z m -9.312629,-5.59249 c -0.228918,-0.50497 0.364086,-1.24283 1.391712,-1.73189 1.385199,-0.65923 2.71225,-0.55611 2.71225,0.21084 0,0.4111 -0.10617,0.46694 -1.313933,0.69204 -0.384012,0.0716 -0.950837,0.36094 -1.259599,0.64303 -0.639805,0.58461 -1.312741,0.66641 -1.53043,0.18596 z m 10.36495,-1.43544 c -0.218734,-0.73832 -1.236932,-1.36574 -2.216165,-1.36574 -0.922088,0 -1.191621,-0.23325 -0.965725,-0.83603 0.210883,-0.56249 1.920232,-0.56624 3.004197,-0.007 1.463737,0.75573 2.051214,2.54012 0.882626,2.68083 -0.412223,0.0497 -0.584395,-0.0658 -0.704933,-0.47252 z M 82.930553,184.4857 c -0.0797,-0.1091 -0.777243,-5.03152 -1.550152,-10.93859 -1.363092,-10.41761 -1.422081,-10.74658 -1.964414,-10.95581 -1.020384,-0.39367 -0.517028,-1.26737 0.730151,-1.26737 0.637566,0 0.673662,-0.039 0.415629,-0.44714 -0.432355,-0.68406 -0.108788,-2.00756 0.699404,-2.85982 0.396082,-0.41773 0.796354,-1.10427 0.889463,-1.52562 0.35725,-1.61656 3.601857,-3.0805 3.601857,-1.62514 0,0.23102 -0.305127,0.53302 -0.723869,0.71637 -0.955752,0.41853 -1.492587,1.0985 -1.492587,1.8906 0,0.46758 -0.194014,0.76563 -0.707026,1.08689 -0.845541,0.52936 -1.055493,1.24608 -0.621219,2.12064 l 0.319379,0.64322 h 12.541647 c 13.732284,0 13.104464,0.0592 13.148004,-1.23739 0.0262,-0.77802 -0.61367,-1.42253 -1.63423,-1.64625 -0.41739,-0.0914 -0.8877,-0.38488 -1.04521,-0.65195 -0.15736,-0.26709 -0.57308,-0.71074 -0.92352,-0.98591 -0.39146,-0.30736 -0.63717,-0.72429 -0.63717,-1.08111 0,-1.1902 -1.89907,-1.91428 -3.06391,-1.16825 -0.69222,0.44335 -1.349618,0.37607 -1.593111,-0.16306 -0.321093,-0.71095 -1.037223,-1.15893 -1.974123,-1.23492 -0.639865,-0.052 -0.941645,-0.2197 -1.248838,-0.69407 -0.566481,-0.87487 -1.449595,-1.20645 -2.436974,-0.91499 -0.426651,0.12586 -0.888119,0.4068 -1.02547,0.62414 -0.157653,0.2492 -0.515078,0.39512 -0.968288,0.39512 -1.462628,0 -1.967933,0.38293 -2.564602,1.94362 -0.234444,0.61286 -1.23848,0.37151 -1.332666,-0.32032 -0.182377,-1.34012 1.48456,-2.87453 3.12302,-2.87453 0.424211,0 0.77131,-0.0919 0.77131,-0.20419 0,-0.29896 1.846091,-1.04695 2.583972,-1.04695 0.926581,0 2.190071,0.50116 2.731127,1.08326 0.259753,0.27948 0.857062,0.62167 1.327287,0.76041 0.470224,0.13868 1.135483,0.47984 1.478367,0.75798 0.524469,0.42549 0.760079,0.48044 1.484619,0.34624 1.84839,-0.34236 3.62671,0.51714 4.21932,2.03931 0.33883,0.87032 1.43302,2.10311 1.86666,2.10313 0.55702,0 2.00851,1.26766 2.29594,2.00512 0.15708,0.40318 0.21439,1.0554 0.12712,1.44936 -0.14398,0.65061 -0.10562,0.71627 0.4189,0.71627 1.14297,0 1.57268,0.89577 0.60819,1.26789 -0.54212,0.20911 -0.60044,0.51995 -1.78546,9.51493 -1.03758,7.87575 -1.29028,9.33332 -1.65141,9.52495 -0.32293,0.17142 -0.51062,0.15123 -0.77377,-0.083 -0.2997,-0.26675 -0.18296,-1.55655 0.84943,-9.38069 0.65828,-4.98929 1.2007,-9.16527 1.20535,-9.27998 0.005,-0.12832 -0.7969,-0.1825 -2.08544,-0.14113 -1.76252,0.0569 -2.09414,0.12266 -2.09561,0.4171 -9.8e-4,0.19236 -0.33264,4.47866 -0.73709,9.52531 -0.40449,5.04663 -0.73618,9.52394 -0.73711,9.94958 l -0.002,0.77392 2.1549,0.0603 c 2.11538,0.0592 2.15487,0.0697 2.15487,0.5816 v 0.52136 l -12.112974,0.0541 c -7.473387,0.0332 -12.168462,-0.0222 -12.257817,-0.14434 z m 4.297886,-1.83869 c -9.88e-4,-0.43013 -0.332642,-4.91108 -0.73713,-9.95771 -0.40446,-5.04665 -0.736173,-9.33302 -0.737103,-9.52531 -0.0015,-0.29432 -0.333079,-0.3603 -2.095597,-0.4171 -1.151656,-0.0372 -2.093649,-0.0259 -2.093329,0.0246 0.0017,0.29254 2.49072,19.41943 2.599856,19.97966 0.131764,0.67625 0.135256,0.67776 1.598524,0.67776 h 1.466468 l -0.0017,-0.78203 z m 4.680882,-2.25243 v -3.03444 l -0.923523,-0.32269 c -0.507952,-0.17733 -1.290984,-0.55751 -1.740092,-0.84458 -0.44911,-0.28704 -0.845657,-0.48893 -0.881231,-0.44869 -0.05119,0.0579 0.500856,7.43034 0.571392,7.63271 0.0087,0.0286 0.683117,0.0523 1.495816,0.0523 h 1.477638 z m 4.764938,1.62681 c 0.08634,-0.7742 0.15766,-2.088 0.158825,-2.91952 l 0.0021,-1.51192 H 95.111295 93.38737 v 1.32404 c 0,0.72822 0.07151,2.04201 0.159397,2.91955 l 0.159111,1.59549 h 1.405905 1.405884 z m 4.611601,1.3555 c 0.0704,-0.20246 0.62247,-7.57493 0.5714,-7.63271 -0.0355,-0.0401 -0.43213,0.16158 -0.88124,0.44869 -0.4491,0.28707 -1.232136,0.66712 -1.740095,0.84458 l -0.92352,0.32269 v 3.03444 3.03445 h 1.477636 c 0.812699,0 1.485819,-0.0246 1.495819,-0.0523 z m -3.234109,-7.43537 c 1.943962,-0.51231 3.152979,-1.30611 3.760419,-2.46894 0.6561,-1.25593 0.43485,-2.13569 -0.82906,-3.29677 -1.383537,-1.27099 -3.141543,-1.8141 -5.872236,-1.8141 -2.730717,0 -4.488726,0.54311 -5.872266,1.8141 -1.263904,1.16108 -1.485142,2.04084 -0.829048,3.29677 1.224607,2.34428 5.734022,3.49894 9.642191,2.46894 z m -7.416573,-8.20446 1.090457,-0.40847 -0.152418,-1.07335 c -0.08378,-0.59032 -0.153,-1.63638 -0.153873,-2.32456 l -0.0015,-1.25123 -2.117792,0.068 -2.117762,0.068 0.132347,0.66184 c 0.07271,0.36402 0.207685,1.85819 0.299746,3.32033 l 0.167252,2.65847 0.881434,-0.65532 c 0.484769,-0.36042 1.372137,-0.83911 1.971889,-1.06376 z m 12.199732,-3.53076 0.12508,-1.39271 -2.0781,-0.067 -2.078083,-0.067 -0.001,1.25123 c -7.31e-4,0.68818 -0.06918,1.72745 -0.151833,2.30949 l -0.150095,1.05828 1.335719,0.55338 c 0.734662,0.30435 1.606672,0.79815 1.937832,1.09728 l 0.60205,0.54392 0.16697,-1.94702 c 0.0919,-1.07087 0.22338,-2.57375 0.29203,-3.33971 z m -5.753864,0.71493 v -2.13752 h -1.970172 -1.970203 v 2.13752 2.13753 h 1.970203 1.970172 z m -9.281214,-5.39611 c -0.399427,-0.88146 1.578367,-2.2218 3.124388,-2.11737 0.681254,0.0461 0.878495,0.1569 0.9408,0.52838 0.07999,0.47682 -0.02327,0.53992 -1.269632,0.77209 -0.384012,0.0716 -0.950837,0.36094 -1.259599,0.64303 -0.645594,0.5899 -1.313178,0.66547 -1.535957,0.1739 z m 10.178216,-1.6032 c -0.42505,-0.86143 -0.716131,-1.03249 -2.005227,-1.17853 -0.851448,-0.0966 -0.985101,-0.18227 -0.985101,-0.63291 0,-0.46312 0.115474,-0.52845 1.032838,-0.58489 0.605562,-0.0372 1.348665,0.0747 1.796345,0.27079 1.53244,0.67103 2.279947,2.63086 1.059536,2.77783 -0.420517,0.0508 -0.624685,-0.0975 -0.898391,-0.65229 z m -15.069632,26.53344 c -0.09192,-0.12586 -0.788644,-5.0479 -1.548405,-10.9379 -1.342381,-10.40638 -1.397299,-10.71523 -1.942307,-10.9255 -1.007935,-0.38889 -0.523748,-1.26803 0.698387,-1.26803 0.630089,0 0.653301,-0.0335 0.407048,-0.58576 -0.373221,-0.83729 -0.03578,-2.02072 0.808599,-2.83498 0.414669,-0.39992 0.72666,-0.93869 0.72666,-1.25484 0,-0.85911 1.634273,-2.2291 2.713209,-2.27441 0.759499,-0.0317 0.857756,0.0222 0.857756,0.47915 0,0.34151 -0.207683,0.60239 -0.615691,0.77392 -0.917619,0.38562 -1.477637,1.07372 -1.477637,1.81565 0,0.47268 -0.210012,0.81632 -0.738819,1.20931 -0.786289,0.58424 -0.978585,1.48586 -0.483869,2.26862 0.246953,0.39066 0.64862,0.40334 12.756921,0.40334 9.395412,0 12.575422,-0.0621 12.797532,-0.25024 0.1626,-0.13769 0.29553,-0.5923 0.29553,-1.01037 0,-0.85441 -0.53009,-1.38367 -1.63587,-1.63337 -0.38707,-0.0874 -0.83257,-0.37676 -0.99008,-0.64306 -0.15736,-0.26628 -0.57308,-0.70929 -0.92352,-0.98446 -0.40181,-0.31549 -0.63717,-0.72268 -0.63717,-1.10234 0,-1.15046 -1.93025,-1.8731 -3.06391,-1.14702 -0.69222,0.44335 -1.349618,0.37607 -1.593111,-0.16306 -0.322491,-0.71408 -1.038538,-1.15915 -1.986719,-1.23492 -0.578431,-0.0463 -0.941211,-0.21355 -1.117855,-0.51541 -0.516509,-0.88284 -0.909651,-1.11708 -1.874826,-1.11708 -0.713398,0 -1.092673,0.13252 -1.491893,0.52136 -0.330374,0.32175 -0.79676,0.52133 -1.218148,0.52133 -1.425105,0 -1.93585,0.39254 -2.528854,1.94362 -0.247243,0.64692 -1.239441,0.36581 -1.339676,-0.37958 -0.164052,-1.21993 1.479441,-2.81527 2.900183,-2.81527 0.297825,0 0.911655,-0.23917 1.364109,-0.53131 1.544626,-0.99761 3.715385,-0.86344 4.872681,0.30118 0.314906,0.31691 0.95261,0.68838 1.417135,0.8255 0.464524,0.13719 1.129614,0.48057 1.477987,0.76317 0.555217,0.45042 0.736837,0.48877 1.471067,0.31048 1.709,-0.41506 3.58208,0.51157 4.22598,2.09061 0.34783,0.85293 1.44087,2.07943 1.85321,2.07945 0.4627,0 1.78757,1.03592 2.2104,1.7283 0.26733,0.43752 0.34274,0.91774 0.24202,1.53919 -0.13554,0.83752 -0.10531,0.90328 0.41551,0.90328 1.13127,0 1.54871,0.89889 0.58937,1.26901 -0.54673,0.21084 -0.59848,0.4905 -1.7453,9.4319 -0.65004,5.068 -1.29665,9.33182 -1.43691,9.4752 -0.1402,0.14335 -0.39414,0.26069 -0.56415,0.26069 -0.92627,0 -0.97656,0.61568 1.46083,-17.88219 l 0.14426,-1.09483 h -2.09544 c -2.0084,0 -2.09557,0.0197 -2.09721,0.46921 -9.8e-4,0.25806 -0.33264,4.59827 -0.73709,9.6449 -0.40449,5.04665 -0.73644,9.45724 -0.73767,9.80133 l -0.002,0.62561 1.70437,-0.0687 c 1.97009,-0.0793 2.79692,0.1872 2.68303,0.86471 l -0.0764,0.45512 -12.112981,0.0541 c -8.588652,0.0384 -12.161567,-0.0123 -12.279982,-0.17462 z m 4.320023,-1.75621 c -9.88e-4,-0.34408 -0.332642,-4.75467 -0.73713,-9.80133 -0.40446,-5.04662 -0.736173,-9.38684 -0.737103,-9.6449 -0.0017,-0.44995 -0.08843,-0.46921 -2.110112,-0.46921 h -2.108425 l 0.139328,0.88628 c 0.0765,0.48746 0.63873,4.78076 1.249069,9.54064 0.61034,4.75991 1.168991,8.98281 1.241448,9.38424 l 0.131766,0.7299 h 1.466408 c 1.465508,0 1.466381,-4.2e-4 1.464694,-0.62562 z m 4.680882,-2.35347 v -2.97908 l -1.04665,-0.39742 c -0.575668,-0.21847 -1.42051,-0.60714 -1.877442,-0.8635 -0.778552,-0.43682 -0.822301,-0.44086 -0.69609,-0.0645 0.07417,0.22094 0.201576,1.52783 0.283601,2.90419 0.08203,1.37635 0.207684,2.92475 0.279821,3.44089 l 0.130893,0.93842 h 1.462977 1.463006 z m 4.767936,0.99796 c 0.08517,-1.0896 0.155615,-2.36614 0.156198,-2.83673 l 0.001,-0.85561 H 95.11054 93.386626 l 10e-4,0.85561 c 7.2e-4,0.47059 0.07098,1.74713 0.156197,2.83673 l 0.155032,1.98113 h 1.411435 1.411436 z m 4.692033,1.0427 c 0.0718,-0.51612 0.19779,-2.06453 0.27981,-3.44088 0.082,-1.37635 0.20943,-2.68325 0.2836,-2.90419 0.12624,-0.37645 0.0823,-0.37241 -0.69611,0.0645 -0.45694,0.25636 -1.301782,0.64495 -1.877416,0.86351 l -1.046684,0.3974 v 2.9791 2.97908 h 1.463006 1.462974 z m -3.565597,-6.37507 c 1.932192,-0.46157 3.234257,-1.26687 3.910327,-2.41842 0.81841,-1.39399 0.57838,-2.28338 -0.95912,-3.55379 -1.40294,-1.15926 -3.165025,-1.68544 -5.644026,-1.68544 -2.479024,0 -4.241106,0.52618 -5.644046,1.68544 -1.537558,1.27047 -1.777354,2.15939 -0.959127,3.55539 1.299855,2.21766 5.528108,3.31694 9.295992,2.41682 z m -7.173663,-8.27229 c 1.010146,-0.37837 1.07501,-0.45034 0.936032,-1.03867 -0.08203,-0.34766 -0.149219,-1.37113 -0.149219,-2.27436 v -1.64224 h -2.112905 -2.112874 l 0.132637,0.57348 c 0.07301,0.31541 0.206811,1.81608 0.297331,3.33483 l 0.164925,2.76132 0.879544,-0.65391 c 0.483721,-0.35966 1.367918,-0.83685 1.964849,-1.06045 z m 12.19104,-3.65189 0.11372,-1.30338 h -2.06497 -2.064933 v 1.64224 c 0,0.90323 -0.06579,1.92025 -0.146027,2.26002 -0.136705,0.57952 -0.06367,0.65188 1.183421,1.16851 0.731139,0.30288 1.600239,0.79548 1.931399,1.09466 l 0.60206,0.54394 0.16579,-2.05134 c 0.091,-1.1282 0.217,-2.63781 0.27954,-3.35465 z m -5.740024,0.83414 v -2.13752 h -1.970172 -1.970203 v 2.13752 2.13753 h 1.970203 1.970172 z m -9.243895,-5.27744 c -0.301956,-0.41374 0.131766,-1.21104 0.916367,-1.68404 0.528226,-0.3185 1.149677,-0.47584 1.908014,-0.48306 1.047465,-0.009 1.129985,0.0286 1.202587,0.56276 0.04276,0.31542 -0.01163,0.58547 -0.12304,0.6001 -0.110531,0.0148 -0.422697,0.0477 -0.693588,0.0734 -0.961975,0.0916 -1.604719,0.35064 -1.855976,0.7482 -0.273712,0.43313 -1.090949,0.54328 -1.354249,0.18252 z m 10.140897,-1.72187 c -0.42505,-0.86143 -0.716131,-1.03249 -2.005227,-1.17853 -0.851448,-0.0966 -0.985101,-0.18227 -0.985101,-0.63291 0,-0.4551 0.121301,-0.52978 0.955205,-0.58768 1.2189,-0.0847 2.214268,0.26702 3.003201,1.06091 0.797843,0.80291 0.759768,1.89062 -0.06981,1.9905 -0.420517,0.0508 -0.624683,-0.0975 -0.898389,-0.65229 z" />
    </g>
  </g>
</svg>
